<svg xmlns="http://www.w3.org/2000/svg" width="200" height="200" xml:space="preserve" style="fill-rule:evenodd;clip-rule:evenodd;stroke-linejoin:round;stroke-miterlimit:2">
    <path d="M100 3.75C100 1.68 98.32 0 96.25 0H3.75C1.68 0 0 1.68 0 3.75v92.5C0 98.32 1.68 100 3.75 100h92.5c2.07 0 3.75-1.68 3.75-3.75V3.75z" style="fill:#222" transform="scale(2)"/>
    <path d="M95 7.5A2.5 2.5 0 0 0 92.5 5h-85A2.5 2.5 0 0 0 5 7.5v85A2.5 2.5 0 0 0 7.5 95h85a2.5 2.5 0 0 0 2.5-2.5v-85z" style="fill:gray" transform="scale(2)"/>
    <path d="M101.833 91.468c-4.882-4.882-4.882-12.796 0-17.678 3.915-3.915 9.781-4.682 14.469-2.316 4.495-7.917 11.674-13.995 20.423-17.098a38.195 38.195 0 0 1 32.676 3.394 187.806 187.806 0 0 0 5.584 3.27V27.843a17.64 17.64 0 0 0-6.539-13.738c-4.164-3.386-9.556-4.705-14.789-3.607-18.029 3.77-41.526 5.845-66.164 5.845-24.638 0-48.135-2.075-66.164-5.845a17.617 17.617 0 0 0-14.792 3.595A17.644 17.644 0 0 0 0 27.843v92.63c0 44.46 33.335 81.281 76.323 86.782-.817-14.212 1.207-28.581 6.123-42.396l3.408-9.578c-6.281.383-12.452 2.963-17.241 7.752-4.881 4.881-12.797 4.881-17.678 0-4.882-4.882-4.882-12.796 0-17.678 11.885-11.885 28.163-16.756 43.655-14.626l12.438-34.957a36.256 36.256 0 0 1-5.195-4.304zm-29.883 0c-6.775 6.775-15.784 10.507-25.366 10.507-9.583 0-18.592-3.731-25.367-10.507-4.882-4.882-4.882-12.796 0-17.678 4.881-4.881 12.797-4.881 17.678 0 4.241 4.241 11.139 4.239 15.378 0 4.881-4.881 12.797-4.881 17.678 0 4.881 4.882 4.881 12.797-.001 17.678z" style="fill:#222;fill-rule:nonzero" transform="translate(33.402 21.41) scale(.44518)"/>
    <path d="M296.544 127.725a18.213 18.213 0 0 0-13.084-8.592c-17.524-2.393-40.144-8.091-64.195-16.649-24.051-8.558-45.186-18.428-60.283-27.642a18.198 18.198 0 0 0-15.57-1.617 18.22 18.22 0 0 0-11.071 11.068l-31.052 87.27c-16.291 45.785 7.619 96.108 53.404 112.398 9.75 3.469 19.706 5.115 29.495 5.115 36.179 0 70.081-22.484 82.903-58.519l31.052-87.27a18.208 18.208 0 0 0-1.599-15.562zm-164.915 23.354c-2.963-6.235-.31-13.692 5.926-16.654 8.655-4.113 18.394-4.608 27.421-1.396 9.027 3.213 16.264 9.748 20.376 18.403 2.963 6.235.31 13.692-5.926 16.654a12.446 12.446 0 0 1-5.355 1.213 12.5 12.5 0 0 1-11.299-7.139 10.803 10.803 0 0 0-6.177-5.578 10.797 10.797 0 0 0-8.311.423c-6.235 2.965-13.693.31-16.655-5.926zm76.584 91.515a51.397 51.397 0 0 1-22.105 5c-19.349 0-37.936-10.901-46.776-29.509-2.963-6.235-.31-13.691 5.926-16.654 6.235-2.964 13.692-.31 16.654 5.926 6.318 13.297 22.275 18.975 35.573 12.657 6.236-2.963 13.692-.31 16.654 5.926 2.963 6.235.309 13.691-5.926 16.654zm47.165-47.484a12.446 12.446 0 0 1-5.355 1.213 12.5 12.5 0 0 1-11.299-7.139c-2.574-5.416-9.073-7.729-14.489-5.155-6.233 2.965-13.691.311-16.654-5.926-2.963-6.235-.31-13.692 5.926-16.654 17.864-8.489 39.309-.861 47.798 17.007 2.962 6.235.308 13.692-5.927 16.654z" style="fill:#222;fill-rule:nonzero" transform="translate(33.402 21.41) scale(.44518)"/>
    <path d="M2.75 70v25c0 5.817 4.683 1.25 10.5 1.25h73.5c5.817 0 10.5 4.567 10.5-1.25V70H2.75z" style="fill:#222;fill-rule:nonzero" transform="scale(2)"/>
    <g style="font-style:normal;font-variant:normal;font-weight:700;font-stretch:normal;font-size:14.0128px;line-height:1.25;font-family:sans-serif;-inkscape-font-specification:'sans-serif Bold';letter-spacing:0;word-spacing:0;clip-rule:evenodd;fill:#fee;fill-opacity:1;fill-rule:evenodd;stroke:none;stroke-width:.350321;stroke-linejoin:round;stroke-miterlimit:2">
        <path d="M15.278 79.48H11.16l-.65 1.862H7.861l3.784-10.216h3.14l3.784 10.216h-2.648zm-3.462-1.895h2.799l-1.396-4.064zm8.108-6.459h4.372q1.95 0 2.99.87 1.047.861 1.047 2.463 0 1.607-1.047 2.476-1.04.863-2.99.863h-1.738v3.544h-2.634zm2.634 1.91v2.853h1.458q.766 0 1.183-.37.418-.376.418-1.06 0-.685-.418-1.054-.417-.37-1.183-.37zm12.302-.186q-1.204 0-1.867.89-.664.89-.664 2.504 0 1.608.664 2.498.663.89 1.868.89 1.21 0 1.874-.89.664-.89.664-2.498 0-1.614-.664-2.504-.663-.89-1.874-.89zm0-1.908q2.464 0 3.86 1.41 1.395 1.409 1.395 3.892 0 2.477-1.395 3.887-1.396 1.41-3.86 1.41-2.456 0-3.858-1.41-1.396-1.41-1.396-3.887 0-2.483 1.396-3.893 1.402-1.41 3.859-1.41zm7.247.184h2.634v8.225h4.625v1.99h-7.26zm8.929 0h2.634v10.216h-2.634zm3.995 0h9.415v1.991H61.06v8.225h-2.634v-8.225h-3.394zm10.777 0h2.634v10.216h-2.634zm12.322.322v2.162q-.84-.376-1.641-.568-.801-.191-1.513-.191-.944 0-1.395.26-.452.26-.452.807 0 .41.301.643.308.226 1.109.39l1.122.226q1.703.342 2.422 1.04.718.698.718 1.984 0 1.69-1.006 2.518-.999.821-3.058.821-.972 0-1.95-.185-.979-.184-1.957-.547v-2.224q.978.52 1.888.787.917.26 1.766.26.862 0 1.32-.287.459-.288.459-.821 0-.48-.315-.74-.308-.26-1.238-.464l-1.02-.226q-1.533-.329-2.244-1.047-.705-.719-.705-1.936 0-1.526.985-2.347.986-.821 2.833-.821.842 0 1.731.13.89.123 1.84.376zm11.085 9.332q-.725.377-1.512.569-.787.191-1.642.191-2.552 0-4.044-1.423-1.492-1.43-1.492-3.873 0-2.45 1.492-3.872 1.492-1.43 4.044-1.43.855 0 1.642.191.787.192 1.512.568v2.114q-.732-.5-1.444-.732-.711-.232-1.498-.232-1.41 0-2.217.903-.807.903-.807 2.49 0 1.58.807 2.484.807.903 2.217.903.787 0 1.498-.232.712-.233 1.444-.733zm2.183-9.654h2.634v3.894h3.886v-3.894h2.635v10.216h-2.635V77.01h-3.886v4.33h-2.634z" style="font-style:normal;font-variant:normal;font-weight:700;font-stretch:normal;font-family:sans-serif;-inkscape-font-specification:'sans-serif Bold';fill:#fee;fill-opacity:1;stroke-width:.350321" transform="scale(1.83503 2.1798)" aria-label="APOLITISCH"/>
    </g>
</svg>
