<svg xmlns="http://www.w3.org/2000/svg" width="200" height="200" xml:space="preserve" style="fill-rule:evenodd;clip-rule:evenodd;stroke-linejoin:round;stroke-miterlimit:2">
    <path d="M100 3.75C100 1.68 98.32 0 96.25 0H3.75C1.68 0 0 1.68 0 3.75v92.5C0 98.32 1.68 100 3.75 100h92.5c2.07 0 3.75-1.68 3.75-3.75V3.75z" style="fill:#222" transform="scale(2)"/>
    <path d="M95 7.5A2.5 2.5 0 0 0 92.5 5h-85A2.5 2.5 0 0 0 5 7.5v85A2.5 2.5 0 0 0 7.5 95h85a2.5 2.5 0 0 0 2.5-2.5v-85z" style="fill:#da0000" transform="scale(2)"/>
    <g transform="translate(26 25.366) scale(.11563)">
        <clipPath id="a">
            <path d="M0 0h1280v879H0z"/>
        </clipPath>
        <g clip-path="url(#a)">
            <path d="M5105 8720c-486-126-1679-428-2220-562l-530-132-227-160c-125-89-368-259-539-378l-312-218H-3l7-2202c5-1212 9-2204 9-2205 1-1 227-5 503-9l500-7 125-114c686-633 764-703 787-703 8 0 41 26 75 58s139 130 232 217c94 88 426 402 739 699 312 297 588 556 612 575 58 44 121 52 187 23 25-11 207-124 404-250 414-265 491-312 512-312 19 0 84 70 184 199 45 58 127 151 183 208 90 91 105 103 136 103 60 0 119-41 653-455 143-111 460-351 705-535 490-367 596-451 605-481 11-33-34-145-96-240l-59-90v-529c0-292 3-530 7-530s188 105 410 233l404 232-5 790c-3 536-8 805-16 836-8 34-27 64-68 110-31 35-307 297-612 583-305 287-620 584-699 662l-145 141-7 59c-17 139-6 307 22 325 24 15 70 10 105-12 57-35 64-53 64-161v-98l785-736 785-736v-416c0-707 12-1332 25-1332 19 0 250 136 474 280l210 135 1 1069v1068l-663 672c-837 847-971 987-998 1043-20 41-21 56-17 177 7 170 10 176 94 176 95 0 110-18 118-141 3-52 7-108 9-125 2-27 121-151 835-869l832-838 1-851c1-910 9-1429 22-1443 12-11 116 46 456 248l291 173v2523l-592 574c-326 316-875 850-1220 1187-345 336-630 612-633 612-4 0-125-91-269-203-321-249-322-249-371-274-22-12-87-30-144-41-58-12-111-28-119-36-10-10-16-45-20-108l-4-93-142-105c-77-58-325-242-551-409-518-385-566-418-633-431-30-5-262-10-540-10l-487-1-71 63c-445 397-712 642-726 666-29 49-23 86 20 128 20 20 319 240 663 490l626 454 6 378c4 207 9 389 13 403 7 31-2 26 619 359 603 323 665 359 665 381 0 33-384 340-424 339-6 0-132-32-281-70z" style="fill:#222;fill-rule:nonzero" transform="matrix(.1 0 0 -.1 0 879)"/>
            <path d="M6945 8773c-53-10-123-43-265-123-250-141-450-249-1075-580-324-172-654-348-732-393l-143-80-2-386-3-386-255-188c-140-104-419-308-620-454s-369-269-374-274c-15-14 294-289 325-289 19 0 178 103 479 311 249 172 388 259 414 259 33 0 81-35 95-69 8-18 11-45 7-66-9-44-27-58-446-344-179-122-336-231-350-241l-25-20 48-45 49-45h930l67 47c63 45 772 571 967 717l91 68 6 247c4 135 7 309 7 387 0 77 3 188 6 246l7 106 50 23 49 24 47-26 46-26 6-319c3-175 6-321 7-322 4-8 128 11 167 25 22 7 65 33 95 56 30 24 149 117 264 207 242 188 360 270 391 270 63 0 234-160 1674-1570 481-470 908-886 948-923l73-69V2020h408l407 1 431 418 430 419 577 7 577 8v4297h-517l-518-1-125 104c-69 57-170 138-225 179-55 42-171 134-257 205-156 128-158 129-250 155-113 32-832 212-1353 338-209 51-456 112-550 136-483 126-1893 471-1955 479-25 4-54 8-65 9-11 2-29 1-40-1zM3573 3272c-197-182-1345-1277-1456-1389l-99-100 124-105c222-189 651-542 736-606 72-54 86-61 101-50 46 33 283 303 613 698 135 162 402 477 592 700 215 252 346 413 346 426 0 16-51 54-227 171-241 159-496 319-562 352l-39 21-129-118zm125-304 70-68-91-91-92-90 60-57c33-31 116-99 183-150 68-52 122-98 120-102-7-19-114-160-121-160-18 0-401 281-489 360-57 50-61 79-20 136 35 47 292 296 303 292 4-2 39-33 77-70zm1439 240c-41-46-251-292-468-548-216-256-517-611-669-790s-318-377-370-440-146-178-210-255c-126-152-190-237-190-252 0-14 222-75 1069-294l204-53 51 55c68 73 619 788 755 979 41 58 156 211 256 340 361 468 505 660 505 675 0 22-76 96-141 137-30 19-192 139-359 265-168 126-317 237-331 247l-27 17-75-83zm104-288c51-26 119-88 119-108 0-8-16-34-35-58-53-65-135-186-135-200 0-7 42-38 93-69 172-105 217-139 217-160 0-26-87-175-102-175-6 0-99 53-206 118-276 165-339 230-297 308 33 62 284 364 301 364 3 0 23-9 45-20zm942-532c-42-57-188-247-323-423-233-303-796-1049-998-1323l-94-126 35-12c19-7 145-40 279-74 133-34 342-89 463-122l220-60 37 44c40 45 469 709 668 1033 64 105 167 269 227 365 160 253 187 304 172 327-39 60-563 473-600 473-4 0-43-46-86-102zm174-253 55-50-36-50c-57-80-88-134-82-144 3-5 45-36 94-69s94-67 100-74c17-21-83-188-113-188-13 0-232 141-308 199-84 63-93 108-40 200 27 46 109 147 176 218l40 42 30-17c16-9 54-39 84-67zm-5319 194c-194-167-408-363-407-373 1-17 519-488 601-547l26-19 44 36c23 20 136 125 250 233l208 196-98 94c-118 113-358 332-427 387-53 43-87 64-104 64-6 0-48-32-93-71zm663-843c-152-153-149-136-48-213 69-53 746-523 764-530 7-3 72 26 145 64 151 78 163 94 109 142-243 212-808 671-826 671-6 0-71-60-144-134zm4946-303c-219-342-397-633-397-649 0-13 231 4 371 26l137 22 7 283c7 276 1 465-15 465-5 0-51-66-103-147zM3290 654c0-39 427-404 472-404 14 0 246 179 251 195 4 9-1 19-13 25-10 5-162 48-337 94-370 98-373 98-373 90zm1440-400c-18-20-37-201-24-214 18-18 174-31 377-33l199-2 34 40c41 48 43 72 7 86-55 21-545 139-576 139-3 0-10-7-17-16z" style="fill:#222;fill-rule:nonzero" transform="matrix(.1 0 0 -.1 0 879)"/>
        </g>
    </g>
    <path d="M2.75 70v25c0 5.817 4.683 1.25 10.5 1.25h73.5c5.817 0 10.5 4.567 10.5-1.25V70H2.75z" style="fill:#222;fill-rule:nonzero" transform="scale(2)"/>
    <g aria-label="KOLLEKTIVISTISCH" style="font-weight:700;font-size:11.286px;line-height:1.25;font-family:sans-serif;-inkscape-font-specification:'sans-serif Bold';letter-spacing:0;word-spacing:0;fill:#fee;fill-opacity:1;stroke-width:.282152">
        <path d="M6.984 58.951h2.122v3.004l3.058-3.004h2.464l-3.962 3.897 4.37 4.331h-2.657l-3.273-3.24v3.24H6.984z" style="fill:#fee;fill-opacity:1;stroke-width:.282152" transform="scale(1.51586 2.63876)"/>
        <path d="M18.981 60.34q-.97 0-1.504.717-.535.716-.535 2.016 0 1.296.535 2.012.534.716 1.504.716.976 0 1.51-.716.535-.716.535-2.012 0-1.3-.535-2.016-.534-.717-1.51-.717zm0-1.537q1.984 0 3.108 1.135 1.125 1.135 1.125 3.135 0 1.995-1.125 3.13-1.124 1.136-3.108 1.136-1.978 0-3.108-1.135-1.124-1.136-1.124-3.13 0-2 1.124-3.136 1.13-1.135 3.108-1.135zm5.836.148h2.122v6.624h3.725v1.604h-5.847zm7.192 0h2.121v6.624h3.726v1.604h-5.847zm7.191 0h5.726v1.604h-3.604v1.532h3.389v1.604h-3.39v1.884h3.726v1.604H39.2zm7.71 0h2.121v3.004l3.059-3.004h2.463l-3.962 3.897 4.37 4.331h-2.656l-3.274-3.24v3.24H46.91zm7.764 0h7.583v1.604H59.53v6.624h-2.121v-6.624h-2.734zm8.68 0h2.121v8.228h-2.121zm3.218 0h2.133l2.182 6.073 2.177-6.073h2.132L72.15 67.18h-2.53zm9.715 0h2.122v8.228h-2.122zm9.925.259v1.742q-.678-.303-1.322-.458-.645-.154-1.218-.154-.76 0-1.124.21-.364.209-.364.65 0 .33.242.518.248.182.893.314l.904.182q1.372.275 1.95.837.58.563.58 1.599 0 1.36-.81 2.028-.805.66-2.464.66-.783 0-1.57-.148-.789-.149-1.577-.44v-1.792q.788.419 1.521.634.739.21 1.422.21.694 0 1.064-.232.369-.232.369-.661 0-.386-.254-.596-.248-.209-.997-.374l-.821-.182q-1.235-.265-1.808-.843-.567-.579-.567-1.56 0-1.229.793-1.89.794-.661 2.282-.661.678 0 1.394.104.716.1 1.482.303zm1.422-.259h7.583v1.604h-2.728v6.624h-2.122v-6.624h-2.733zm8.679 0h2.122v8.228h-2.122zm9.925.259v1.742q-.677-.303-1.322-.458-.645-.154-1.218-.154-.76 0-1.124.21-.364.209-.364.65 0 .33.242.518.248.182.893.314l.904.182q1.372.275 1.95.837.58.563.58 1.599 0 1.36-.81 2.028-.805.66-2.464.66-.783 0-1.57-.148-.789-.149-1.577-.44v-1.792q.788.419 1.521.634.739.21 1.422.21.694 0 1.064-.232.369-.232.369-.661 0-.386-.254-.596-.248-.209-.997-.374l-.821-.182q-1.235-.265-1.808-.843-.567-.579-.567-1.56 0-1.229.793-1.89.794-.661 2.282-.661.678 0 1.394.104.716.1 1.482.303zm8.928 7.517q-.584.303-1.218.458-.634.154-1.323.154-2.055 0-3.257-1.146-1.2-1.152-1.2-3.12 0-1.972 1.2-3.119 1.202-1.151 3.257-1.151.69 0 1.323.154.634.154 1.218.457v1.703q-.59-.402-1.163-.59-.573-.187-1.207-.187-1.135 0-1.785.728-.65.727-.65 2.005 0 1.273.65 2 .65.728 1.785.728.634 0 1.207-.187.573-.187 1.163-.59zm1.758-7.776h2.121v3.136h3.13v-3.136h2.122v8.228h-2.122v-3.488h-3.13v3.488h-2.121z" style="fill:#fee;fill-opacity:1;stroke-width:.282152" transform="scale(1.51586 2.63876)"/>
    </g>
</svg>
