<svg xmlns="http://www.w3.org/2000/svg" width="200" height="200" xml:space="preserve" style="fill-rule:evenodd;clip-rule:evenodd;stroke-linejoin:round;stroke-miterlimit:2">
    <path d="M100 3.75C100 1.68 98.32 0 96.25 0H3.75C1.68 0 0 1.68 0 3.75v92.5C0 98.32 1.68 100 3.75 100h92.5c2.07 0 3.75-1.68 3.75-3.75V3.75z" style="fill:#222" transform="scale(2)"/>
    <path d="M95 7.5A2.5 2.5 0 0 0 92.5 5h-85A2.5 2.5 0 0 0 5 7.5v85A2.5 2.5 0 0 0 7.5 95h85a2.5 2.5 0 0 0 2.5-2.5v-85z" style="fill:#cd0074" transform="scale(2)"/>
    <g transform="matrix(1.0862 0 0 .6635 5.5 5)">
        <clipPath id="a">
            <path d="M0 0h174v211H0z"/>
        </clipPath>
        <g clip-path="url(#a)">
            <path d="m0 0 17.536 3 3.982 2.637C33.433 13.528 40.57 23.741 46.579 41.5c3.686 10.891 3.013 16.99-3.363 30.482-1.424 3.015-2.779 7.767-3.011 10.56-.357 4.306.115 6.143 3.103 12.076 1.938 3.848 4.307 7.646 5.265 8.44 2.504 2.074 14.876 17.026 16.304 19.704 1.58 2.963-.38 7.211-6.397 13.861-4.542 5.02-5.519 8.27-3.091 10.285 3.438 2.853 2.307 12.055-2.15 17.504-2.039 2.493-2.289 3.588-1.737 7.601.606 4.41.427 4.92-3.015 8.569-3.524 3.737-3.635 4.077-3 9.162.747 5.976-.566 11.112-3.525 13.79-2.459 2.226-2.903 4.466-2.903 4.466L0 211V0z" style="fill:#222;fill-rule:nonzero"/>
            <path d="m0 0 17.536 3 3.982 2.637C33.433 13.528 40.57 23.741 46.579 41.5c3.686 10.891 3.013 16.99-3.363 30.482-1.424 3.015-2.779 7.767-3.011 10.56-.357 4.306.115 6.143 3.103 12.076 1.938 3.848 4.307 7.646 5.265 8.44 2.504 2.074 14.876 17.026 16.304 19.704 1.58 2.963-.38 7.211-6.397 13.861-4.542 5.02-5.519 8.27-3.091 10.285 3.438 2.853 2.307 12.055-2.15 17.504-2.039 2.493-2.289 3.588-1.737 7.601.606 4.41.427 4.92-3.015 8.569-3.524 3.737-3.635 4.077-3 9.162.747 5.976-.566 11.112-3.525 13.79-2.459 2.226-2.903 4.466-2.903 4.466L0 211V0z" style="fill:#222;fill-rule:nonzero" transform="matrix(-1 0 0 1 174 0)"/>
        </g>
    </g>
    <path d="M2.75 70v25c0 5.817 4.683 1.25 10.5 1.25h73.5c5.817 0 10.5 4.567 10.5-1.25V70H2.75z" style="fill:#222;fill-rule:nonzero" transform="scale(2)"/>
    <g aria-label="KONSTRUKTIVISTISCH" style="font-weight:700;font-size:21.4394px;line-height:1.25;font-family:sans-serif;-inkscape-font-specification:'sans-serif Bold';letter-spacing:0;word-spacing:0;fill:#fee;fill-opacity:1;stroke-width:.535987">
        <path d="M8.153 111.428h4.03v5.706l5.81-5.706h4.68l-7.527 7.401 8.302 8.229h-5.046l-6.219-6.156v6.156h-4.03z" style="stroke-width:.535987" transform="scale(.71653 1.39562)"/>
        <path d="M30.943 114.066q-1.842 0-2.858 1.361-1.015 1.361-1.015 3.832 0 2.46 1.015 3.82 1.016 1.361 2.858 1.361 1.853 0 2.868-1.36 1.016-1.361 1.016-3.821 0-2.47-1.016-3.832-1.015-1.36-2.868-1.36zm0-2.92q3.769 0 5.904 2.156 2.136 2.157 2.136 5.957 0 3.79-2.136 5.946-2.135 2.156-5.904 2.156-3.758 0-5.904-2.156-2.136-2.157-2.136-5.946 0-3.8 2.136-5.957 2.146-2.156 5.904-2.156zm11.086.282h4.501l5.685 10.72v-10.72h3.82v15.63h-4.5l-5.685-10.72v10.72h-3.821zm28.82.492v3.308q-1.288-.576-2.513-.869-1.225-.293-2.313-.293-1.445 0-2.136.398-.69.398-.69 1.235 0 .628.46.984.471.346 1.696.597l1.717.346q2.606.523 3.705 1.59 1.1 1.069 1.1 3.037 0 2.585-1.54 3.852-1.528 1.256-4.679 1.256-1.486 0-2.983-.282-1.497-.283-2.994-.838v-3.402q1.497.795 2.89 1.204 1.402.397 2.7.397 1.319 0 2.02-.44.702-.439.702-1.255 0-.733-.482-1.131-.47-.398-1.895-.712l-1.56-.345q-2.344-.503-3.433-1.602-1.078-1.1-1.078-2.963 0-2.334 1.507-3.59 1.508-1.256 4.334-1.256 1.288 0 2.649.198 1.36.189 2.816.576zm2.701-.492h14.404v3.047h-5.182v12.583h-4.03v-12.583H73.55zm22.214 6.93q1.266 0 1.81-.47.556-.472.556-1.55 0-1.068-.555-1.528-.545-.461-1.811-.461h-1.696v4.01zm-1.696 2.785v5.915h-4.03v-15.63h6.155q3.088 0 4.522 1.037 1.445 1.036 1.445 3.276 0 1.55-.754 2.544-.743.995-2.25 1.466.826.188 1.475.858.66.66 1.33 2.01l2.188 4.439h-4.292l-1.905-3.884q-.576-1.173-1.173-1.602-.586-.43-1.57-.43zm12.478-9.715h4.03v9.37q0 1.936.629 2.774.638.827 2.072.827 1.445 0 2.073-.827.639-.838.639-2.775v-9.369h4.03v9.37q0 3.318-1.664 4.94-1.665 1.623-5.078 1.623-3.402 0-5.066-1.622-1.665-1.623-1.665-4.942zm17.409 0h4.03v5.706l5.81-5.706h4.68l-7.527 7.401 8.302 8.229h-5.046l-6.218-6.156v6.156h-4.03zm14.75 0h14.405v3.047h-5.182v12.583h-4.03v-12.583h-5.193zm16.488 0h4.03v15.63h-4.03zm6.114 0h4.05l4.146 11.536 4.135-11.536h4.052l-5.79 15.63h-4.804zm18.456 0h4.03v15.63h-4.03zm18.853.492v3.308q-1.287-.576-2.512-.869-1.225-.293-2.314-.293-1.444 0-2.135.398-.691.398-.691 1.235 0 .628.46.984.471.346 1.696.597l1.717.346q2.607.523 3.706 1.59 1.1 1.069 1.1 3.037 0 2.585-1.54 3.852-1.528 1.256-4.68 1.256-1.486 0-2.983-.282-1.497-.283-2.994-.838v-3.402q1.497.795 2.89 1.204 1.402.397 2.7.397 1.32 0 2.021-.44.701-.439.701-1.255 0-.733-.481-1.131-.471-.398-1.895-.712l-1.56-.345q-2.345-.503-3.433-1.602-1.079-1.1-1.079-2.963 0-2.334 1.508-3.59 1.507-1.256 4.334-1.256 1.287 0 2.648.198 1.361.189 2.816.576zm2.701-.492h14.405v3.047h-5.182v12.583h-4.03v-12.583h-5.193zm16.488 0h4.03v15.63h-4.03zm18.854.492v3.308q-1.288-.576-2.513-.869-1.225-.293-2.313-.293-1.445 0-2.136.398-.69.398-.69 1.235 0 .628.46.984.47.346 1.696.597l1.716.346q2.607.523 3.706 1.59 1.1 1.069 1.1 3.037 0 2.585-1.54 3.852-1.528 1.256-4.679 1.256-1.486 0-2.983-.282-1.497-.283-2.994-.838v-3.402q1.497.795 2.89 1.204 1.402.397 2.7.397 1.319 0 2.02-.44.702-.439.702-1.255 0-.733-.482-1.131-.47-.398-1.895-.712l-1.56-.345q-2.344-.503-3.433-1.602-1.078-1.1-1.078-2.963 0-2.334 1.507-3.59 1.508-1.256 4.334-1.256 1.288 0 2.649.198 1.36.189 2.816.576zm16.959 14.28q-1.11.575-2.314.868-1.204.293-2.512.293-3.905 0-6.187-2.177-2.282-2.188-2.282-5.925 0-3.748 2.282-5.926 2.282-2.187 6.187-2.187 1.308 0 2.512.293t2.314.869v3.234q-1.12-.764-2.21-1.12-1.088-.356-2.292-.356-2.156 0-3.392 1.382-1.235 1.382-1.235 3.81 0 2.419 1.235 3.8 1.236 1.382 3.392 1.382 1.204 0 2.293-.355 1.088-.356 2.209-1.12zm3.339-14.772h4.03v5.957h5.946v-5.957h4.03v15.63h-4.03v-6.627h-5.946v6.627h-4.03z" style="stroke-width:.535987" transform="scale(.71653 1.39562)"/>
    </g>
</svg>
