<svg xmlns="http://www.w3.org/2000/svg" width="200" height="200" xml:space="preserve" style="fill-rule:evenodd;clip-rule:evenodd;stroke-linejoin:round;stroke-miterlimit:2">
    <path d="M100 3.75C100 1.68 98.32 0 96.25 0H3.75C1.68 0 0 1.68 0 3.75v92.5C0 98.32 1.68 100 3.75 100h92.5c2.07 0 3.75-1.68 3.75-3.75V3.75z" style="fill:#222" transform="scale(2)"/>
    <path d="M95 7.5A2.5 2.5 0 0 0 92.5 5h-85A2.5 2.5 0 0 0 5 7.5v85A2.5 2.5 0 0 0 7.5 95h85a2.5 2.5 0 0 0 2.5-2.5v-85z" style="fill:#0c0" transform="scale(2)"/>
    <path d="M2.75 70v25c0 5.817 4.683 1.25 10.5 1.25h73.5c5.817 0 10.5 4.567 10.5-1.25V70H2.75z" style="fill:#222;fill-rule:nonzero" transform="scale(2)"/>
    <g transform="translate(38.258 27.789) scale(2.5978)">
        <clipPath id="a">
            <path d="M0 0h48.011v48.817H0z"/>
        </clipPath>
        <g clip-path="url(#a)">
            <path d="M10.011 39.054c-2.879-.205-4.385-1.243-5.158-2.395.149-2.804.578-6.296 1.784-9.465.692-1.815 1.674-3.458 2.878-4.666 1.316-1.439 2.533-2.547 3.758-3.46 2.42-1.792 4.542-2.573 5.214-2.847.679-.263 1.898-.755 3.372-1.304 1.469-.503 3.249-1.231 4.768-2.122a53.71 53.71 0 0 0 5.692-3.625c.005 0-2.755 1.53-5.962 2.8-1.618.69-3.271 1.143-4.815 1.501-1.518.39-2.801.788-3.507 1.061-1.321.551-9.234 3.083-13.275 11.571-.915 2.168-1.488 4.411-1.859 6.512C1.987 32.099.85 31.101.54 29.254 0 26.036.3 16.379 9.051 11.015c8.752-5.364 18.523-4.292 23.198-5.865C36.925 3.577 38.783 0 38.783 0s-3.896 36.407-28.772 39.054z" style="fill:#222;fill-rule:nonzero" transform="translate(-.468) scale(1.25)"/>
        </g>
    </g>
    <g aria-label="ÖKOLOGISCH" style="font-weight:700;font-size:27.3477px;line-height:1.25;font-family:sans-serif;-inkscape-font-specification:'sans-serif Bold';letter-spacing:0;word-spacing:0;clip-rule:evenodd;fill:#fee;fill-opacity:1;fill-rule:evenodd;stroke-width:.683692;stroke-linejoin:round;stroke-miterlimit:2">
        <path d="M22.727 143.563q-2.35 0-3.646 1.736-1.295 1.736-1.295 4.887 0 3.138 1.295 4.874 1.295 1.736 3.646 1.736 2.363 0 3.658-1.736 1.296-1.736 1.296-4.874 0-3.151-1.296-4.887-1.295-1.736-3.658-1.736zm0-3.726q4.807 0 7.53 2.751 2.725 2.751 2.725 7.598 0 4.834-2.724 7.585-2.724 2.75-7.531 2.75-4.794 0-7.532-2.75-2.724-2.75-2.724-7.585 0-4.847 2.724-7.598 2.738-2.75 7.532-2.75zm-4.207-5.06h3.138v3.284H18.52zm5.275 0h3.138v3.284h-3.138zm13.073 5.421h5.14v7.278l7.412-7.278h5.969l-9.601 9.44 10.589 10.497h-6.436l-7.932-7.852v7.852h-5.141z" style="stroke-width:.683692" transform="scale(.90442 1.10568)"/>
        <path d="M65.938 143.563q-2.35 0-3.645 1.736-1.296 1.736-1.296 4.887 0 3.138 1.296 4.874 1.295 1.736 3.645 1.736 2.364 0 3.659-1.736t1.295-4.874q0-3.151-1.295-4.887-1.295-1.736-3.659-1.736zm0-3.726q4.807 0 7.531 2.751 2.724 2.751 2.724 7.598 0 4.834-2.724 7.585-2.724 2.75-7.531 2.75-4.794 0-7.531-2.75-2.724-2.75-2.724-7.585 0-4.847 2.724-7.598 2.737-2.75 7.531-2.75zm14.142.361h5.14v16.05h9.027v3.887H80.08zm25.558 3.365q-2.35 0-3.646 1.736-1.295 1.736-1.295 4.887 0 3.138 1.295 4.874 1.295 1.736 3.646 1.736 2.363 0 3.658-1.736 1.296-1.736 1.296-4.874 0-3.151-1.296-4.887-1.295-1.736-3.658-1.736zm0-3.726q4.807 0 7.53 2.751 2.725 2.751 2.725 7.598 0 4.834-2.724 7.585-2.724 2.75-7.531 2.75-4.794 0-7.532-2.75-2.724-2.75-2.724-7.585 0-4.847 2.724-7.598 2.738-2.75 7.532-2.75zm32.061 18.815q-1.923.935-3.993 1.402-2.07.468-4.273.468-4.98 0-7.892-2.778-2.91-2.79-2.91-7.558 0-4.82 2.964-7.584 2.964-2.765 8.119-2.765 1.99 0 3.805.374 1.83.374 3.446 1.109v4.126q-1.67-.948-3.325-1.416-1.643-.467-3.299-.467-3.071 0-4.74 1.723-1.656 1.709-1.656 4.9 0 3.165 1.602 4.888 1.603 1.722 4.554 1.722.801 0 1.482-.093.695-.107 1.242-.32v-3.873h-3.138v-3.445h8.012zm4.527-18.454h5.14v19.937h-5.14zm24.049.628v4.22q-1.642-.735-3.205-1.109-1.562-.374-2.95-.374-1.843 0-2.725.507-.881.508-.881 1.576 0 .801.587 1.255.601.441 2.164.762l2.19.44q3.325.668 4.727 2.03 1.402 1.362 1.402 3.872 0 3.299-1.963 4.914-1.95 1.603-5.969 1.603-1.896 0-3.806-.36-1.91-.361-3.819-1.069v-4.34q1.91 1.015 3.686 1.536 1.79.507 3.445.507 1.682 0 2.577-.56.895-.561.895-1.603 0-.935-.614-1.442-.601-.508-2.417-.908l-1.99-.44q-2.991-.642-4.38-2.044-1.375-1.402-1.375-3.779 0-2.978 1.922-4.58 1.923-1.603 5.529-1.603 1.642 0 3.378.254 1.736.24 3.592.735zm21.633 18.214q-1.416.734-2.951 1.108-1.536.374-3.205.374-4.981 0-7.892-2.778-2.911-2.79-2.911-7.558 0-4.78 2.91-7.558 2.912-2.79 7.893-2.79 1.669 0 3.205.373 1.535.374 2.95 1.109v4.126q-1.428-.975-2.817-1.429-1.389-.454-2.924-.454-2.751 0-4.327 1.763-1.575 1.762-1.575 4.86 0 3.085 1.575 4.848 1.576 1.762 4.327 1.762 1.535 0 2.924-.454t2.818-1.429zm4.259-18.842h5.141v7.598h7.585v-7.598h5.141v19.937h-5.14v-8.453h-7.586v8.453h-5.14z" style="stroke-width:.683692" transform="scale(.90442 1.10568)"/>
    </g>
</svg>
