<svg xmlns="http://www.w3.org/2000/svg" width="200" height="200" xml:space="preserve" style="fill-rule:evenodd;clip-rule:evenodd;stroke-linejoin:round;stroke-miterlimit:2">
    <path d="M100 3.75C100 1.68 98.32 0 96.25 0H3.75C1.68 0 0 1.68 0 3.75v92.5C0 98.32 1.68 100 3.75 100h92.5c2.07 0 3.75-1.68 3.75-3.75V3.75z" style="fill:#222" transform="scale(2)"/>
    <path d="M95 7.5A2.5 2.5 0 0 0 92.5 5h-85A2.5 2.5 0 0 0 5 7.5v85A2.5 2.5 0 0 0 7.5 95h85a2.5 2.5 0 0 0 2.5-2.5v-85z" style="fill:#0c0" transform="scale(2)"/>
    <path d="M142.193 317.088c-6.725-11.091-13.545-21.293-21.748-30.56-6.428-7.263-12.443-14.891-18.801-22.218-4.712-5.429-9.697-10.621-14.523-15.952-1.848-2.041-3.585-4.183-5.389-6.264-1.207-1.393-1.646-3.053-.895-4.665.791-1.694 2.247-1.867 4.215-1.684 5.17.48 9.725 3.016 14.741 3.915 1.974.354 3.888 1.042 5.859 1.406 7.401 1.369 14.806 2.724 22.229 3.965 3.539.592 7.123.92 10.688 1.355.713.087 1.457.018 2.145.189 9.811 2.444 19.863 2.91 29.881 3.572 2.782.184 5.612-.334 8.834-.561-6.502-6.114-7.422-13.073-4.662-20.965-7.326-3.107-12.338-8.224-14.318-16.22-1.951-7.879-.051-14.632 5.367-20.605-.858-.783-1.42-1.383-2.064-1.872-5.158-3.908-6.676-12.697-3.279-18.534 2.482-4.267 5.385-8.078 9.625-11.021-.771-.854-1.364-1.562-2.011-2.219-2.213-2.245-3.137-4.972-3.444-8.078-.589-5.956-1.191-11.922-2.158-17.824-.537-3.279-1.816-6.437-2.764-9.648-.339-1.146-.689-2.287-1.031-3.432-.406-1.363-.453-2.544 1.078-3.363 1.494-.8 2.791-.532 4.002.435.922.737 1.674 1.695 2.619 2.397 3.836 2.851 8.504 3.587 12.912 4.987 4.883 1.551 9.908 2.788 14.57 4.844 2.576 1.137 4.536 3.672 6.967 5.741 3.207-3.254 7.315-5.879 12.123-7.131 6.422-1.672 15.286 1.374 17.222 8.375.155.56.455 1.095.769 1.591.174.276.514.448 1.039.882 1.097-.854 2.216-1.683 3.289-2.568 4.896-4.036 11.445-4.412 17.016-1.216 2.807 1.611 5.598 3.131 7.906 5.487 2.258 2.305 3.65 4.922 4.123 8.101.209 1.396.645 2.758.973 4.119 13.793-2.533 16.734 1.408 20.145 10.217.319-1.038.683-1.743.738-2.472.61-7.986 1.137-15.98 1.761-23.966.476-6.087 1.292-12.157 1.526-18.252.244-6.34.018-12.702-.088-19.053a914.395 914.395 0 0 0-.518-19.381c-.104-2.742-.653-5.473-.68-8.211-.027-2.846.236-5.707.584-8.536.103-.829.93-1.569 1.416-2.336 2.898.48 4.264 2.667 5.777 4.372 6.75 7.603 13.406 15.292 19.914 23.104 3.367 4.043 6.141 8.588 9.558 12.585 7.001 8.187 14.073 16.323 22.351 23.311 2.541 2.145 4.783 4.643 7.174 6.969.16.156.408.223.922.491 1.512-7.448 5.02-13.509 12.154-16.904-3.99-7.326-5.194-14.383-1.318-22.085 3.98-7.911 11.291-9.184 18.794-10.581-.022-2.846-1.23-5.378-.696-8.208.959-5.085 3.729-8.803 7.977-11.353 3.084-1.851 6.528-2.972 10.287-2.591 1.402.142 2.83.023 4.496.023 0-1.637-.182-2.948.035-4.188.512-2.91 1.351-5.585 3.008-8.252 4.215-6.778 7.828-13.93 11.618-20.967.498-.924.556-2.075.937-3.076.545-1.438 1.123-2.875 1.83-4.239.59-1.137 1.58-1.829 2.959-1.527 1.211.265 1.871.87 2.453 2.188 2.793 6.328 5.838 12.546 8.866 18.769 1.301 2.674 3.76 4.495 5.016 7.358 1.857 4.231 3.096 8.238 1.145 12.696-.178.406-.174.891-.305 1.609 3.373.222 6.557.339 9.719.662 4.16.425 8.102 1.662 10.568 5.274 2.965 4.338 4.705 9.09 3.053 14.482-.234.763-.371 1.557-.676 2.869 5.664-.509 10.797.125 14.98 3.856 3.951 3.525 6.818 7.692 7.496 13.108.686 5.464-.869 10.324-4.244 15.028 3.996 1.291 6.182 4.384 8.453 7.401 2.449 3.255 2.445 6.799 1.609 10.808 1.852-1.639 3.828-3.157 5.529-4.939 5.043-5.283 10.211-10.472 14.893-16.064 6.381-7.627 12.428-15.539 18.49-23.426 6.797-8.84 13.434-17.804 20.186-26.678 1.377-1.809 2.961-3.46 4.539-5.289.725-.072 1.555-.251 2.377-.219 3.174.124 3.758 1.034 3.334 4.242-.58 4.368-.73 8.803-1.482 13.137-1.277 7.349-.832 14.774-1.33 22.154-.178 2.606.371 5.256.52 7.889.441 7.781.615 15.586 1.328 23.341.809 8.812 1.662 17.646 3.975 26.245.246.911.309 1.872.463 2.844 3.07-1.634 5.902-3.679 9.064-4.671 3.168-.994 6.637-.593 9.789.848 1.08-2.781 2.018-5.48 3.162-8.088 3.244-7.395 9.162-10.413 17.031-10.885 6.033-.362 10.184 2.665 14.539 6.639 2.553-7.028 7.773-11.307 14.791-11.768 6.75-.442 13.242 1.632 17.617 7.661.199-.037.582-.015.627-.127 1.996-5.036 6.549-6.633 11.084-8.195 3.02-1.041 6.24-1.609 9.113-2.946 4.211-1.961 8.195-4.412 12.268-6.673.73-.405 1.396-.921 2.111-1.355 1.209-.733 2.449-1.053 3.604.064 1.371 1.331 1.533 2.734.617 4.391-2.572 4.645-2.955 9.786-3.359 14.919-.395 5.007-.674 10.026-1.191 15.021-.328 3.159-2.24 5.479-4.732 7.329-.572.425-1.184.797-2.031 1.361 1.295.902 2.457 1.641 3.541 2.481 1.416 1.099 2.842 2.203 4.141 3.435 7.727 7.327 5.998 18.164-1.426 24.487-1.066.909-1.943 2.041-2.779 2.932 1.502 2.227 3.051 4.391 4.463 6.642 3.043 4.852 2.16 9.858.354 14.826-1.783 4.909-5.057 8.555-9.703 10.956-1.16.599-2.316 1.207-3.805 1.982 3.398 7.438 3.201 14.465-3.191 20.583 3.4 0 6.455.27 9.447-.05 9.643-1.029 19.244-2.447 28.895-3.39 10.031-.98 19.793-3.297 29.633-5.277 7.842-1.579 15.713-3.021 23.568-4.534 1.791-.345 3.359-.041 4.436 1.547 1 1.474.836 3.298-.58 4.943-2.332 2.708-4.697 5.397-7.176 7.97-6.252 6.492-12.012 13.398-16.676 21.104-4.699 7.762-11.1 14.086-16.912 20.902-5.697 6.68-10.465 13.893-14.256 22.271 7.838-.408 12.863 3.656 16.699 9.748 1.953-1.528 3.586-2.936 5.354-4.145 1.162-.796 2.465-1.696 3.799-1.882 8.521-1.188 16.297.438 22.199 7.175 1.668 1.904 2.553 4.5 3.764 6.797.377.717.645 1.49.957 2.223 15.312-5.235 27.072 6.469 28.057 20.801 1.131-.221 2.242-.574 3.365-.621 1.408-.059 2.891-.104 4.23.257 8.648 2.323 17.266 4.764 25.898 7.151.572.158 1.18.284 1.77.277 2.393-.025 4.451.483 5.727 2.814.297.543 1.113.802 1.711 1.207-.811 2.697-2.105 4.34-5.035 4.938-2.127.434-4.24 1.738-5.969 3.137-2.961 2.398-5.551 5.246-8.416 7.771-3.049 2.686-6.01 5.584-9.441 7.682-2.205 1.35-5.191 1.422-8.029 2.115.754 4.659.85 9.566-.256 14.522-1.602 7.171-6.871 11.06-14.465 11.511-1.186.07-2.381.01-4.02.01 0 2.185-.008 4.186.002 6.188.059 13.938-15.264 22.222-26.316 19.118-1.117-.314-2.17-.862-3.467-1.389-.684 7.69-5.859 10.5-12.756 11.923.561.743.906 1.48 1.48 1.923 5.49 4.238 10.99 8.468 16.547 12.617 4.418 3.297 8.861 6.564 13.404 9.686 4.139 2.845 8.379 5.552 12.66 8.182 6.332 3.889 12.652 7.811 19.145 11.417 4.172 2.317 8.605 4.186 12.996 6.078 2.656 1.145 2.994 3.487 3.326 5.78.092.635-.791 1.574-1.445 2.1-.508.407-1.352.417-2.057.549-5.043.941-10.084 1.902-15.137 2.792-5.057.89-10.125 1.71-15.191 2.552-9.908 1.646-19.881 2.98-29.707 5.021-8.648 1.796-17.137 4.366-25.686 6.632-1.023.271-1.984.777-3.41 1.35 6.949 4.614 8.406 11.112 7.439 18.582 2.17.402 4.34.84 6.523 1.203 5.908.981 10.385 4.356 13.867 8.918 1.447 1.896 2.246 4.51 2.67 6.915.838 4.759 1.1 9.581-2.449 13.749 2.754 1.779 5.67 3.199 7.982 5.287 2.502 2.259 4.184 5.439 4.607 8.769.398 3.135.182 6.466-.434 9.577-.615 3.106-1.547 6.308-4.646 8.626 6.996 3.397 9.318 10.281 13.131 15.94 3.486 5.176 6.883 10.371 11.508 14.65 2.682 2.481 3.049 4.226 1.381 6.151-.559.644-1.607 1.29-2.383 1.237-2.578-.172-5.133-.671-7.699-1.026-1.064-.147-2.148-.424-3.201-.342-7.037.549-14.08 1.064-21.094 1.827-3.855.419-6.984-.919-9.977-3.043-.807-.573-1.689-1.04-2.951-1.807-.93 5.44-5.275 7.645-8.33 10.882-.836.884-2.258 1.361-3.498 1.688-5.83 1.531-11.574 2.361-16.088-3.098-.205-.248-.627-.316-1.293-.633-.963 1.061-2.008 2.149-2.982 3.297-2.818 3.313-5.764 6.452-10.355 7.155-1.146.176-2.41.303-3.5.008-3.918-1.06-7.875-2.076-11.639-3.559-3.182-1.252-5.504-3.731-6.938-6.921-.475-1.055-.943-2.111-1.562-3.502-5.568 2.758-10.639 6.92-17.535 2.399.49 3.567.777 6.204 1.23 8.812.43 2.476 1.047 4.917 1.555 7.38 3.357 16.333 8.127 32.205 15.039 47.424 1.971 4.339 3.334 8.955 4.982 13.44.99 2.695 2.039 5.37 2.977 8.083.889 2.575 1.668 5.188 2.523 7.876l-3.506 2.435c-1.934-1.218-3.943-2.421-5.891-3.719a1696.873 1696.873 0 0 1-14.277-9.627c-3.15-2.146-6.191-4.457-9.404-6.503-3.221-2.053-6.59-3.874-9.902-5.785-4.135-2.389-8.193-4.932-12.436-7.11-7.127-3.66-14.334-7.169-21.584-10.576-3.676-1.728-7.516-3.106-11.293-4.615-1.074-.429-2.186-.76-3.727-1.289 1.016 1.882 1.811 3.279 2.535 4.714 3.488 6.93 2.414 11.835-3.508 16.723.945.748 1.818 1.499 2.75 2.167 2.967 2.129 4.879 4.988 5.461 8.559.631 3.874 1.076 7.785 1.398 11.697.248 2.994-1.613 5.191-3.43 7.275-1.414 1.62-2.848 3.298-4.559 4.565-1.693 1.256-3.742 2.03-5.967 3.188 4.396 6.032 4.344 12.467 1.018 18.843-3.248 6.229-8.178 10.459-15.99 11.286 2.113 3.561 2.691 7.125 2.064 10.844-.338 2.004-.494 4.097-1.207 5.969-2.086 5.484-1.875 11.259-2.314 16.934-.129 1.668.816 3.438 1.363 5.134.488 1.518.926 2.823-.531 4.241-.812.788-.963 2.254-1.562 3.801-1.084.806-2.092.484-3.215-.951-1.986-2.538-4.088-5.015-6.367-7.288-1.76-1.752-3.848-3.179-5.822-4.706-3.482-2.692-7.174-5.087-10.092-8.506-2.193-2.569-4.516-4.965-5.062-8.452-.258-1.638-.354-3.302-.549-5.219-.826.298-1.621.452-2.277.84-9.467 5.604-17.414 2.457-22.922-2.225-2.406-2.047-3.549-5.056-4.287-8.139-.264-1.094-.576-2.177-.834-3.146-.703 0-1.016-.1-1.158.014-6.949 5.482-13.215 1.877-18.939-1.993-6.361-4.299-8.412-11.925-6.301-19.445.326-1.161.336-2.41.498-3.649-9.551-.64-14.646-4.549-16.592-15.397-.648.728-1.266 1.218-1.621 1.854-1.863 3.344-3.764 6.673-5.453 10.106-2.266 4.61-4.492 9.251-6.477 13.986-2.498 5.955-4.953 11.946-7.031 18.056-2.621 7.7-4.801 15.549-7.252 23.309-2.234 7.078-4.557 14.129-6.881 21.179-.69 2.093-2.247 3.386-3.668 3.237-2.926-.306-3.899-1.364-4.688-3.969a580.839 580.839 0 0 0-6.239-19.391c-2.516-7.357-5.064-14.71-7.875-21.958-1.77-4.564-4.1-8.908-6.082-13.394-2.746-6.213-5.363-12.482-8.105-18.696-1.774-4.019-3.676-7.981-5.672-12.298-2.152 3.186-2.863 6.796-6.184 9.055-3.287 2.235-7.188 1.624-10.457 3.318 3.008 7.098-.426 16.351-5.8 19.985-1.187.803-2.242 1.798-3.423 2.61-3.959 2.726-8.198 3.843-12.91 2.147-.781-.281-1.613-.421-2.428-.607-.099-.022-.225.069-.338.108-4.566 14.729-14.695 21.008-32.04 15.802-.265.288-.729.575-.864.973-1.225 3.65-4.019 6.258-7.064 7.881-8.172 4.358-13.972 11.151-19.945 17.846-.08.089-.141.196-.227.279-.828.809-1.586 2.284-2.885 1.498-.877-.53-1.592-1.838-1.771-2.9-.313-1.861.14-3.865-.253-5.696-1.252-5.827-2.424-11.706-4.232-17.371-1.943-6.09-1.921-11.702 1.85-16.96-6.696-2.44-12.907-5.313-17.139-11.257-1.689-2.372-2.385-4.954-1.895-7.808.617-3.594.288-7.562 4.242-10.232-4.944-2.243-9.188-5.144-10.655-10.199-1.419-4.892-2.431-9.99-.806-15.18 1.562-4.991 5.273-8.386 8.939-12.15-8.153-5.312-7.857-12.268-4.076-19.787-.453-.15-.718-.341-.873-.275-8.909 3.777-17.988 7.212-26.654 11.481-7.502 3.695-14.615 8.209-21.75 12.607-6.605 4.071-12.998 8.485-19.504 12.716-5.107 3.321-10.248 6.59-15.369 9.89-2.189 1.411-2.897 1.245-6.186-1.783 1.779-3.774 3.654-7.687 5.471-11.626 2.285-4.961 4.751-9.811 6.185-15.166 1.317-4.922 3.419-9.632 5.136-14.448 3.046-8.542 6.107-17.079 9.055-25.655.613-1.786.777-3.73 1.123-5.607.848-4.591 1.697-9.182 2.505-13.779.181-1.033.195-2.096.318-3.52-7.471 3.52-14.2 3.094-20.315-2.594-4.465 6.451-9.6 11.783-18.099 11.029-7.638-.677-14.497-3.062-18.589-10.716-3.558 2.17-6.938 4.912-11.524 4.676-4.284-.22-8.206-1.456-11.849-3.651-3.85-2.32-5.865-6.222-8.215-9.782-.2.069-.33.079-.408.147-3.852 3.336-8.32 3.564-13.131 2.96a155.852 155.852 0 0 0-15.368-1.166c-2.322-.061-4.807.41-6.972 1.265-3.626 1.43-6.376.243-9.107-1.947-.003-1.805.84-3.079 2.146-4.012 3.531-2.522 5.367-6.364 7.604-9.848 3.021-4.705 5.437-9.821 8.679-14.355 1.862-2.604 4.847-4.405 7.39-6.623-.863-1.239-2.415-2.743-3.081-4.569-1.716-4.709-3.218-9.67-2.368-14.669.892-5.244 4.283-9.25 8.557-12.349.876-.637 2.206-.732 3.354-.894 2.043-.286 2.533-.803 1.996-2.804-.588-2.194-1.51-4.307-1.988-6.52-.943-4.362.182-8.209 3.059-11.687 3.521-4.258 7.968-6.796 13.335-7.734 1.714-.3 3.497-.197 5.692-.3-.361-4.265.168-8.463 2.104-12.346 2.051-4.112 5.984-5.565 10.17-7.313-1.69-.571-3.352-1.26-5.076-1.693-9.285-2.331-18.549-4.773-27.897-6.827-6.29-1.383-12.711-2.168-19.066-3.26-1.881-.323-3.728-.843-5.608-1.169a2799.512 2799.512 0 0 0-20.529-3.477c-4.714-.78-9.439-1.496-14.156-2.256-2.899-.466-3.107-.68-3.259-3.69-.053-1.068.126-2.146.108-3.217-.024-1.438.835-2.092 1.996-2.664 7.189-3.544 14.438-6.979 21.514-10.737 9.058-4.811 18.055-9.751 26.912-14.922 3.799-2.219 7.168-5.173 10.75-7.768 6.592-4.774 13.199-9.531 20.285-14.646-1.357-.288-2.211-.599-3.076-.631-7.354-.275-11.664-3.754-13.506-10.956-.113-.449-.308-.878-.484-1.373-7.775 3.217-14.99 3.201-21.961-2.144-6.655-5.103-9.717-11.546-8.664-19.839-15.425.305-23.936-13.989-18.258-27.208-.145-.175-.284-.493-.437-.501-6.005-.291-10.236-3.691-13.928-7.98-2.516-2.922-5.269-5.502-8.553-7.599-4.315-2.755-8.435-5.815-12.942-8.956.552-.584.969-1.33 1.599-1.631 1.511-.721 3.105-1.279 4.694-1.818 7.33-2.488 14.669-4.944 22.002-7.42.454-.152.905-.33 1.328-.552 3.472-1.828 6.974-2.477 10.63-.466.463.255 1.122.154 1.972.251.129-5.257 1.535-10.009 3.612-14.612.973-2.156 2.42-3.762 4.372-4.977 3.707-2.308 7.673-3.918 12.105-3.84 1.384.023 2.771.57 4.132.962 1 .288 1.96.716 3.195 1.177 2.157-8.145 6.737-13.426 14.994-15.377 7.934-1.873 14.556.248 20.619 5.803 1.916-3.705 5.109-5.373 8.584-6.744 3.793-1.501 7.126 1.197 11.345 1.173zm219.099 403.235c-.23 3.385-.244 6.36-.669 9.276-.91 6.257-3.3 11.973-7.143 16.999-3.38 4.421-7.696 7.82-12.424 10.706-5.289 3.228-10.384 6.864-16.329 8.815-4.871 1.599-9.729 3.061-14.217 5.699-4.227 2.483-5.238 1.947-7.313-2.552-.149-.323-.185-.702-.351-1.013-2.482-4.644-4.906-9.318-7.486-13.906-2.648-4.709-5.28-9.455-6.238-14.809-.86-4.812-1.582-9.709-1.695-14.583-.174-7.587.682-15.097 4.669-21.843 1.202-2.034 2.604-3.949 4.079-6.164l-6.332-6.583c-7.807 7.252-12.105 16.06-14.682 25.583-2.3 8.5-1.312 17.205 1.371 25.529 2.49 7.728 5.01 15.442 8.205 22.963 2.277 5.357 4.824 10.426 8.299 15.005 2.795 3.684 5.975 7.077 8.824 10.411 9.5-1.741 17.795-5.325 26.158-8.945 8.746-3.784 16.762-8.615 24.564-13.974 5.168-3.55 8.885-8.395 11.97-13.593 4.903-8.262 6.06-17.681 7.03-27.063-1.422-1.943-.415-3.982-.261-5.992.013-.173-.222-.363-.318-.513-3.205.183-6.39.362-9.711.547zM162.371 542.808c-1.364-.079-2.68-.438-3.857-.179-7.789 1.724-15.584 3.369-22.381 8.015-4.273 2.921-8.551 5.913-11.49 10.119-3.615 5.174-6.777 10.707-9.675 16.323-1.612 3.125-2.325 6.723-3.374 10.128-1.303 4.224-2.66 8.437-3.741 12.719-.515 2.037-.702 4.237-.581 6.338.268 4.593-.09 9.048-1.541 13.44-.546 1.651-.647 3.45-.979 5.337 4.435 1.799 8.543 3.693 12.805 5.141 6.906 2.346 13.904 4.419 20.879 6.558 1.941.595 3.914 1.306 5.912 1.466 7.354.591 14.641 1.652 22.113 1.273 8.585-.436 16.09-3.444 22.999-8.003 4.132-2.727 7.683-6.364 11.348-9.752 1.354-1.253 2.285-2.962 3.569-4.677l-8.635-6.979c-2.578 2.718-4.879 5.285-7.332 7.698-4.791 4.712-11.005 6.703-17.306 7.842-7.546 1.363-15.118.58-22.726-.871-8.295-1.582-16.076-4.465-23.894-7.408-1.81-.681-2.677-1.781-2.466-3.8.654-6.285 1.156-12.587 1.857-18.867.302-2.708.461-5.591 1.534-8.02 2.099-4.751 3.675-9.711 6.83-14.062 5.103-7.039 10.509-13.502 18.526-17.416 2.933-1.432 5.814-2.671 9.088-2.965.88-.079 1.721-.594 2.516-.886.002-2.888.002-5.498.002-8.512zm531.072 9.97c.795.176 1.34.321 1.896.411.691.113 1.434.061 2.082.286 7.873 2.72 14.885 6.706 20.545 13.035 4.305 4.812 6.85 10.489 9.506 16.228 2.785 6.016 4.332 12.372 5.996 18.707.906 3.453 1.49 6.994 2.104 10.516.123.713-.037 1.741-.49 2.234-1.039 1.133-2.199 2.333-3.561 2.957-4.24 1.942-8.508 3.907-12.934 5.348-5.768 1.878-11.713 3.208-17.555 4.87-10.756 3.059-20.771 1.225-30.367-4.208-4.951-2.804-9.164-6.378-12.559-11.021l-6.738 4.553c.516 4.553 1.908 8.378 5.326 10.98 3.318 2.526 6.693 5.19 10.457 6.87 5.322 2.377 10.9 4.573 16.596 5.627 7.129 1.317 14.518 1.899 21.75.336 7.932-1.716 15.795-3.758 23.674-5.719 1.381-.344 2.695-.968 4.025-1.5 3.213-1.285 6.412-2.608 9.631-3.885 2.729-1.083 5.477-2.122 8.18-3.168 0-1.169.096-1.896-.014-2.591a2878.986 2878.986 0 0 0-2.934-18.029c-1.072-6.491-2.18-12.989-4.789-19.077-2.773-6.473-5.617-12.919-8.637-19.279-3.232-6.814-8.725-11.604-14.959-15.557-2.895-1.835-5.994-3.354-9.053-4.911-1.342-.684-2.91-.94-4.211-1.681-4.248-2.422-8.406-2.963-12.582.088-.328 2.492 1.625 4.993-.385 7.58zm-107.906-357.6c.314-1.219.568-2.357.902-3.472.443-1.479.754-3.042 1.459-4.392 4.594-8.775 11.816-14.772 20.941-18.135 5.656-2.084 11.676-3.346 17.635-4.387 4.434-.774 9.027-.661 13.555-.829 3.102-.115 6.246.233 9.299-.169 1.279-.168 2.463-.964 3.561.108 1 .977 2.357 2.048 2.598 3.268 1.223 6.187 1.971 12.467 3.193 18.653 1.656 8.38.25 16.714-.195 25.036-.484 9.044-9.943 23.732-19.543 26.934-.277.092-.439.526-.893 1.103 1.152 2.567 2.357 5.248 3.574 7.956 2.381-1.102 4.555-1.854 6.463-3.034 8.381-5.18 14.33-12.731 18.771-21.252 3.713-7.123 5.523-14.987 5.744-23.163.303-11.199-1.061-22.194-3.516-33.078-1.178-5.226-2.531-10.411-3.805-15.613-.975-.084-1.684-.197-2.395-.199-11.844-.037-23.689-.198-35.531-.039-8.42.114-16.646 1.336-24.309 5.317-6.617 3.439-12.693 7.546-17.756 13.035-3.797 4.116-5.414 9.481-7.865 14.362-1.447 2.884-.654 5.87.135 8.745.205.752 1.09 1.618 1.848 1.862 1.905.617 3.917.909 6.13 1.383zM60.397 372.767c.866 2.006 1.577 3.912 2.488 5.717 3.671 7.265 7.462 14.483 12.747 20.733 3.475 4.109 7.275 7.941 10.898 11.928 1.449 1.594 2.596 3.538 4.254 4.848 4.131 3.263 8.354 6.442 12.783 9.273 2.364 1.511 5.155 2.538 7.893 3.237 4.501 1.15 9.082 2.154 13.691 2.672 5.668.637 11.274-.047 16.722-2.476-1.013-3.037-1.948-5.842-2.936-8.8-.911.102-1.854-.047-2.505.322-2.707 1.539-5.585 1.056-8.43.899-1.422-.08-2.825-.471-4.248-.605-7.656-.723-14.333-3.703-20.004-8.843-5.412-4.903-10.511-10.124-14.327-16.417a609.223 609.223 0 0 1-9.763-16.682c-1.335-2.368-.929-4.39 1.023-6.138 2.662-2.383 5.325-4.782 8.166-6.94 5.027-3.82 10.299-7.324 15.269-11.217 6.419-5.027 13.643-7.937 21.712-8.188 3.994-.124 8.029.856 12.035 1.413 1.396.193 2.836.435 4.127.967 3.053 1.257 6.027 2.702 9.006 4.059l5.206-7.179c-.5-.463-.905-.894-1.366-1.253-5.272-4.123-11.482-6.377-17.668-8.58-6.832-2.434-14.03-1.938-20.951-.961-8.195 1.157-15.915 4.402-22.808 9.049-6.118 4.124-11.942 8.699-17.755 13.257-5.743 4.506-11.106 9.437-15.259 15.905zM427.263 62.244c-5.35 4.351-10.547 8.549-15.712 12.786-6.298 5.165-12.527 10.402-17.276 17.133-2.475 3.508-5.209 6.861-7.381 10.546-1.869 3.174-3.219 6.676-4.604 10.112-2.385 5.924-4.238 11.927-2.394 18.456.579 2.051.81 4.238.925 6.376.283 5.322 2.528 10.045 4.045 15.282l8.019-3.467c-4.483-13.866-3.077-16.493-1.437-24.244 2.725-12.88 10.604-22.795 19.786-31.726 3.577-3.479 7.583-6.516 11.378-9.773 2.658-2.283 6.107-2.614 8.393-.807 5.42 4.287 10.889 8.525 15.299 13.915 3.021 3.693 6.141 7.327 8.9 11.211 3.275 4.608 5.225 9.925 6.836 15.294 2.535 8.453 1.873 16.838-1.029 25.254 1.959 1.058 4.16 2.224 6.342 3.431 2.344 1.298 3.164 1.013 3.812-1.577 1.51-6.03 2.975-12.072 4.422-18.118.725-3.033.939-6.05.414-9.202-1.111-6.657-2.723-13.114-6.818-18.612-3.854-5.175-7.764-10.331-11.975-15.214-4.127-4.786-8.568-9.314-13.059-13.768-2.283-2.265-4.947-4.155-7.492-6.145-2.997-2.342-6.052-4.608-9.394-7.143zM713.26 431.138c1.303.539 1.939.918 2.625 1.062 1.869.394 3.781.594 5.637 1.037 12.352 2.948 23.188-.93 33.186-7.716 3.312-2.249 5.721-5.79 8.898-8.288 4.875-3.835 8.561-8.746 12.258-13.522 4.965-6.417 9.199-13.416 13.533-20.299 1.646-2.612 2.711-5.593 4.008-8.419.689-1.5.35-2.634-1.002-3.747-4.42-3.645-8.963-7.188-13.023-11.21-5.574-5.524-11.945-9.976-18.305-14.429-6.998-4.899-14.703-8.475-23.293-9.459-4.223-.483-8.533-.26-12.805-.277-4.322-.018-8.617.182-12.479 2.52-.279.169-.699.096-1.051.156-3.549.607-6.49 2.467-9.008 4.871-2.672 2.553-2.646 4.486-.402 7.452.689.912 1.432 1.784 2.279 2.833 2.09-2.662 4.596-4.148 7.561-4.968 9.234-2.554 18.186-1.602 26.979 1.964 11.988 4.861 22.809 11.541 32.24 20.43.869.817 1.746 1.75 2.801 2.22 2.012.897 2.059 2.108 1.539 4.044-2.508 9.368-8.094 17.028-13.893 24.434-3.58 4.568-8.246 8.277-12.324 12.471-1.887 1.939-4.166 3.16-6.584 4.152-1.418.581-3.002.742-4.459 1.242-5.828 2.002-11.887 2.514-17.971 2.783-1.428.062-2.877-.384-4.768-.662-.685 2.934-1.408 6.024-2.177 9.325zM216.895 237.132c-2.302-1.535-4.622-2.955-6.804-4.563-5.434-4.005-9.477-9.25-12.005-15.413-3.245-7.91-4.281-16.362-4.087-24.857.197-8.648 2.109-17.051 4.961-25.218 1.043-2.987 2.58-3.818 5.721-3.658 3.102.158 6.268.505 9.31.082 4.642-.645 8.987.856 13.481 1.174 2.589.183 5.244.439 7.706 1.197 6.826 2.103 13.516 4.554 19.132 9.247 3.748 3.131 7.5 6.251 9.995 10.523 1.659 2.842 3.063 5.834 4.581 8.757l9.61-2.134-1.694-5.457c-4.488-14.425-13.535-24.812-27.401-30.926-1.857-.819-3.653-1.935-5.599-2.366-5.248-1.162-10.545-2.127-15.854-2.98-4.59-.737-9.244-1.084-13.83-1.844-4.095-.679-8.159-.715-12.109.41-4.549 1.296-9.127 1.708-14.084 1.193-1.072 3.81-2.211 7.444-3.113 11.137-2.109 8.645-2.339 17.515-2.821 26.337-.254 4.647-.571 9.387.037 13.966 1.404 10.568 4.866 20.419 12.089 28.603.713.808 1.386 1.652 2.078 2.479 3.301 3.941 6.77 7.641 11.844 9.38 1.852.634 3.602 1.569 5.408 2.371l3.448-7.44zm278.503 484.276-10.986-1.597c.256 1.967.336 3.753.742 5.461 1.322 5.585 2.752 11.145 4.17 16.706.266 1.038.689 2.035.994 3.064 1.244 4.212 4.1 7.54 6.109 11.32 2.859 5.382 6.961 9.347 11.889 12.692 6.846 4.646 13.982 8.743 21.572 12.058 6.467 2.824 12.818 5.922 19.34 8.614 5.359 2.213 6.301 1.896 9.156-3.238 5.102-9.169 10.822-17.97 14.887-27.752 3.461-8.329 7.01-16.528 7.01-25.688 0-4.757.08-9.702-1.123-14.23-2.18-8.21-6.373-15.636-11.129-22.685-1.172-1.735-2.475-3.382-3.828-5.221l-5.67 6.365c7.174 8.83 9.965 18.73 9.434 29.659-.428 8.827-2.912 17.213-6.395 25.202-2.943 6.751-6.445 13.288-10.523 19.48-1.943 2.949-1.867 3.19-5.035 1.948-3.193-1.252-6.207-2.954-9.377-4.271-6.609-2.747-13.039-5.779-18.957-9.882-5.885-4.08-12.287-7.543-15.973-14.068-1.518-2.685-3.066-5.4-4.139-8.275-1.851-4.961-2.658-10.161-2.168-15.662zm-189.43-399.017c-.789-2.822-1.711-5.498-2.277-8.248-2.385-11.571 6.861-21.745 18.595-20.441 4.228.469 8.412 1.279 12.37 3.906.458-5.871 3.484-9.367 8.998-10.88-1.699-2.517-3.98-3.348-6.113-4.263-6.832-2.935-14.06-4.498-21.295-6.09-4.718-1.038-9.465-1.195-14.23-1.571-4.059-.32-7.992-.043-12.232.604-.299 3.809-.625 7.488-.867 11.171-.527 8.004-1.131 16.007-1.479 24.02-.303 6.981.234 13.884 3.63 20.227.298.555.836.98 1.54 1.783.494-6.15 4.459-8.178 9.283-9.289 1.482-.341 2.966-.676 4.077-.929zm201.169-37.425c7.238.613 9.525 5.506 11.617 10.767 1.398-.878 2.512-1.893 3.82-2.349 7.734-2.692 15.162-3.802 22.32 2.144 5.309 4.408 8.385 11.191 6.652 17.938-.646 2.512-1.633 4.937-2.512 7.541 5.873 1.645 10.861 4.482 13.076 11.555 1.406-3.809 2.555-6.796 3.6-9.82.385-1.113.697-2.306.742-3.473.242-6.318.619-12.629.135-18.963-.58-7.615-.99-15.246-2.217-22.797-.148-.92-.434-1.819-.652-2.716-1.969-.117-3.738-.305-5.51-.314-12.355-.062-24.578 1.481-36.686 3.692-4.934.899-9.62 3.063-14.385 6.795zM598.1 443.827c5.633-1.865 9.557-4.926 12.68-8.977 3.951-5.122 7.754-10.357 11.611-15.55 3.562-4.793 7.141-9.574 10.654-14.402 1.029-1.412 1.867-2.962 2.914-4.646-5.416-4.112-10.648-7.879-15.652-11.929-8.293-6.713-17.746-10.779-28.113-12.886-.955-.194-1.98-.026-2.746-.026.314 2.654.994 5.051.758 7.354-.232 2.242-1.402 4.388-2.186 6.65 1.906.184 3.801-.131 5.158.58 7.418 3.891 14.051 8.522 13.641 19.142-.176 4.522-1.492 8.441-4.453 11.81-1.955 2.226-3.988 4.384-6.082 6.679 3.423 4.574 5.155 9.785 1.816 16.201zM265.701 489.84c-.304-.112-.606-.225-.91-.336-.708.864-1.447 1.705-2.121 2.598-5.344 7.09-8.215 15.352-10.764 23.678-2.257 7.376-3.953 14.927-5.778 22.43-.521 2.146-.625 4.392-.91 6.517 5.188 1.682 9.909 3.377 14.727 4.73 6.312 1.773 12.611 3.643 19.251 3.938 2.722.121 5.42.963 8.137.999 3.764.05 7.643 1.13 12.041-1.042-5.699-3.388-8.055-8.27-7.24-14.914-4.337 1.598-7.969.602-11.729-.354-5.48-1.392-10.032-3.563-11.853-9.436-1.481-4.778-2.14-9.647-.392-14.394 1.13-3.066 3.049-5.843 4.751-9.004-6.078-3.154-8.747-8.271-7.21-15.41zm314.811 15.357c9.564 10.211 9.914 19.625 4.766 27.032-2.416 3.474-6.115 5.397-9.992 6.61-4.17 1.304-8.525 2.074-13.205-.24 2.139 6.663-2.201 10.217-6.486 14.652 4.195.131 7.518.353 10.834.313 8.531-.099 16.857-1.57 24.961-4.199 5.422-1.76 10.77-3.744 16.482-4.43.896-.107 1.748-.59 2.873-.988-1.049-3.389-2.174-6.522-2.98-9.737-1.359-5.431-2.453-10.929-3.793-16.364-.484-1.962-1.484-3.793-2.023-5.745-1.76-6.372-4.613-12.279-7.695-18.072-.727-1.367-2.164-2.355-3.895-4.167 1.11 8.451-2.216 13.228-9.847 15.335zM407.626 269.655c2.799-5.834 5.945-11.22 11.775-14.834 3.683-2.282 7.52-2.314 10.943-1.337 6.225 1.775 10.473 6.367 13.014 12.394.494 1.17.998 2.335 1.488 3.479 2.832-1.102 5.301-2.601 7.916-2.931 2.598-.327 5.342.522 8.514.917-1.301-3.162-2.168-6.295-3.797-8.963-1.975-3.236-4.562-6.105-6.941-9.088-6.465-8.108-14.387-14.682-22.402-21.15-.609-.492-1.423-.731-2.399-1.217-3.35 3.403-6.619 6.708-9.869 10.029-4.525 4.624-9.177 9.134-13.503 13.937-2.786 3.093-5.153 6.576-7.575 9.979-1.455 2.044-2.281 4.384-2.336 7.2 2.744-.534 5.324-1.606 7.764-1.35 2.461.258 4.783 1.835 7.408 2.935zM216.886 520.09c-10.936-1.558-20.67-5.048-30.072-9.64-.757 2.15-1.576 4.017-2.064 5.966-1.041 4.146-2.39 8.299-2.725 12.519-.414 5.226-.042 10.527.195 15.787.293 6.479 1.495 12.816 4.097 18.784 1.171 2.685 2.173 5.563 5.085 8.143.609-.916 1.162-1.691 1.66-2.502 1.932-3.146 4.068-6.192 5.716-9.482 2.289-4.57 4.149-9.354 6.302-13.995 1.979-4.27 4.174-8.398 9.759-8.984-.749-5.766-1.431-11.269 2.047-16.596zM159.7 387.002c1.758-.41 2.85-.623 3.917-.924 1.824-.514 3.615-1.156 5.454-1.612 5.647-1.403 10.697-4.114 15.387-7.406 5.209-3.655 10.431-6.226 16.479-2.919 1.715-2.316 2.992-4.72 4.896-6.422 1.912-1.707 4.449-2.715 6.867-4.119-3.408-2.543-5.966-5.242-7.641-8.547-2.365-4.669-4.387-9.512-6.56-14.277-.67-1.469-1.354-2.932-2.231-4.825-3.101 1.747-5.935 3.051-8.432 4.828a71.87 71.87 0 0 0-8.482 7.083c-1.775 1.732-3.18 3.891-4.532 5.998-2.504 3.902-5.14 7.764-7.185 11.906-2.527 5.12-4.568 10.485-6.691 15.796-.593 1.483-.738 3.144-1.246 5.44zm247.824 49.863c-.112 11.027 8.62 19.995 19.685 20.217 11.084.222 20.309-8.822 20.344-19.944.033-10.946-8.881-19.925-19.895-20.04-10.958-.116-20.022 8.783-20.134 19.767zm-6.054 173.299c-5.628-.71-10.375-2.719-13.154-7.926-.479.406-.773.612-1.014.871-.65.7-1.293 1.409-1.909 2.139-4.817 5.697-10.84 7.437-18.04 5.694-7.76-1.878-13.525-8.629-13.969-16.551-.103-1.825-.221-3.65-.352-5.817-5.496 3.408-9.714-.081-14.457-2.319-.252 5.438 1.111 10.064 2.4 14.569 1.403 4.901 3.664 9.559 5.581 14.31 1.413 3.503 2.913 6.971 4.3 10.484 1.226 3.104 2.35 6.246 3.516 9.373.871 2.336 1.75 2.745 4.037 1.659a580.91 580.91 0 0 0 12.215-5.958c5.002-2.523 9.85-5.389 14.979-7.608 3.908-1.691 7.476-3.776 10.454-6.709 1.889-1.86 4.513-3.187 5.413-6.211zm-69.121 84.505c.149-4.462-.159-8.248-1.027-11.937-1.527-6.496-3.574-12.838-5.828-19.132-1.109-3.098-1.24-6.51.575-9.644.462-.797.675-1.737 1.014-2.641-4.078-3.605-7.62-7.372-7.547-12.854-3.571 1.703-6.843 3.411-10.232 4.843-4.95 2.091-9.946 4.063-15.456 4.242-1.225.04-2.428.702-3.777 1.12 1.442 5.734 3.354 10.879 6.527 15.427a172.366 172.366 0 0 0 8.9 11.694c2.744 3.294 5.57 6.604 8.815 9.373 3.883 3.314 8.425 5.779 13.085 7.917 1.368.629 2.883.941 4.951 1.592zm185.952 3.274c-.408-.79-.627-1.344-.955-1.824-2.031-2.974-4.299-5.67-7.369-7.719-3.867-2.579-7.537-5.456-11.293-8.204-4.709-3.446-10.014-6.341-11.652-12.627-.051-.19-.338-.318-.287-.272-2.941 0-5.855.63-8.301-.172-2.586-.849-4.727-3.058-7.754-5.151-1.779 10.396-7.855 18.18-13.699 26.235 19.155 12.613 39.376 15.294 61.31 9.734zm62.629-30.992c20.424 2.564 38.105 11.321 55.436 21.047-.016-.188.023-.549-.084-.858-2.559-7.345-4.617-14.819-5.91-22.495-1.367-8.116-2.928-16.196-2.924-24.495 0-3.885-.572-7.77-.861-11.381l-14.85 1.376c.711 5.881 1.342 11.443 2.064 16.994.51 3.907 1.213 7.79 1.684 11.701.146 1.21.365 2.675-.936 3.358l-29.131-9.37c-1.523 4.794-2.965 9.326-4.488 14.123zm-56.701 28.775c.895-.343 1.322-.481 1.732-.666 5.838-2.635 10.754-6.671 15.602-10.706 5.992-4.986 10.955-10.821 15.119-17.566 3.291-5.333 5.746-10.909 8.109-16.608.713-1.719.328-2.417-1.459-2.811a259.073 259.073 0 0 0-5.945-1.236c-6.686-1.308-13.475-2.328-18.83-7.149-.115-.104-.424.007-.83.026-1.158 5.183-2.816 10.155-8.531 12.097 2.348 6.938 2.379 8.252.102 15.489-.787 2.504-1.801 4.937-2.631 7.428-2.298 6.891-3.259 13.939-2.438 21.702zm-93.298-532.022-.426.828c4.881 9.393 9.19 19.107 16.844 26.836 2.568 2.594 4.172 5.853 2.566 9.775-.203.493-.027 1.14-.027 2.11 4.941 1.102 7.811 5.051 11.092 8.504 4.258-6.873 10.078-11.727 16.559-15.911 2.58-1.666 5.074-3.462 7.852-5.367-1.25-1.638-2.211-2.988-3.264-4.261-4.186-5.057-9.73-8.432-15.242-11.708-8.066-4.796-16.918-7.721-26.131-9.462-3.244-.611-6.547-.905-9.823-1.344zM267.916 373.921c-5.076-.544-9.143 1.657-12.854 3.821-9.668 5.639-19.023 11.812-28.473 17.822-1.816 1.155-3.512 2.505-5.219 3.82-1.027.791-1.66 1.717-.723 3.059 2.67 3.817 5.164 7.764 7.971 11.476 4.326 5.724 8.855 11.294 13.297 16.931 3.653 4.635 8.054 8.396 13.036 11.498-.097-2.643-.684-5.208-.135-7.502.546-2.284 2.232-4.295 3.515-6.598-.889-.546-2.043-1.149-3.076-1.914-1.145-.847-2.488-1.647-3.211-2.803-3.025-4.84-5.576-9.652-5.82-15.816-.24-6.105 6.238-15.245 12.229-16.21 2.198-.354 4.344-1.034 6.495-1.562-1.322-6.633-1.294-10.894 2.968-16.022zm-45.608 310.897c2.453-1.283 4.56-2.579 6.813-3.524 5.168-2.168 10.392-4.21 15.623-6.222 6.358-2.445 12.929-4.055 19.7-4.871 2.844-.343 5.674-.801 8.5-1.272.659-.11 1.273-.492 2.186-.862l-4.239-15.382c-4.317 1.362-8.293 2.49-12.175 3.877-3.746 1.339-7.375 3.004-11.099 4.408-1.848.697-3.794 1.133-5.587 1.655-1.916-3.558-1.878-6.852-1.283-10.214.998-5.654 2.019-11.306 2.93-16.975.215-1.343.031-2.75.031-3.908l-14.914-3.525c.237 19.319-2.289 37.932-6.486 56.815zm173.885 26.86c.953 1.172 1.551 1.898 2.139 2.634 3.427 4.286 6.969 8.486 10.242 12.886 3.348 4.497 6.492 9.149 9.608 13.812 2.048 3.062 4.003 6.2 5.79 9.421 1.641 2.956 3 6.067 4.85 9.861 8.067-17.425 16.817-33.658 28.03-48.134l-11.545-7.921c-.678.78-1.584 1.567-2.17 2.545-2.631 4.385-5.248 8.782-7.721 13.257-1.947 3.523-3.174 7.481-6.641 10.524-2.589-2.22-5.172-4.427-6.901-7.393-3.009-5.159-5.845-10.42-8.792-15.617-.674-1.188-1.503-2.29-1.965-2.984-2.797 1.311-5.121 2.384-7.432 3.484-2.344 1.116-4.676 2.26-7.492 3.625zm-83.6-499.906c-21.828-4.708-40.436 2.11-58.604 14.271 2.076 1.303 3.443 2.501 5.037 3.103 8.04 3.035 16 6.356 24.864 6.324 3.864-.014 6.771 2.083 8.706 5.45.405.705.834 1.396 1.481 2.474 5.269-3.513 10.562-1.213 16.101.118-.15-1.263-.194-1.956-.321-2.633-.979-5.215-1.52-10.439-.218-15.68.75-3.02 1.637-6.006 2.348-9.036.345-1.467.423-2.996.606-4.391zM694.381 392.15c-.682.4-1.25.615-1.666.996-7.5 6.878-14.605 14.129-20.842 22.197-1.986 2.57-4.426 4.325-7.885 4.106-3.414-.216-3.443-.216-3.906 3.296-.453 3.443-1.68 6.444-4.488 8.676-.783.623-1.406 1.447-2.029 2.101 2.125.896 4.049 1.501 5.766 2.473 5.307 3.002 10.391 6.303 14.281 11.162 1.148 1.437 2.66 2.582 4.182 4.025 2.846-3.684 5.443-6.942 7.92-10.291 1.48-2.002 3.211-3.981 4.061-6.258 2.078-5.584 3.805-11.308 5.496-17.026 1.451-4.895 1.043-9.972.992-14.99-.036-3.433.284-6.957-1.882-10.467zM163.806 515.175l4.854-13.82c-.752-.325-1.484-.687-2.246-.964-7.955-2.897-16.068-5.366-23.767-8.963-1.427-.667-2.537-1.282-2.563-3.011-.025-1.573.478-2.745 2.035-3.447.822-.371 1.533-1.054 2.203-1.692 4.4-4.188 8.764-8.415 13.168-12.601.938-.892 1.99-1.665 2.707-2.258l-7.512-13.738c-11.885 17.48-27.658 29.555-45.297 39.59 2.514 2.264 5.058 3.023 7.813 3.493 4.45.759 8.915 1.554 13.276 2.702 12.466 3.284 24.634 7.353 35.329 14.709zm335.268 122.893c2.965-6.842 5.68-13.693 8.875-20.312 2.975-6.16 5.58-12.423 7.482-18.987.73-2.521 1.623-4.995 2.289-7.53.396-1.512.494-3.103.727-4.658-4.646 3.077-9.229 4.003-14.182 2.479-.551 8.607-1.91 16.759-10.508 20.987-10.789 5.305-19.449 1.201-26.684-6.796-1.979 1.571-3.584 3.333-5.574 4.29-1.998.96-4.381 1.116-6.836 1.681 1.531 1.812 2.795 3.747 4.471 5.212 5.865 5.135 12.283 9.479 19.176 13.171 6.6 3.535 13.969 5.587 19.934 10.346.235.186.69.101.83.117zM654.1 374.556c4.053-1.327 7.408-.706 10.834 1.466 7.094 4.496 14.842 7.711 22.818 10.293 2.025.656 4.143 1.953 6.625.846-.076-.689-.059-1.288-.223-1.83-.453-1.484-.881-2.99-1.5-4.408-3.684-8.434-7.311-16.892-14.123-23.471-1.875-1.812-3.52-3.898-5.068-6.009-3.375-4.603-8.006-7.788-12.43-11.193-1.137-.875-2.717-1.177-4.092-1.742-4.232 8.998-7.557 18.009-14.758 25.299 6.215 1.493 8.704 6.295 11.917 10.749zM384.312 660.678c-4.688 4.69-9.431 7.077-15.242 5.915-1.41 4.554-2.512 6.329-4.841 8.059-6.425 4.769-12.864 9.518-19.255 14.331a29.902 29.902 0 0 0-7.249 7.803c.762.261 1.204.433 1.658.565 7.849 2.303 15.948 1.502 23.921 1.554 5.928.038 11.777-1.679 17.404-3.736 3.893-1.425 7.801-2.827 11.604-4.467 2.146-.925 4.092-2.312 6.312-3.597-2.44-3.421-4.603-6.543-6.859-9.596-3.558-4.815-6.933-9.7-7.453-16.831zm281.547-88.329c10.486-20.312 9.594-40.092 1.334-60.467-4.814 2.009-9.33 3.577-13.543 5.74-4.059 2.085-8.273 3.382-13.201 3.877 2.656 3.496 2.383 7.104 2.324 10.666-.014.833-.145 1.668-.266 2.496-.172 1.177.076 2.173 1.223 2.714 5.521 2.601 7.854 7.69 9.283 13.001 2.245 8.322 6.702 15.157 12.846 21.973zm13.573-245.076c1.273-3.871 2.23-7.07 3.379-10.199 1.729-4.705 3.381-9.459 5.461-14.01 1.836-4.018 4.326-7.732 6.326-11.682 2.229-4.401 4.59-8.671 8.016-12.294 1.012-1.07 1.695-2.448 2.773-4.048-1.078 0-1.549-.035-2.014.006-5.35.463-10.688 1.13-16.047 1.364-7.637.333-15.287.407-22.932.475-2.734.024-5.48-.196-8.203-.48-2.461-.256-4.898-.751-7.428-1.155v12.534c4.758.358 9.373.672 13.982 1.063 4.512.382 9.035.708 13.518 1.321 2.52.345 3.613 2.685 2.451 4.765-2.033 3.639-4.254 7.172-6.244 10.832-2.256 4.145-4.346 8.379-6.623 12.801 4.555 2.92 8.833 5.663 13.585 8.707zM236.117 575.182c-2.8 2.241-6.426 2.632-10.383 2.08-5.558-.775-11.146-1.502-16.744-1.786-4.859-.246-9.794-.229-14.982 1.585 2.52 3.375 4.547 6.832 7.286 9.579 3.523 3.532 7.683 6.422 11.452 9.722 4.428 3.878 9.777 5.969 15.201 7.766 1.896.629 3.744 1.218 5.572 2.068 3.338 1.552 6.772 3.056 10.806 2.146.516-4.694.974-9.43 1.571-14.147.616-4.86 2.656-9.306 4.568-13.707l-14.347-5.306zm456.695-109.996c3.025 3.509 5.645 6.59 8.314 9.628 3.297 3.752 7.014 7.049 11.242 9.711 1.463.922 2.365 2.114 2.33 3.732-.016.744-.684 1.816-1.352 2.151-7.232 3.635-14.518 7.164-21.801 10.696-1.904.923-3.85 1.758-5.861 2.672 1.738 4.285 3.344 8.24 5.082 12.518 16.699-11.861 35.139-18.986 55.74-22.205-16.4-11.702-33.018-21.979-45.27-38.004a12973.7 12973.7 0 0 1-8.424 9.101zm-94.621-239.314c-1.154-1.052-1.953-1.927-2.891-2.609-3.975-2.89-8.424-4.848-12.932-6.759-7.453-3.157-15.121-4.978-23.238-4.866-2.51.034-5.082.193-7.518-.276-3.875-.747-7.184.969-10.969 1.527 1.195 5.023 2.777 9.685 3.309 14.463.527 4.754 1.09 9.639-.656 14.886 3.391-.819 6.113-1.494 8.844-2.133 3.121-.73 5.354 1.486 8.018 2.719 2.729-4.671 7.021-7.191 11.824-8.086 5.266-.981 10.555-1.805 15.67-3.398 3.604-1.123 7.328-2.14 10.539-5.468zM205.8 272.284c-1.795.162-3.407.12-4.928.475-7.801 1.818-15.534 3.921-23.676 3.649-2.975-.1-5.965.41-8.951.457-3.439.054-6.887.001-10.32-.189-3.137-.174-6.259-.595-9.926-.96.686 1.071 1.025 1.684 1.441 2.24 1.718 2.3 3.527 4.535 5.176 6.882 3.299 4.695 6.299 9.616 9.826 14.128 3.381 4.323 5.755 9.076 7.609 14.158 1.494 4.094 2.941 8.203 4.466 12.465 2.216-1.426 4.04-2.804 6.044-3.83 1.994-1.021 4.17-1.69 6.741-2.7-3.07-5.478-5.964-11.262-9.47-16.646-1.973-3.032-3.839-6.04-5.143-9.396-.702-1.809.211-3.399 2.172-3.55 5.117-.395 10.244-.645 15.365-.991 3.768-.254 7.533-.568 11.367-.861.74-5.129 1.434-9.95 2.207-15.331zm456.886 305.438c-5.242-1.406-9.998-1.256-14.68-.4-4.791.875-9.463 2.404-14.254 3.259-5.627 1.003-11.271 1.369-15.506-3.74-.066-.081-.215-.095-.215-.095l-12.41 5.106c2.17 4.28 3.594 8.87 4.135 13.703.555 4.946.91 9.915 1.395 15.366 21.626-4.199 39.257-13.905 51.535-33.199zm-36.094-292.057c1.979-6.38.596-13.192-1.205-18.455-2-5.836-4.465-11.582-7.387-17.013-2.928-5.444-6.605-10.493-10.1-15.617-.875-1.284-2.301-2.191-4.088-3.839-.898 4.902-1.871 8.954-2.342 13.063-.666 5.824-.967 11.69-1.418 17.539-.26 3.361-1.496 6.291-3.971 8.604-.662.62-1.58.968-2.254 1.365 4.258 5.826 4.371 11.489 2.648 17.62 2.082-.947 3.553-1.715 5.092-2.299 7.42-2.812 15.061-1.713 22.662-1.193.806.054 1.605.152 2.363.225zM536.07 133.179c-6.715 7.53-13.408 14.094-20.355 20.452-7.07 6.474-15.396 11.063-23.184 16.511l8.658 9.685c4.066-3.02 8.266-5.965 12.262-9.163 3.053-2.444 5.836-5.225 8.768-7.823 1.477-1.309 4.787-1.37 5.49-.024.646 1.242 1.141 2.629 1.375 4.008.783 4.575 1.334 9.19 2.137 13.761.59 3.367 1.436 6.689 2.203 10.191 5.021-1.088 9.814 1.12 14.764-.74-6.963-18.201-9.592-37.104-12.118-56.858zM259.197 271.373c-1.28-1.793-2.822-3.192-3.381-4.911-.876-2.69-1.243-5.581-1.545-8.416-.646-6.052-1.041-12.131-1.682-18.184-.336-3.178-.971-6.323-1.442-9.298-2.083-.69-3.13.229-4.131 1.345-3.661 4.082-7.276 8.107-9.364 13.384-2.227 5.624-5.33 10.9-7.559 16.523-1.613 4.074-2.644 8.421-3.518 12.73-.625 3.086-.562 6.313-.836 9.855 10.25-.366 19.953-3.333 29.95-.29-.152-4.929.676-9.204 3.508-12.738zm57.487-138.297c0 1.704.112 3.025-.019 4.322-.771 7.621-1.507 15.247-2.445 22.848-.539 4.367-1.143 8.766-2.246 13.013-1.462 5.623-3.441 11.11-5.191 16.637l11.955 3.082c1.068-3.454 2.234-6.595 2.999-9.831 1.538-6.505 2.841-13.065 4.282-19.594.181-.819.611-1.583 1.146-2.926l24.648 17.84 10.567-10.305c-17.759-8.501-32.107-20.869-45.696-35.086zM177.325 450.154c5.519-8.271 12.214-15.101 20.042-20.112l-4.492-11.253c-1.791-.465-3.945-.484-5.387-1.508-3.11-2.208-6.371-4.538-8.641-7.524-4.773-6.282-10.842-11.023-16.938-15.798-.65-.509-1.604-.633-2.504-.968-3.073 20.091 6.19 46.93 17.92 57.163zm215.839-239.725c2.738-4.97 6.666-7.815 11.891-8.831 0-1.721-.064-3.272.023-4.815.055-.934.109-1.998.57-2.753 1.737-2.841 3.393-5.79 5.535-8.312 4.45-5.243 8.241-10.852 10.902-17.196.623-1.482 1.139-3.025 1.1-4.711-17.729 1.278-46.252 16.436-52.697 28.02 8.312 4.969 17.308 9.168 22.676 18.598zm210.061 141.412c.996-.278 1.334-.363 1.666-.468 6.436-2.033 11.566-5.676 14.52-11.926.859-1.82 1.383-3.809 2.326-5.576 1.977-3.693 4.127-7.293 6.211-10.928.551-.961 1.125-1.911 1.752-2.975-2.846-.525-5.285-1.214-7.76-1.382-4.895-.331-9.814-.294-14.715-.556-6.703-.359-12.541 1.431-17.326 6.324-.84.859-2.07 1.338-2.758 1.766-1.861-2.045-3.064-4.354-4.936-5.213-3.445-1.584-7.305-1.924-10.977-1.093-.602 2.632-1.123 4.905-1.678 7.32 8.689-2.097 12.605 2.083 12.357 9.002.916-.494 1.785-.858 2.539-1.386 5.977-4.18 12.676-6.58 19.732-8.146 4.162-.924 7.303 1.344 7.609 5.624.297 4.152-1.389 7.535-4.459 10.137-3.455 2.927-6.965 5.791-11.26 7.546-2.393.978-4.596 2.413-7.279 3.853 3.121 1.871 6.18 3.123 7.238 6.558 1.141 3.698-1.783 5.792-3.799 8.655l8.98 2.706c2.627-1.874 4.051-4.345 4.006-7.388-.037-2.469-.52-4.938-.904-7.393-.249-1.608-.677-3.191-1.085-5.061zm57.199 126.911c-3.51-2.762-6.77-5.184-9.863-7.802-3.201-2.708-6.154-5.713-9.381-8.388-2.77-2.296-5.77-4.431-9.432-4.968-2.801-.411-5.672-.317-8.508-.494-2.424-.15-3.002-1.038-2.186-3.229 2.123-5.689.242-10.105-5.406-12.762-.705-.332-1.348-.799-1.955-1.164-1.209 1.032-2.209 1.887-3.209 2.739-.98.834-1.961 1.666-3.08 2.615 5.395 1.854 7.215 4.057 6.691 8.603-.191 1.658-1.318 3.234-2.133 4.787-.572 1.088-2.146 1.567-2.045 3.64 1.318 0 2.561.075 3.791-.013 7.104-.506 13.775 1.009 20.102 4.197 3.191 1.608 4.113 4.603 4.279 7.766.141 2.703-1.883 4.499-4.033 5.512-4.295 2.024-8.871 2.773-13.635 1.664-4.172-.972-8.369-1.836-12.559-2.727-.32-.068-.676.024-1.018.044.277 2.985.939 5.931.719 8.808-.26 3.366-3.773 4.224-6.027 5.956l3.881 5.501c5.195-1.536 9.131-4.045 9.547-10.125.152-2.236 1.566-2.821 3.537-1.528 4.998 3.278 10.18 2.948 15.494 1.094 6.318-2.204 12.643-4.396 18.939-6.665 2.433-.876 4.795-1.952 7.49-3.061zM523.066 598.638c2.664.914 5.061 1.94 7.561 2.51 1.285.293 2.814-.031 4.123-.432 1.699-.521 3.271-1.447 4.936-2.106 2.254-.892 2.539-.591 3.873 1.465 4.146 6.396 9.643 11.05 17.15 13.176 5.393 1.527 10.701 3.354 16.057 5.022.713.223 1.469.306 1.988.41-.889-6.61-1.83-12.959-2.572-19.332-.592-5.088-2.275-9.768-4.967-14.059-1.055-1.681-2.389-3.406-4.02-4.447-1.723-1.098-2.217-2.316-2.068-4.19.584-.53 1.295-1.013 1.797-1.658 3.215-4.131 4.465-8.699 2.629-13.764-.316-.867-1.289-2.037-2.043-2.104-2.303-.204-4.645.062-7.127.15 2.752 7.602 1.209 10.795-5.967 13.348-.609.218-1.143.655-1.844 1.069 1.146 1.067 2.111 1.916 3.021 2.82 4.711 4.681 9.43 9.364 11.562 15.916.684 2.103 1.699 4.202.686 6.47-2.014 4.505-5.727 6.008-10.309 4.031-7.176-3.096-12.273-8.545-16.512-14.923-.484-.727-1.029-1.412-1.662-2.271-2.77 5.778-7.146 9.867-15.217 5.46l-1.075 7.439zm-23.402-331.945c5.418.801 11.492.767 12.68 8.43l5.523-1.767c-.113-1.62-.039-3.148-.357-4.59-.709-3.206-2.83-5.3-5.52-7.14-4.188-2.864-4.098-3.021-2.115-7.818 2.311-5.591 2.574-11.344 1.631-17.259-.998-6.254-1.826-12.536-2.736-18.805-.143-.987-.322-1.968-.502-3.044-5.164 4.413-9.963 8.712-14.984 12.729-3.256 2.604-6.664 4.958-9.344 8.244-2.586 3.17-4.387 6.531-4.311 10.73.016.901-.213 1.806-.381 3.125-1.762-.348-3.291-.422-4.631-.965-2.449-.992-4.74-.89-6.791.669-2.271 1.727-4.369 3.684-6.518 5.52l4 6.133c4.65-7.424 9.334-5.555 16.123-1.719.596-1.697 1.215-3.363 1.77-5.051 1.691-5.167 4.152-9.926 7.568-14.165 3.629-4.504 8.191-4.029 11.369.846 2.678 4.11 2.5 8.438 1.463 12.788-1.042 4.383-2.576 8.649-3.937 13.109zm-228.029 68.399c1.161-2.468 2.01-5.113 3.533-7.283 1.742-2.484 4.727-2.277 7.7-1.914l-.697-7.17c-3.553-.82-6.395.456-9.383 1.309-3.267.934-3.994 4.535-6.731 6.104-.595-.681-1.058-1.073-1.345-1.565-1.332-2.281-3.096-3.868-5.826-4.34-1.148-.199-2.175-1.041-3.321-1.338-1.837-.474-3.718-.961-5.597-1.034-2.504-.099-5.029.11-7.533.333-6.242.553-12.479 1.189-19.217 1.84 1.013 1.477 2.037 2.855 2.941 4.309 2.77 4.443 5.33 9.025 8.272 13.348 3.89 5.717 8.997 10.111 15.474 12.748 2.388.973 2.519 1.65 1.338 3.895-.979 1.861-2.123 3.951-2.13 5.943-.015 4.21.979 8.293 4.78 11.471 1.641-.777 3.426-1.625 5.238-2.486-1.561-2.6-2.049-5.164-1.715-7.818.519-4.124 3.193-6.713 7.5-8.604-1.58-.957-2.39-1.703-3.336-1.979-6.97-2.028-11.961-6.787-16.785-11.85-2.17-2.276-1.896-4.85-1.038-7.358.887-2.595 2.601-4.383 5.669-4.806 3.363-.463 6.468.229 9.375 1.586 4.41 2.057 8.656 4.467 12.834 6.659zm82.724-69.579c-.73-1.698-1.307-3.126-1.95-4.523-2.714-5.896-3.644-12.125-3.268-18.541.196-3.351 1.854-6.148 5.047-7.253 2.808-.972 5.395.421 7.462 2.441 4.299 4.199 7.146 9.229 8.426 15.125.539 2.486 1.126 4.962 1.847 8.125 2.587-3.302 4.792-6.055 8.308-6.456 3.662-.418 6.334 2.034 8.936 4.486.312-.752.457-1.213.688-1.626.288-.517.646-.995.978-1.487 1.352-1.997 1.145-3.345-.592-4.934-2.932-2.686-6.403-3.519-10.275-3.328-2.088.103-4.189-.06-6.155-.1-.362-2.167-.436-3.871-.945-5.431-1.845-5.646-5.28-10.229-10.237-13.444-4.371-2.836-8.117-6.278-11.584-10.107-1.151-1.271-2.498-2.365-3.693-3.482-.932 4.354-1.605 8.47-2.716 12.463-1.669 6.001-3.294 11.987-3.28 18.272.009 4.28.424 8.39 4.496 11.112.592.395.569 1.706.994 3.147-3.408-.794-5.135 1.146-6.832 2.732-2.933 2.74-5.449 5.87-4.765 10.311.127.823.659 1.888 1.329 2.267 1.941 1.096 4.049 1.899 6.174 2.855 1.177-9.134 3.654-11.885 11.607-12.624zm133.612 118.122c.105-1.027.127-1.863.289-2.672.162-.812.465-1.597.705-2.394 2.564-8.502 7.928-15.086 14.338-20.96 2.58-2.365 5.482-4.174 8.713-5.541 1.121-.476 2.33-1.066 2.551-2.718 1.172-8.763-6.07-14.763-13.797-13.463-2.453.413-4.314 1.741-5.262 4.286-2.26 6.076-5.168 11.814-9.48 16.737-4.623 5.275-10.164 9.214-17.096 11.593 4.955 4.473 4.254 10.17 3.121 15.82 5.443-.977 10.404-2.177 15.918-.688zM239.51 486.273c.284 1.066.478 2.256.915 3.347 1.439 3.591 3.676 6.395 7.676 7.343 3.66.867 4.771.266 6.422-3.543-5.729-1.003-7.877-4.201-6.537-9.802.223-.928.686-1.798.916-2.726.215-.866.27-1.773.414-2.806-.732.034-1.096-.019-1.413.079a72.327 72.327 0 0 0-3.058 1.037c-7.022 2.502-14.092 2.895-21.206.425-4.478-1.554-5.89-6.258-3.009-10.107 2.793-3.731 6.725-5.712 11.169-6.572 3.39-.656 6.866-.861 10.292-1.344.792-.111 1.54-.538 2.569-.915-.829-1.521-1.597-2.861-2.3-4.233-1.939-3.789-1.029-7.561 2.373-10.015.441-.319.83-.713.965-.83-.87-1.043-1.503-2.146-2.443-2.814-.656-.466-1.835-.662-2.606-.421-4.685 1.459-6.356 4.797-4.895 9.44.713 2.266.032 3.704-2.226 4.253-.996.241-2.092.062-3.143.089-2.141.056-4.307-.063-6.418.221-4.416.595-7.633 3.523-10.533 6.471-4.553 4.627-9.441 8.795-14.637 12.645-.699.518-1.367 1.078-1.805 1.426 4.697 1.979 9.316 3.906 13.92 5.869 3.84 1.638 7.59 3.523 11.514 4.923 4.324 1.543 8.705 1.451 12.703-1.195 1.433-.949 2.786-1.287 4.381-.245zm198.226-127.518c-1.111-3.341-2.131-6.138-2.959-8.99-.527-1.822-.748-3.733-1.148-5.595-1.42-6.594-1.86-13.211 0-19.771.809-2.859 2.137-5.567 3.084-8.393.312-.936.629-2.414.154-2.967-1.514-1.764-2.98-3.611-5.639-4.102-4.42-.814-7.861.479-11.02 3.576-3.229 3.166-4.096 4.943-2.456 8.713 1.472 3.387 1.903 6.848 2.042 10.461.256 6.641.053 13.18-3.119 19.244-1.146 2.189-2.371 4.339-3.656 6.684 1.625.562 2.936 1.275 4.312 1.439 3.021.359 5.103 2.021 6.619 4.423 1.425 2.255 2.594 4.672 3.935 7.126 2.116-5.013 5.23-9.142 9.851-11.848zm51.895 130.193c1.416 0 2.242.018 3.068-.003 4.674-.117 9.361-.123 13.727 1.817 3.465 1.541 7.008 3.047 10.162 5.108 4.633 3.027 9.334 6.137 11.553 11.674.266.662 1.633 1.55 2.072 1.361 2.146-.921 4.502-1.805 6.139-3.375 4.611-4.43 4.184-13.151-.594-17.432-.402-.36-1.043-.51-1.6-.639-2.982-.688-6.02-1.188-8.955-2.034-7.891-2.275-14.484-6.47-19.121-13.43-1.217-1.827-2.514-3.601-3.938-5.632-4.264 5.265-9.559 6.53-15.975 5.067 2.837 5.769 6.241 10.811 3.462 17.518zm-180.933-82.884c-1.44 1.513-2.788 2.707-3.872 4.105-3.371 4.343-3.104 9.295.688 13.212.901.93 2.174 1.502 3.066 2.438 1.332 1.398 2.822 1.527 4.57 1.17 1.396-.286 2.838-.574 4.246-.518 6.227.248 12.326 1.049 18.26 3.249 4.01 1.487 7.707 3.184 10.5 6.514.342.408.889.646 1.805 1.286 1.972-6.122 5.809-10.172 11.529-11.994-2.223-2.367-4.318-4.457-6.247-6.691-2.155-2.496-.889-5.698-1.386-8.84-.842.373-1.584.508-2.051.939-3.262 3.026-7.516 3.924-11.523 4.016-4.809.111-9.677-.984-14.467-1.852-5.473-.989-10.265-3.672-15.118-7.034zm73.891-19.715c-1.14-6.887-.22-12.933 3.663-18.304-.479-.224-.7-.424-.907-.41-6.334.39-11.348-2.518-15.549-6.758-6.629-6.688-11.66-14.416-13.68-23.725-3.285-1.197-5.898-.349-8.718 1.521-3.818 2.533-5.704 5.968-6.359 10.229-.296 1.917.22 3.479 2.312 4.662 6.811 3.854 12.712 8.79 17.236 15.318 2.748 3.968 4.973 8.079 5.565 12.913.167 1.366.026 2.771.026 4.127 2.744-.494 5.301-1.364 7.834-1.299 2.681.072 5.336 1.031 8.577 1.726zM294.5 560.792c-1.401.09-2.201.178-3.001.182a28.518 28.518 0 0 1-2.496-.117c-2.714-.224-3.752.832-3.251 3.501.286 1.523.974 2.983 1.157 4.511.291 2.429 1.549 4.121 3.354 5.621 2.23 1.855 1.77 5.054-.835 6.396-.71.365-1.612.562-2.101 1.12-3.639 4.165-6.037 8.88-6.174 14.556-.033 1.408-.139 2.83-.389 4.214-.787 4.345-1.686 8.67-2.473 13.014-.131.719.076 1.498.142 2.461 1.64-.72 2.882-1.426 4.218-1.825 5.498-1.644 10.98-3.363 16.549-4.729 5.523-1.355 9.139-4.942 12.091-9.433.755-1.149 1.153-2.534 1.921-4.274 1.913.913 3.834 1.423 5.223 2.573 3.554 2.942 7.21 3.256 11.295 1.388 4.067-1.86 4.92-4.821 2.438-8.912-8.505 3.934-11.479 1.475-15.786-5.788-.728 1.005-1.404 1.939-2.083 2.873-3.367 4.634-6.557 9.396-11.637 12.479-2.979 1.809-5.914 2.784-9.379 1.572-2.497-.873-4.207-2.5-4.133-5.146.066-2.341.25-4.927 1.284-6.942 2.224-4.332 4.763-8.548 8.304-12.023 1.433-1.406 2.801-2.879 4.457-4.59-5.813-2.182-11.471-4.311-8.695-12.682zm57.785-93.944c-1.896 3.139-4.034 6.147-5.615 9.425-2.273 4.71-6.532 6.795-10.84 8.724-5.234 2.344-10.797 3.737-16.562 3.99-1.935.085-2.864 1.119-3.246 2.711-1.046 4.354.089 8.392 2.558 11.93 2.057 2.946 5.576 2.828 8.74 3.121 1.301.12 2.312-.433 3.317-1.611 3.599-4.218 6.737-8.903 11.954-11.544 4.617-2.337 9.167-4.687 14.494-4.751 2.825-.034 5.652-.006 8.176-.006.17-3.019.154-6.211.58-9.344.426-3.134 1.617-6.073 4.058-8.763-6.629 1.243-14.29.642-17.614-3.882zm36.59 41.602c.697 3.055 1.293 5.684 1.897 8.31.966 4.196.271 8.277-.996 12.271-2.21 6.97-6.03 12.923-11.48 17.842-2.825 2.551-2.78 4.719-.212 7.553 2.894 3.192 6.366 4.13 10.639 3.721 3.094-.295 4.844-2.434 6.89-4.013 1.657-1.279 1.765-3.739 1.692-5.99-.371-11.519 3.946-21.115 12.23-28.988 1.178-1.119 2.607-1.973 4.209-3.163-.908-.703-1.46-1.377-2.164-1.632-2.742-.994-4.309-3.034-4.947-5.705-.641-2.685-.938-5.451-1.463-8.64-3.918 5.844-8.633 9.819-16.295 8.434zm23.22 122.371c1.35 2.055 1.211 3.829.75 5.807-.9 3.862-1.402 7.814.245 11.627.984 2.279 2.017 4.575 3.335 6.669 3.745 5.946 7.648 11.792 11.592 17.834 1.205-2.431 2.242-4.941 3.635-7.236 2.407-3.97 5.301-7.659 7.5-11.731 2.771-5.136 4.039-10.52-.145-15.722-.803-.997-.734-1.974.201-2.87 1.01-.965 1.744-2.166 3.496-2.186 1.758-.02 3.506-.572 5.268-.837 4.158-.626 7.391-3.934 7.926-8.057.148-1.146.516-2.265.852-3.688-1.293-.816-2.736-1.729-4.275-2.702-1.166 2.952-2.654 5.235-5.141 6.658-3.234 1.85-6.336.052-9.682-.874 0 3.14.076 5.887-.021 8.628-.098 2.738-.248 5.486-.604 8.199-.277 2.111-.561 4.341-1.459 6.224-1.428 2.996-3.999 4.484-7.501 4.642-3.303.147-5.167-1.685-6.593-4.091-.893-1.505-1.535-3.323-1.709-5.059-.511-5.101-1.946-10.134-1.188-15.351.159-1.089-.24-2.259-.332-2.996-3.204.337-6.083 1.188-8.771.778-3.142-.479-4.456-3.532-5.544-6.664-1.291 1.086-2.166 2.14-3.288 2.692-1.62.798-1.806 2.142-1.835 3.576-.065 3.253 4.296 7.021 7.555 6.759 1.962-.157 3.946-.029 5.733-.029zm33.694-114.004c1.84 1.555 3.699 2.703 5.004 4.302 6.291 7.711 8.393 16.979 9.301 26.582.312 3.287.049 6.629.049 9.69 5.795 3.933 15.098-.246 18.158-5.352 1.158-1.933 1.184-4.203-.287-6.333-2.758-3.989-5.766-7.881-7.936-12.184-3.719-7.367-5.67-15.184-3.35-23.511.115-.407.016-.874.016-1.306-6.533-.222-7.059-.438-14.896-6.018-1.567 8.563-2.075 9.742-6.059 14.13zm62.389-80.163c.494-.568.824-.897 1.096-1.27 3.021-4.159 6.725-7.241 11.824-8.742 3.533-1.04 7.078-.918 10.627-1.298 5.781-.62 11.342.228 17.098 1.655.586-.484 1.398-1.013 2.035-1.703 3.73-4.048 4.387-10.608-.576-13.748-1.188-.751-2.133-1.895-3.158-2.891-2.428-2.357-2.863-2.088-5.826-.74-3.33 1.515-5.701 4.583-9.426 5.375-2.076.441-4.057 1.335-6.135 1.748-5.291 1.051-10.604 1.855-15.84-.379-1.705-.729-3.465-1.334-5.41-2.075-.684 5.137-3.381 9.044-7.482 12.362 2.615 1.47 5.41 2.362 7.186 4.226 1.799 1.891 2.594 4.741 3.987 7.48zm-16.408-35.822c.375.086.623.228.822.178 6.496-1.631 13.08-2.984 19.447-5.02 5.326-1.704 10.533-3.941 15.537-6.451 3.736-1.874 6.832-4.773 8.643-8.768.688-1.517.775-2.775-.15-4.359-2.525-4.316-6.283-4.973-10.912-3.695-5.992 1.653-11.652 4.396-16.498 8.348-6.786 5.535-12.063 12.435-16.889 19.767zM427.931 510.35c-.596.747-.882.966-.98 1.249-1.607 4.608-3.308 9.188-4.754 13.847-2.573 8.291-3.676 16.804-2.496 25.428.394 2.879 1.506 5.853 3.018 8.341 2.373 3.904 7.127 4.852 9.807-.178 1.499-2.811 2.344-5.674 2.69-8.768.59-5.247.48-10.488-.6-15.646-.875-4.178-2.042-8.298-3.178-12.416-1.058-3.827-2.247-7.617-3.507-11.857zm24.86-142.124c.691-.956 1.387-1.909 2.074-2.868 1.936-2.701 3.785-5.467 5.814-8.098 6.307-8.182 11.107-17.025 12.129-27.506.299-3.069.695-6.241-1.633-8.898-1.441-1.646-3.062-2.21-5.111-1.453-3.941 1.457-6.725 4.166-7.969 8.18-1.656 5.342-3.006 10.78-4.65 16.126-2.486 8.078-1.088 16.25-.654 24.517zm-72.637 126.72c-6.656 3.11-16.824 10.017-22.184 14.466-4.81 3.993-8.069 9.071-10.9 14.481-1.499 2.864-1.827 5.885-.329 8.956.733 1.505 1.861 2.178 3.443 1.999 3.716-.421 7.128-1.456 10.181-3.887 5.306-4.222 8.607-9.874 11.512-15.729 2.625-5.294 4.617-10.902 6.869-16.38.437-1.062.785-2.164 1.408-3.906zm22.471-129.092c-.364-4.585-.558-8.638-1.03-12.657-.992-8.438-2.084-16.845-5.398-24.812-1.508-3.622-3.927-6.258-7.102-8.302-.855-.551-2.032-.994-3.006-.9-3.559.342-7.237 5.764-6.375 9.416.604 2.551 1.417 5.071 2.355 7.521 3.051 7.966 7.243 15.345 12.229 22.229 2.024 2.794 3.71 6.172 8.327 7.505zm-39.263 34.958.312-.876c-2.674-2.557-5.285-5.186-8.037-7.655-5.34-4.792-10.674-9.597-16.176-14.198-3.906-3.267-8.653-4.562-13.699-4.426-1.619.045-3.309.562-4.807 1.225-2.033.898-2.619 2.541-2.07 4.767.646 2.615 1.906 5.029 4.001 6.606 4.37 3.289 8.837 6.514 14.048 8.416 3.694 1.348 7.399 2.691 11.17 3.797 2.506.732 5.215 1.659 7.688 1.349 2.062-.259 3.636.035 5.387.78.641.271 1.449.154 2.183.215zm138.07 49.342-.201.84c3.148 1.859 6.143 4.087 9.48 5.506 8.254 3.508 16.875 6.004 25.67 7.718 3.324.647 6.771 1.005 10.244-.253 5.09-1.845 6.674-5.487 2.145-9.987-3.051-3.031-6.861-4.559-10.961-5.53-5.623-1.332-11.256-1.372-16.973-.609-5.641.752-11.324 1.18-16.986 1.782-.817.086-1.614.351-2.418.533zm-25.903 44.577c1.693 4.608 2.637 8.792 4.67 12.352 3.611 6.32 7.771 12.342 11.92 18.337 3.127 4.52 7.748 6.94 13.061 8.056 2.527.53 3.828-.395 4.383-2.921.875-3.97-.369-7.326-2.996-10.251-2.783-3.097-5.756-6.031-8.404-9.236-5.981-7.239-13.917-11.706-22.634-16.337zm17.95 61.811c-1.244 9.645-7.434 15.462-15.412 18.81-8.439 3.542-16.807 1.646-24.191-3.987l-5.432 7.895c2.713 2.759 6.043 3.55 9.148 4.601 5.34 1.81 10.836 1.956 16.436 1.017 4.416-.74 8.398-2.399 12.232-4.563 6.596-3.725 10.439-10.009 14.645-15.924.91-1.278 1.254-2.958 1.951-4.679a19334.4 19334.4 0 0 0-9.377-3.17zM351.564 451.656l-.133-.795c-1.342-.233-2.677-.56-4.029-.685-4.859-.446-9.742-.686-14.585-1.265-5.74-.686-11.419-.532-17.078.554-3.397.652-6.323 2.16-8.302 5.116-2.619 3.914-1.713 7.433 3.479 9.028 2.842.873 6.146.938 9.127.524 5.578-.773 11.068-2.168 16.166-4.736 5.119-2.579 10.237-5.161 15.355-7.741zm1.836 107.347c.402 4.476 2.431 7.826 4.666 11.102 3.65 5.348 8.142 9.924 14.275 12.06 8.738 3.043 17.658 3.479 26.439-.326 2.602-1.126 5.301-2.023 8.5-3.232l-4.197-6.525c-8.105 4.789-16.003 7.046-25.095 3.685-9.184-3.396-13.657-10.238-15.978-19.193-3.038.855-5.757 1.622-8.61 2.429zm-31.631-34.939c-1.004 0-1.956.294-2.53-.048-3.696-2.199-8.013-2.975-11.462-5.958-3.404-2.946-6.547-5.736-8.059-10.135-1.751-5.1-2.664-10.163-.875-15.431.65-1.915 1.24-3.851 1.95-6.062l-8.196-3.571c-4.044 9.859-2.611 19.512.621 28.941 1.133 3.301 3.269 6.525 5.703 9.055 4.995 5.188 11.492 8.264 18.07 11.005 1.063.443 2.471.062 3.76.062.368-2.829.682-5.267 1.018-7.858zm-27.793-137.705c-1.58.799-3.092 1.427-4.46 2.283-3.337 2.088-5.374 5.408-7.397 8.598-1.947 3.07-3.911 6.34-4.826 9.797-.918 3.475-1.51 7.16-1.021 10.952.561 4.368 1.188 8.723 2.926 12.734 1.521 3.508 3.688 6.736 5.624 10.185 2.491-2.001 4.704-3.777 6.95-5.583-.376-.893-.553-1.611-.943-2.186-1.26-1.847-2.645-3.607-3.895-5.46-2.783-4.125-3.787-8.812-3.498-13.65.229-3.812 1.268-7.479 3.817-10.619 3.019-3.717 6.473-6.871 10.753-9.334l-4.03-7.717zm240.358 147.144c.514.107.861.268 1.184.229a7.504 7.504 0 0 0 1.732-.408c8.09-3.021 15.23-7.576 20.912-14.066 2.635-3.01 5.039-6.402 5.369-10.732.455-5.952 1.23-11.888 1.439-17.846.102-2.921-.764-5.876-1.234-9.12l-7.818 3.896c1.324 5.683 2.678 11.275 2.014 17.061-.688 5.995-2.676 11.192-7.703 15.209-4.891 3.906-10.146 6.593-16.395 7.542-.115.85-.348 1.562-.281 2.247.197 2.004.511 3.998.781 5.988zm4.604-185.462c-.098-1.654-.07-2.687-.234-3.688-.309-1.89-.756-3.757-1.096-5.642-1.041-5.766-3.57-10.945-7.377-15.223-2.547-2.862-6.105-4.832-9.254-7.143-.557-.408-1.309-.626-2.004-.758-6.664-1.267-13.326-2.559-20.014-3.691-1.719-.292-3.59-.271-5.111 1.527.93 2.24 1.879 4.526 2.799 6.748 2.715-.389 5.146-.934 7.596-1.025 1.881-.07 3.779.604 5.678.648 9.65.221 15.74 7.786 17.93 15.429 1.062 3.71 1.184 7.69 1.75 11.682l9.337 1.136zm-180.532-35.164c-3.48-1.452-6.834-1.188-10.121-1.166-6.225.041-11.882 2.094-17.352 4.945-3.873 2.02-6.557 5.133-8.447 8.847-1.721 3.382-3.072 6.993-4.203 10.623-1.264 4.056-3.097 8.076-2.182 12.844 2.898.622 5.758.661 8.561-.657.107-1.092.397-2.064.261-2.975-.663-4.419.749-8.502 1.878-12.636 1.877-6.878 6.994-10.472 13.223-12.817 4.594-1.73 9.379-1.277 14.102-.656 1.354.178 2.425.195 2.895-1.156.572-1.655.914-3.39 1.385-5.196zm198.18 78.692c.822 1.034 1.311 2.247 2.168 2.622 3.355 1.471 5.154 4.512 7.477 7.002 4.643 4.979 7.775 10.504 6.227 17.746-.928 4.337-1.777 8.652-4.777 12.14-1.217 1.414-2.506 2.766-3.613 3.981l6.1 6.283c2.992-3.797 5.508-7.771 6.449-12.587.227-1.164.844-2.254 1.059-3.42.598-3.246 1.623-6.536 1.484-9.767-.219-5.145-2.531-9.857-4.406-14.611-.258-.653-.668-1.27-1.102-1.829a322.88 322.88 0 0 0-5.078-6.409c-2.373-2.905-4.594-6.005-8.578-7.302l-3.41 6.151zm-100.92-94.735c-.459-.783-.578-1.162-.832-1.392-5.637-5.102-11.873-9.239-19.312-11.152-4.633-1.192-9.499-1.788-14.038-.021-5.096 1.984-10.002 4.505-14.853 7.055-2.793 1.469-5.315 3.453-6.921 6.396l6.642 4.308c.446-.349.794-.513.985-.786 4.264-6.092 9.699-10.148 17.309-11.432 4.693-.792 8.631.594 12.7 2.266 4.811 1.977 7.674 6.2 11.391 9.891l6.929-5.133zm73.162 419.68c-5.41 14.14.584 29.03 11.713 31.765 7.447-10.559-.518-26.59-11.713-31.765zm-202.083-.793c-1.19.768-2.035 1.161-2.689 1.763-2.459 2.26-4.761 4.697-7.298 6.862-3.506 2.992-4.924 6.896-4.291 11.187.562 3.804 2.104 7.463 3.301 11.48 5.03-1.998 8.127-5.303 10.563-9.31 4.237-6.967 2.801-14.097.414-21.982zm290.841-506.41c1.613-.374 3.102-.651 4.549-1.066 5.201-1.495 8.625-5.264 12.041-9.18 3.205-3.676 3.467-8.022 3.48-12.453.006-1.936-1.6-3.142-3.4-2.693-4.682 1.166-9.113 2.771-11.945 7.152-3.541 5.479-5.174 11.404-4.725 18.24zM103.988 380.79c1.783 3.198 4.552 5.435 7.76 7.036 8.565 4.275 16.289 1.002 24.121-2.584-6.961-10.641-26.077-11.895-31.881-4.452zm580.104 206.388c4.598 13.604 17.078 20.385 27.889 15.283-1.133-2.076-2.311-4.11-3.371-6.202-1.578-3.113-3.883-5.356-7.174-6.636-5.514-2.144-11.18-3.049-17.344-2.445zm35.334-201.469c10.951 6.494 27.529 3.908 31.273-5.253-1.219-.569-2.418-1.323-3.727-1.7-2.16-.622-4.381-1.074-6.598-1.472-8.416-1.509-15.592.331-20.619 7.804-.13.193-.224.412-.329.621zM428.218 139.361c3.221-5.784 5.889-10.799 5.184-16.939-.67-5.85-1.272-11.602-6.652-15.566-6.124 6.749-8.279 13.908-4.378 22.192 1.273 2.705 2.722 5.328 4.141 7.96.389.718.961 1.337 1.705 2.353zm-191.207 68.396c.739-10.658-9.236-21.834-20.623-22.441-1.262 11.055 10.916 24.306 20.623 22.441zm-66.246 377.794c-11.033-1.031-24.302 6.963-24.988 16.382 4.9-.162 9.643-.677 14.17-2.911 5.775-2.851 9.984-6.74 10.818-13.471zm206.572-300.184c4.436 2.923 8.873 4.798 13.478 6.598-3.683-4.268-3.827-9.852-5.933-15.013l-7.545 8.415zM592.9 450.747c-5.156.388-9.986 1.245-15.178-.416M362.667 300.97l5.121-12.345-11.139-1.186c.947 1.929 1.52 3.67 2.552 5.074 1.892 2.575 2.888 5.382 3.466 8.457zm258.435 193.247c-.904-.991-1.691-2.392-3.779-.982l3.779.982z" style="fill:#222" transform="translate(15.875 31.75) scale(.19473)"/>
    <path d="M2.75 70v25c0 5.817 4.683 1.25 10.5 1.25h73.5c5.817 0 10.5 4.567 10.5-1.25V70H2.75z" style="fill:#222;fill-rule:nonzero" transform="scale(2)"/>
    <g style="font-weight:700;font-size:27.7149px;line-height:1.25;font-family:sans-serif;-inkscape-font-specification:'sans-serif Bold';letter-spacing:0;word-spacing:0;fill:#fee;fill-opacity:1;stroke-width:.692874">
        <path d="M11.936 140.282h4.993l3.492 14.683 3.464-14.683h5.02l3.465 14.683 3.492-14.683h4.953l-4.764 20.204h-6.008l-3.668-15.36-3.627 15.36H16.74zm32.289 0h14.06v3.938h-8.85v3.762h8.322v3.938h-8.322v4.628h9.148v3.938H44.225zm32.992.636v4.276q-1.664-.744-3.247-1.123-1.584-.38-2.991-.38-1.868 0-2.76.515-.894.514-.894 1.597 0 .812.596 1.272.608.447 2.192.771l2.22.447q3.369.677 4.79 2.057 1.42 1.38 1.42 3.924 0 3.343-1.989 4.98-1.975 1.624-6.049 1.624-1.921 0-3.857-.365-1.935-.365-3.87-1.083v-4.398q1.935 1.029 3.735 1.556 1.813.515 3.492.515 1.705 0 2.611-.569.907-.568.907-1.624 0-.947-.622-1.461-.61-.514-2.45-.92l-2.016-.447q-3.032-.65-4.439-2.07-1.394-1.421-1.394-3.83 0-3.018 1.949-4.642 1.949-1.624 5.602-1.624 1.665 0 3.424.257 1.76.244 3.64.745zm5.901-.636h14.06v3.938h-8.85v3.762h8.322v3.938h-8.322v4.628h9.148v3.938H83.118zm18.932 0h5.819l7.348 13.857v-13.857h4.94v20.204h-5.82l-7.348-13.858v13.858h-4.94zm20.786 0h18.621v3.938h-6.699v16.266h-5.21V144.22h-6.712zm21.314 0h5.21v16.266h9.148v3.938H144.15zm17.66 0h5.21v20.204h-5.21zm26.335 19.094q-1.435.744-2.991 1.123-1.556.38-3.248.38-5.048 0-7.998-2.816-2.95-2.828-2.95-7.659 0-4.845 2.95-7.66 2.95-2.828 7.998-2.828 1.692 0 3.248.38 1.556.378 2.99 1.122v4.182q-1.447-.988-2.855-1.448-1.407-.46-2.963-.46-2.788 0-4.385 1.786t-1.597 4.926q0 3.126 1.597 4.912 1.597 1.787 4.385 1.787 1.556 0 2.963-.46 1.408-.46 2.856-1.448zm4.317-19.094h5.21v7.7h7.686v-7.7h5.21v20.204h-5.21v-8.566h-7.686v8.566h-5.21z" style="stroke-width:.692874" transform="scale(.90392 1.1063)" aria-label="WESENTLICH"/>
    </g>
</svg>
