<svg xmlns="http://www.w3.org/2000/svg" width="200" height="200" xml:space="preserve" style="fill-rule:evenodd;clip-rule:evenodd;stroke-linejoin:round;stroke-miterlimit:2">
    <path d="M100 3.75C100 1.68 98.32 0 96.25 0H3.75C1.68 0 0 1.68 0 3.75v92.5C0 98.32 1.68 100 3.75 100h92.5c2.07 0 3.75-1.68 3.75-3.75V3.75z" style="fill:#222" transform="scale(2)"/>
    <path d="M95 7.5A2.5 2.5 0 0 0 92.5 5h-85A2.5 2.5 0 0 0 5 7.5v85A2.5 2.5 0 0 0 7.5 95h85a2.5 2.5 0 0 0 2.5-2.5v-85z" style="fill:#074ff5" transform="scale(2)"/>
    <path d="M8946.9 4689.2c-26.9-3.8-113.1-17.3-191.7-28.8-460.2-67.1-1167.7-356.6-1900.1-774.6-337.5-193.7-1008.5-640.4-1369-910.7-308.7-233.9-661.5-513.8-661.5-527.3 0-5.7 61.4-40.3 136.1-76.7 573.3-289.5 1146.6-745.8 1530-1223.3 278-345.1 533-780.4 701.7-1198.4l80.5-197.5L7510.8-2.6c1094.8 1131.2 1963.4 2392.9 2260.6 3278.7 230.1 692.2 151.5 1138.9-235.8 1328.7-155.4 74.8-402.7 111.2-588.7 84.4zm-663.4-364.4c456.3-274.2 928-788 1175.3-1278.9l67.1-136.1-63.3-128.5-61.4-130.4-103.5 214.7c-270.3 559.9-697.9 1023.9-1225.2 1330.6-88.2 49.8-161.1 97.8-161.1 103.5 0 15.3 189.8 90.1 230.1 92 15.5 2.2 80.7-28.5 142-66.9zM7875.1 3439c596.3-164.9 866.7-868.6 533-1386.2-30.7-49.9-97.8-128.5-147.6-174.5-184.1-172.6-372-245.4-628.9-245.4-820.6 0-1232.9 983.6-653.8 1562.6 245.4 245.5 571.4 333.6 897.3 243.5zM4168.9 1887.9c-86.3-78.6-170.6-155.3-186-168.7-23-23-11.5-34.5 80.5-74.8 143.8-63.3 492.8-264.6 646.2-372 504.2-352.8 981.7-857.1 1301.9-1370.9 111.2-180.2 312.5-584.8 377.7-765 30.7-82.4 63.3-149.6 74.8-149.6 9.6 1.9 95.9 74.8 189.8 163L6824.4-691l-80.5 237.8C6395 568.8 5674 1387.5 4701.9 1864.9c-396.9 193.6-345.1 191.7-533 23zm-1526.2-408.4c-408.4-109.3-891.6-404.6-1451.4-887.7C934.3 371.3 476-67.8 393.6-171.4l-59.4-76.7 101.6 42.2C769.4-73.6 1035.9-16 1319.7-16c304.9 0 515.8-76.7 678.7-243.5l84.4-86.3-86.3-116.9c-216.7-299.1-418-594.4-419.9-617.4 0-13.4 65.2-99.7 147.6-189.8 80.5-88.2 147.6-168.7 147.6-178.3 0-7.7-55.6-67.1-126.5-132.3l-128.5-115 617.4-674.9c341.3-372 625.1-674.9 630.8-674.9 7.7 0 70.9 51.8 141.9 115l126.5 115 164.9-178.3 163-176.4 128.5 67.1c70.9 36.4 245.4 138.1 389.2 224.3l260.8 157.2 90.1-94c126.5-136.1 172.6-266.5 184.1-521.5 13.4-312.5-61.4-607.8-243.5-983.6-42.2-84.4-74.8-155.3-72.9-157.2 13.4-13.4 711.3 594.4 949.1 826.4 546.4 533 864.7 972.1 1002.8 1382.4 65.2 189.8 65.2 475.5 1.9 613.5-24.9 53.7-69 122.7-99.7 153.4-38.3 38.3-80.5 130.4-134.2 287.6C5541.7-115.8 4719.2 766.2 3655 1213c-57.5 23-141.9 76.7-187.9 118.9-141.9 126.5-270.4 174.5-492.8 180.2-143.7 3.8-226.2-3.8-331.6-32.6zM4445 18.5c145.7-67.1 274.2-189.8 347-331.7 57.5-107.4 61.4-128.5 61.4-316.4 0-182.1-5.7-210.9-53.7-306.8-70.9-138.1-201.3-270.4-337.5-337.5-97.8-51.7-124.6-55.6-308.7-55.6-166.8 1.9-216.7 9.6-293.4 44.1-126.5 57.5-283.8 210.9-350.9 343.2-51.8 101.6-55.6 128.4-55.6 312.5 0 182.1 5.8 210.9 53.7 306.8 88.2 172.6 207.1 279.9 395 358.5C4053.8 99 4287.8 91.3 4445 18.5zM1402.1-2109.8c-214.8-151.5-548.4-479.3-678.7-665.3-53.7-78.6-94-145.7-90.1-149.6 3.8-5.8 53.7 5.8 109.3 21.1 126.5 38.3 266.5 40.3 266.5 3.8 0-30.7-53.7-99.7-278-366.2-287.6-339.4-481.3-659.6-602-991.3-38.3-109.3-38.3-111.2-1.9-111.2 72.9 0 439.1 132.3 634.6 230.1 189.8 95.9 372 210.9 715.2 452.5 134.2 94 155.3 103.5 180.2 76.7 24.9-24.9 23-46-21.1-186-26.9-88.2-46-163-42.2-168.7 11.5-11.5 247.3 132.3 389.2 237.8 157.2 115 414.2 360.5 527.3 506.2l88.2 113.1-450.6 494.7c-249.3 274.2-479.3 525.4-513.8 559.9l-61.4 63.3-170.7-120.9z" style="fill:#222;fill-rule:nonzero" transform="matrix(.0143 0 0 -.0143 28.5 92.246)"/>
    <path d="M2.75 70v25c0 5.817 4.683 1.25 10.5 1.25h73.5c5.817 0 10.5 4.567 10.5-1.25V70H2.75z" style="fill:#222;fill-rule:nonzero" transform="scale(2)"/>
    <g style="font-weight:700;font-size:26.5543px;line-height:1.25;font-family:sans-serif;-inkscape-font-specification:'sans-serif Bold';letter-spacing:0;word-spacing:0;fill:#fee;fill-opacity:1;stroke-width:.663856">
        <path d="M11.821 130.884h13.472v3.773h-8.48v3.605h7.974v3.773h-7.974v8.208h-4.992zm18.139 0h4.993v11.605q0 2.399.778 3.436.79 1.024 2.567 1.024 1.79 0 2.567-1.024.791-1.037.791-3.436v-11.605h4.992v11.605q0 4.11-2.062 6.12-2.061 2.01-6.288 2.01-4.214 0-6.276-2.01-2.061-2.01-2.061-6.12zm19.255 0h17.841v3.773h-6.418v15.586h-4.992v-15.586h-6.43zm20.422 0h4.991v11.605q0 2.399.778 3.436.791 1.024 2.568 1.024 1.789 0 2.567-1.024.79-1.037.79-3.436v-11.605h4.993v11.605q0 4.11-2.062 6.12-2.061 2.01-6.288 2.01-4.214 0-6.276-2.01-2.061-2.01-2.061-6.12zm28.654 8.584q1.57 0 2.243-.584.688-.583.688-1.919 0-1.322-.688-1.893-.674-.57-2.243-.57h-2.1v4.966zm-2.1 3.449v7.326h-4.992v-19.359h7.624q3.825 0 5.601 1.284 1.79 1.284 1.79 4.058 0 1.92-.934 3.151-.92 1.232-2.788 1.815 1.025.234 1.829 1.063.816.817 1.646 2.49l2.71 5.498h-5.316l-2.36-4.81q-.713-1.453-1.452-1.985-.726-.531-1.945-.531zm15.455-12.033h4.992v19.359h-4.992zm23.352.61v4.097q-1.595-.713-3.112-1.076-1.517-.363-2.865-.363-1.79 0-2.645.492-.856.493-.856 1.53 0 .778.57 1.22.584.427 2.1.738l2.127.428q3.229.649 4.59 1.971 1.362 1.323 1.362 3.76 0 3.203-1.906 4.772-1.893 1.556-5.796 1.556-1.841 0-3.695-.35-1.855-.35-3.709-1.038v-4.214q1.854.986 3.579 1.491 1.737.493 3.345.493 1.634 0 2.503-.545.868-.544.868-1.555 0-.908-.596-1.4-.584-.493-2.347-.882l-1.932-.428q-2.904-.623-4.253-1.984-1.335-1.362-1.335-3.67 0-2.89 1.867-4.447 1.867-1.556 5.368-1.556 1.595 0 3.28.247 1.686.233 3.488.713zm3.345-.61h17.841v3.773h-6.418v15.586h-4.992v-15.586h-6.43zm20.422 0h4.992v19.359h-4.992zm23.351.61v4.097q-1.594-.713-3.111-1.076-1.517-.363-2.866-.363-1.79 0-2.645.492-.856.493-.856 1.53 0 .778.57 1.22.584.427 2.101.738l2.127.428q3.228.649 4.59 1.971 1.361 1.323 1.361 3.76 0 3.203-1.906 4.772-1.893 1.556-5.796 1.556-1.84 0-3.695-.35-1.854-.35-3.708-1.038v-4.214q1.854.986 3.578 1.491 1.738.493 3.345.493 1.634 0 2.503-.545.869-.544.869-1.555 0-.908-.597-1.4-.583-.493-2.347-.882l-1.932-.428q-2.904-.623-4.252-1.984-1.336-1.362-1.336-3.67 0-2.89 1.867-4.447 1.867-1.556 5.368-1.556 1.595 0 3.28.247 1.686.233 3.488.713zm21.005 17.686q-1.374.712-2.865 1.075-1.491.364-3.112.364-4.836 0-7.663-2.697-2.827-2.71-2.827-7.34 0-4.64 2.827-7.338 2.827-2.71 7.663-2.71 1.62 0 3.112.363 1.49.363 2.865 1.076v4.007q-1.387-.947-2.736-1.387-1.348-.441-2.84-.441-2.67 0-4.2 1.711-1.53 1.712-1.53 4.72 0 2.995 1.53 4.707 1.53 1.711 4.2 1.711 1.492 0 2.84-.44 1.349-.442 2.736-1.388zm4.136-18.296h4.992v7.378h7.365v-7.378h4.992v19.359h-4.992v-8.208h-7.365v8.208h-4.992z" style="fill:#fee;fill-opacity:1;stroke-width:.663856" transform="scale(.84593 1.18213)" aria-label="FUTURISTISCH"/>
    </g>
</svg>
