<svg xmlns="http://www.w3.org/2000/svg" width="200" height="200" xml:space="preserve" style="fill-rule:evenodd;clip-rule:evenodd;stroke-linejoin:round;stroke-miterlimit:2">
    <path d="M100 3.75C100 1.68 98.32 0 96.25 0H3.75C1.68 0 0 1.68 0 3.75v92.5C0 98.32 1.68 100 3.75 100h92.5c2.07 0 3.75-1.68 3.75-3.75V3.75z" style="fill:#222" transform="scale(2)"/>
    <path d="M95 7.5A2.5 2.5 0 0 0 92.5 5h-85A2.5 2.5 0 0 0 5 7.5v85A2.5 2.5 0 0 0 7.5 95h85a2.5 2.5 0 0 0 2.5-2.5v-85z" style="fill:#ff7400" transform="scale(2)"/>
    <g transform="translate(39.034 21.511) scale(6.1174)">
        <clipPath id="a">
            <path d="M0 0h19.932v19.932H0z"/>
        </clipPath>
        <g clip-path="url(#a)">
            <path d="M14.89 3.196c-.468 0-.828.042-1.166.361-.34.318-.742.677-.742.677s-.423-.212-.574-.508c-.146-.297-.38-.678-.739-.888-.362-.212-.702-.277-.954-.425-.255-.148-.993-.571-1.334-.699-.34-.128-.53-.255-.848-.423-.318-.17-.975-.297-1.397-.36 0 0-.106-.569-.825-.814-.85-.29-1.357.051-1.357.051s-.146-.042-.276 0c-.127.042-.086.147-.169.147-.086 0-.128.063-.17.127-.042.064-.042.149-.084.212-.044.063-.126.063-.107.19l.021.127s-.458 1.318.743 1.87c1.488.684 2.157-.776 2.157-.776s.597.18.892.265c.296.084.422.127.678.297.254.171.572.445.87.635.297.19.699.506.699.506s-1.419.891-1.867 1.654c-.444.761-1.164 1.992-1.419 2.349-.254.361-.824 1.21-.656 2.1.17.889.826 1.228.954 1.419.126.188.403 1.587.487 1.842.084.255.17.679.189.871.022.188-.044.337.022.57.064.233.064.445.064.445s-.507.595-.87.827c-.358.231-.508.379-.719.379-.213 0-.424.023-.508.17-.086.149-.086.319-.022.53.063.212.317.995.274 1.229-.033.18-.09.387-.096.528H5.06v1.251h8.078v-1.251h-1.035a1.067 1.067 0 0 0-.415-.401c-.402-.234-1.06-.595-1.102-.763-.042-.17.147-.911.38-1.651.234-.743.256-.893.256-.893s.466-.295.57-.613c.106-.318.13-.723.15-.783.021-.063 1.101-1.165 1.25-2.1.147-.932.189-1.249.297-1.608.104-.359.17-.317.212-.678.042-.361.042-.681.042-.681s.316-.592.212-1.059c-.105-.462-.273-.462-.315-.887-.044-.422-.066-.762.126-.847.19-.085.168-.149.444-.149.272 0 .51.045.615-.062.105-.104.825-.297.995-1.037.171-.743-.465-1.273-.93-1.273zM8.215 17.833c-.105.256-.381.405-.401.553a6.363 6.363 0 0 1-.054.296h-.773c.021-.424.104-1.216.189-1.42.105-.252 0-.273.299-.486.295-.212.675-.401.675-.401s.173 1.205.065 1.458zm2.143-15.512c.083.064.344.301.73.413.439.129.678.306.869.556.189.254.346.562.346.562s-.457-.564-.709-.708c-.248-.144-.939-.495-1.258-.841-.002-.003.012.008.022.018zm.249 9.121c-.088-.11-.534-.724-.534-.724s.768.737.967 1.025c.201.288.443.7.443.7s-.788-.89-.876-1.001zm1.887-1.391c-.063.212-.063.529-.189.699-.128.168-.256.72-.318.934-.062.211-.36.741-.36.741s-.34-.637-1.017-1.315c-.679-.676-.911-1.058-.887-1.355.018-.296.188-.868.422-.994.231-.127.806-.297 1.037-.425.234-.126.38-.147.528-.211.148-.062.911-.021.911-.021s-.104.402-.085.782c.023.383.023.954-.042 1.165zm3.215-5.577c-.072.313-.506.64-.506.64s.194-.224.357-.653c.162-.43-.134-.786-.134-.786.327.177.358.491.283.799z" style="fill:#222;fill-rule:nonzero"/>
        </g>
    </g>
    <path d="M2.75 70v25c0 5.817 4.683 1.25 10.5 1.25h73.5c5.817 0 10.5 4.567 10.5-1.25V70H2.75z" style="fill:#222;fill-rule:nonzero" transform="scale(2)"/>
    <g style="font-weight:700;font-size:28.753px;line-height:1.25;font-family:sans-serif;-inkscape-font-specification:'sans-serif Bold';letter-spacing:0;word-spacing:0;fill:#fee;fill-opacity:1;stroke-width:.829415">
        <path d="M10.72 144.654h5.405v7.989H24.1v-7.989h5.405v20.961H24.1v-8.887h-7.975v8.887H10.72zm24.064 0h5.405v20.961h-5.405zm25.285.66v4.437q-1.727-.772-3.37-1.166-1.642-.393-3.102-.393-1.938 0-2.864.534-.927.533-.927 1.656 0 .843.618 1.32.632.464 2.274.8l2.303.464q3.496.702 4.97 2.134 1.474 1.432 1.474 4.071 0 3.468-2.064 5.167-2.05 1.685-6.276 1.685-1.993 0-4-.38-2.009-.379-4.016-1.123v-4.563q2.007 1.067 3.875 1.615 1.881.534 3.622.534 1.769 0 2.71-.59.94-.59.94-1.685 0-.983-.646-1.516-.631-.534-2.54-.955l-2.093-.463q-3.145-.674-4.605-2.148-1.446-1.474-1.446-3.973 0-3.131 2.022-4.816t5.812-1.685q1.727 0 3.552.267 1.826.253 3.777.772zm3.622-.66H83.01v4.086h-6.95v16.875h-5.405V148.74H63.69zm31.687 3.538q-2.47 0-3.832 1.825-1.362 1.826-1.362 5.139 0 3.3 1.362 5.124 1.362 1.826 3.832 1.826 2.485 0 3.847-1.826 1.362-1.825 1.362-5.124 0-3.313-1.362-5.139-1.362-1.825-3.847-1.825zm0-3.917q5.055 0 7.919 2.892 2.864 2.893 2.864 7.989 0 5.082-2.864 7.974-2.864 2.893-7.919 2.893-5.04 0-7.918-2.893-2.864-2.892-2.864-7.974 0-5.096 2.864-7.989 2.878-2.892 7.918-2.892zm22.548 9.674q1.699 0 2.429-.632.744-.632.744-2.078 0-1.432-.744-2.05-.73-.618-2.429-.618h-2.274v5.378zm-2.274 3.734v7.932h-5.406v-20.96h8.256q4.141 0 6.065 1.39 1.937 1.39 1.937 4.394 0 2.078-1.01 3.411-.998 1.334-3.02 1.966 1.11.253 1.98 1.151.885.885 1.783 2.696l2.935 5.952h-5.757l-2.555-5.208q-.772-1.573-1.572-2.148-.786-.576-2.106-.576zm16.735-13.029h5.405v20.961h-5.405zm25.285.66v4.437q-1.727-.772-3.37-1.166-1.642-.393-3.102-.393-1.938 0-2.864.534-.927.533-.927 1.656 0 .843.618 1.32.632.464 2.274.8l2.303.464q3.496.702 4.97 2.134 1.474 1.432 1.474 4.071 0 3.468-2.064 5.167-2.05 1.685-6.276 1.685-1.993 0-4-.38-2.009-.379-4.016-1.123v-4.563q2.007 1.067 3.875 1.615 1.881.534 3.622.534 1.769 0 2.71-.59.94-.59.94-1.685 0-.983-.646-1.516-.631-.534-2.54-.955l-2.093-.463q-3.145-.674-4.605-2.148-1.446-1.474-1.446-3.973 0-3.131 2.022-4.816t5.812-1.685q1.727 0 3.552.267 1.825.253 3.777.772zm22.744 19.15q-1.488.772-3.103 1.165-1.614.394-3.37.394-5.236 0-8.297-2.92-3.06-2.935-3.06-7.947 0-5.026 3.06-7.946 3.061-2.935 8.298-2.935 1.755 0 3.37.393 1.614.393 3.102 1.166v4.338q-1.502-1.025-2.962-1.502-1.46-.478-3.075-.478-2.892 0-4.549 1.854-1.656 1.853-1.656 5.11 0 3.243 1.656 5.096 1.657 1.854 4.549 1.854 1.615 0 3.075-.478 1.46-.477 2.962-1.502zm4.479-19.81h5.405v7.989h7.974v-7.989h5.406v20.961h-5.406v-8.887H190.3v8.887h-5.405z" style="fill:#fee;fill-opacity:1;stroke-width:.829415" transform="scale(.93284 1.072)" aria-label="HISTORISCH"/>
    </g>
</svg>
