<svg xmlns="http://www.w3.org/2000/svg" width="200" height="200" xml:space="preserve" style="fill-rule:evenodd;clip-rule:evenodd;stroke-linejoin:round;stroke-miterlimit:2">
    <path d="M100 3.75C100 1.68 98.32 0 96.25 0H3.75C1.68 0 0 1.68 0 3.75v92.5C0 98.32 1.68 100 3.75 100h92.5c2.07 0 3.75-1.68 3.75-3.75V3.75z" style="fill:#222" transform="scale(2)"/>
    <path d="M95 7.5A2.5 2.5 0 0 0 92.5 5h-85A2.5 2.5 0 0 0 5 7.5v85A2.5 2.5 0 0 0 7.5 95h85a2.5 2.5 0 0 0 2.5-2.5v-85z" style="fill:#6ab001" transform="scale(2)"/>
    <path d="M990 294.9c0-80.2-70.3-145.5-156.8-145.8-10.4-71.2-76.3-126.2-156-126.2-29.3 0-57.4 7.4-82.1 21.5-27.6-19.8-61.3-30.6-96.3-30.6C439.7 13.9 385.7 45 359 93c-13.5-3.4-27.3-5.1-41.4-5.1-86.7 0-157.3 65.4-157.3 145.8 0 5.7.4 11.4 1.1 17.2-34 27.7-53.2 66.8-53.2 109.1 0 60.1 39 112.9 98.2 135.1 13.9 68.4 78.1 118.5 154.6 118.5 25.7 0 50.7-5.8 73.3-16.8 27.4 19.5 60.9 30.1 95.6 30.1 46.9 0 90.9-19.3 120.7-52.3 20.3 8.4 42.2 12.9 64.4 12.9 86.7 0 157.3-65.4 157.3-145.7 0-1.9 0-3.7-.2-5.6C940.5 419.5 990 361.8 990 294.9zM848.2 400.5l-20.7 2.5 3.8 20.5c1.2 6.5 1.8 12.3 1.8 17.9 0 58.8-53.1 106.7-118.2 106.7-21.2 0-42.2-5.3-60.7-15.2l-15.1-8.2-10 14c-22 30.6-59.1 48.9-99.3 48.9-30.1 0-58.9-10.4-81-29.2l-10.6-9.1-12 7.2c-19.4 11.6-42 17.8-65.2 17.8-61.2 0-111.8-41.4-117.7-96.3l-1.4-13-12.5-3.6c-49.1-14.3-82.1-55.1-82.1-101.6 0-33.3 17-64.2 46.5-84.6l10.8-7.5-2.9-12.9c-1.5-6.9-2.3-14.1-2.3-21.2 0-58.9 53-106.7 118.3-106.7 15.4 0 30.5 2.7 45 8.1l17.9 6.6 7-17.7C404.4 81.5 449.2 53 498.9 53c30.7 0 59.9 10.7 82.2 30.1l11.5 10.1 12.5-8.8C626 69.7 651 62 677.3 62c65.2 0 118.3 47.9 118.4 105.6l-.1 24.3 21.9-2.6c5.1-.6 10.1-1.1 15.4-1.1 65.2 0 118.3 47.9 118.3 106.7-.2 53.2-44.4 98.7-103 105.6zM254.5 642.7c-63.5 0-115.1 43.2-115.1 96.4s51.6 96.3 115.1 96.3c63.4 0 115.1-43.2 115.1-96.3 0-53.1-51.6-96.4-115.1-96.4zm0 153.7c-42 0-76-25.7-76-57.4 0-31.6 34-57.3 76-57.3 41.9 0 76.1 25.7 76.1 57.3 0 31.7-34.2 57.4-76.1 57.4zM95.3 841.3c-47 0-85.3 32.5-85.3 72.4 0 39.9 38.3 72.4 85.3 72.4 47.1 0 85.3-32.5 85.3-72.4 0-39.9-38.2-72.4-85.3-72.4zm0 105.8c-25.1 0-46.3-15.3-46.3-33.4 0-18.1 21.2-33.4 46.3-33.4 25.1 0 46.3 15.3 46.3 33.4 0 18.1-21.2 33.4-46.3 33.4z" style="fill:#222;fill-rule:nonzero" transform="translate(37.03 29.003) scale(.1256)"/>
    <path d="M2.75 70v25c0 5.817 4.683 1.25 10.5 1.25h73.5c5.817 0 10.5 4.567 10.5-1.25V70H2.75z" style="fill:#222;fill-rule:nonzero" transform="scale(2)"/>
    <g style="font-weight:700;font-size:27.0391px;line-height:1.25;font-family:sans-serif;-inkscape-font-specification:'sans-serif Bold';letter-spacing:0;word-spacing:0;fill:#fee;fill-opacity:1;stroke-width:.675978">
        <path d="M11.342 136.76h5.083v19.71h-5.083zm15.143 3.841v12.028h1.822q3.116 0 4.753-1.545 1.65-1.545 1.65-4.489 0-2.93-1.637-4.462-1.637-1.532-4.766-1.532zm-5.083-3.842h5.36q4.49 0 6.681.647 2.205.634 3.776 2.165 1.386 1.334 2.06 3.077.673 1.742.673 3.947 0 2.231-.673 3.987-.674 1.743-2.06 3.077-1.584 1.531-3.802 2.178-2.218.634-6.654.634h-5.36zm22.445.001h13.717v3.841H48.93v3.67h8.12v3.843h-8.12v4.515h8.925v3.842H43.847zm30.433 16.12h-7.95l-1.254 3.59h-5.11l7.301-19.71h6.06l7.302 19.71h-5.11zm-6.681-3.657h5.4l-2.694-7.843zm15.645-12.463h5.083v15.869h8.925v3.842H83.244zm17.229 0h5.083v19.71h-5.083zm23.778.62v4.172q-1.624-.726-3.168-1.096-1.545-.37-2.918-.37-1.822 0-2.694.502-.87.502-.87 1.558 0 .792.58 1.241.594.436 2.139.753l2.165.435q3.288.66 4.674 2.007 1.386 1.347 1.386 3.829 0 3.26-1.94 4.858-1.928 1.585-5.902 1.585-1.875 0-3.763-.357-1.888-.356-3.776-1.056v-4.29q1.888 1.003 3.644 1.517 1.77.502 3.406.502 1.664 0 2.548-.554.885-.555.885-1.585 0-.924-.607-1.426-.595-.501-2.39-.897l-1.967-.436q-2.958-.634-4.33-2.02-1.36-1.386-1.36-3.736 0-2.945 1.9-4.529 1.902-1.584 5.466-1.584 1.624 0 3.34.25 1.717.238 3.552.727zm3.407-.62h18.166v3.841h-6.535v15.87h-5.083V140.6h-6.548zm20.794 0h5.083v19.71h-5.083zm23.778.62v4.172q-1.624-.726-3.169-1.096-1.545-.37-2.918-.37-1.822 0-2.693.502t-.871 1.558q0 .792.58 1.241.595.436 2.14.753l2.165.435q3.287.66 4.673 2.007 1.387 1.347 1.387 3.829 0 3.26-1.941 4.858-1.928 1.585-5.902 1.585-1.875 0-3.763-.357-1.887-.356-3.775-1.056v-4.29q1.888 1.003 3.643 1.517 1.77.502 3.407.502 1.663 0 2.548-.554.884-.555.884-1.585 0-.924-.607-1.426-.594-.501-2.39-.897l-1.967-.436q-2.957-.634-4.33-2.02-1.36-1.386-1.36-3.736 0-2.945 1.901-4.529t5.466-1.584q1.624 0 3.34.25 1.717.238 3.552.727zm21.388 18.008q-1.4.726-2.918 1.096-1.518.37-3.168.37-4.925 0-7.803-2.746-2.878-2.76-2.878-7.473 0-4.727 2.878-7.473 2.878-2.76 7.803-2.76 1.65 0 3.168.37 1.519.37 2.918 1.096v4.08q-1.413-.964-2.786-1.413-1.373-.449-2.891-.449-2.72 0-4.278 1.743-1.558 1.743-1.558 4.806 0 3.05 1.558 4.792 1.558 1.743 4.278 1.743 1.518 0 2.891-.449t2.786-1.412zm4.212-18.628h5.083v7.512h7.499v-7.513h5.083v19.712h-5.083v-8.357h-7.5v8.357h-5.082z" style="stroke-width:.675978" transform="scale(.88169 1.13419)" aria-label="IDEALISTISCH"/>
    </g>
</svg>
