<svg xmlns="http://www.w3.org/2000/svg" width="200" height="200" xml:space="preserve" style="fill-rule:evenodd;clip-rule:evenodd;stroke-linejoin:round;stroke-miterlimit:2">
    <path d="M100 3.75C100 1.68 98.32 0 96.25 0H3.75C1.68 0 0 1.68 0 3.75v92.5C0 98.32 1.68 100 3.75 100h92.5c2.07 0 3.75-1.68 3.75-3.75V3.75z" style="fill:#222" transform="scale(2)"/>
    <path d="M95 7.5A2.5 2.5 0 0 0 92.5 5h-85A2.5 2.5 0 0 0 5 7.5v85A2.5 2.5 0 0 0 7.5 95h85a2.5 2.5 0 0 0 2.5-2.5v-85z" style="fill:#099" transform="scale(2)"/>
    <path d="M40.943 81.211c-.785-.166-2.489-.715-2.934-.944a9.978 9.978 0 0 0-1.13-.441c-1.888-.62-3.448-1.693-4.398-3.025-1.324-1.854-5.596-9.607-5.602-10.163-.001-.118.156-.485.35-.817.859-1.469 1.259-3.039 1.038-4.072a6.028 6.028 0 0 1-.134-.981c0-.431-.071-.462-1.473-.637-.606-.076-1.257-.198-1.447-.272-.311-.12-.345-.194-.345-.738 0-.333.063-.645.141-.693.1-.062.114-.476.047-1.42-.289-4.107.125-5.86 1.814-7.668l.394-.421-.808-1.834c-.749-1.698-2.507-6.157-2.828-7.172-.238-.752-.611-2.646-.766-3.893-.082-.656-.201-1.397-.265-1.647-.063-.25-.115-.99-.115-1.646a23.8 23.8 0 0 0-.079-1.946l-.079-.754-.427.472c-.523.579-1.18.909-1.6.804-.171-.043-.54-.291-.821-.55l-.511-.471v-1.024c0-.599-.052-1.024-.126-1.024-.199 0-.143-1.411.067-1.688.27-.357.226-.755-.129-1.178-.173-.205-.314-.441-.314-.524 0-.083-.095-.312-.211-.508-.198-.335-.198-.406 0-1.117.116-.417.211-.972.211-1.233 0-.455-.027-.485-.609-.692-.818-.29-1.214-.623-1.656-1.394-.347-.605-.37-.731-.372-2 0-1.212.04-1.459.384-2.352.455-1.18 1.237-2.282 2.039-2.875.521-.385.597-.506.761-1.229.224-.982.791-1.723 1.692-2.214.521-.283.882-.366 1.993-.457.746-.061 1.476-.148 1.623-.194.205-.064.328.003.532.289.263.37 1.059.778 1.515.778.205 0 .228.07.168.516-.08.597.054.735.721.739.242.002.65.061.908.133.573.159 1.334-.015 1.666-.382.362-.4.44-.305.44.533-.001.933-.327 1.601-.783 1.602-.371 0-1.035.409-1.286.793-.286.437-.075.875.618 1.281.638.374.707.599.289.944-.276.228-.277.242-.062.627.283.508.298 2.128.025 2.9-.33.937-1.372 1.834-2.873 2.474l-.812.347.569.811c1.052 1.501 1.496 2.575 1.865 4.516.354 1.859 1.078 3.853 2.186 6.028 1.905 3.738 2.111 4.189 2.698 5.925.319.945.58 1.807.58 1.916 0 .108.057.197.126.197.191 0 5.683-.995 5.725-1.037.05-.049.303-2.089.303-2.437 0-.237-.432-.501-2.857-1.749-4.155-2.137-5.739-2.962-5.8-3.019-.03-.028-.001-.105.065-.171.075-.075.488-.031 1.122.122l2.572.617 3.678.885c1.159.28 2.182.51 2.273.51.216 0 1.835-1.227 1.835-1.391 0-.194-3.287-6.704-3.409-6.752-.059-.023-.107-.122-.107-.22 0-.097-.057-.177-.126-.177s-.125-.086-.125-.191c0-.186-.241-.69-.389-.814-.042-.035-.075-.158-.074-.273.002-.214.349.139 3.099 3.161.785.864 1.907 2.093 2.493 2.732l1.064 1.162h2.176l.331-1.602.912-4.427c.32-1.554.598-2.842.618-2.862.042-.042.134 1.407.322 5.06.07 1.382.159 2.91.197 3.397l.068.884.965.371c.531.205 1.002.372 1.047.372.096 0 5.629-5.116 6.239-5.769.47-.503.657-.569.56-.197-.036.138-.116.251-.177.251-.061 0-.111.085-.111.189 0 .103-.049.188-.11.188-.062 0-.144.099-.183.22-.07.214-.529 1.03-.935 1.664-.11.173-.891 1.516-1.735 2.985L53.4 35.899l1.108.762 2.103-.582c1.156-.32 3.171-.89 4.477-1.267 1.306-.376 2.415-.668 2.464-.648.049.019-1.598 1.137-3.662 2.484-2.664 1.739-3.734 2.504-3.693 2.637.032.104.214.613.403 1.131.308.845.346 1.128.369 2.763.026 1.775.036 1.842.442 2.7.36.762.422 1.039.465 2.081.042 1.037.012 1.275-.216 1.722-.344.674-.335.792.091 1.2.245.235.704.434 1.476.641 2.139.573 4.204 1.567 4.869 2.344.699.816 1.106 1.809 1.283 3.125.331 2.463.453 12.363.521 14.145l.07 1.833-.724 1.432c-.99 1.956-1.685 3.001-2.382 3.58-.324.269-.977.998-1.45 1.62-.474.621-1.106 1.363-1.404 1.647-1.07 1.021-3.298 2.71-4.484 3.399-.664.386-1.632.97-2.15 1.297-1.469.926-2.668 1.486-4.579 2.135-.97.33-2.33-7.803-3.024-7.554-1.291.462-3.042.836-3.825.816a6.758 6.758 0 0 1-1.005-.131zm1.226-30.905c.339-.362.532-.877.532-1.415 0-.384-.055-.451-.565-.676-.311-.137-.871-.539-1.245-.892l-.679-.643-1.361.423c-1.695.527-1.756.658-.729 1.573.505.45.972.725 1.624.957.504.179 1.163.466 1.465.639.668.382.633.38.958.034zm-2.031-6.199c.038-.146-.034-.485-.16-.754l-.23-.488-3.139-.028-3.139-.027.656.341c.418.218.799.546 1.051.907.218.311.677.855 1.021 1.209l.625.645 1.623-.77c1.178-.56 1.641-.843 1.692-1.035z" style="fill:#222;fill-rule:nonzero" transform="matrix(2 0 0 2 13 -2)"/>
    <path d="M2.75 70v25c0 5.817 4.683 1.25 10.5 1.25h73.5c5.817 0 10.5 4.567 10.5-1.25V70H2.75z" style="fill:#222;fill-rule:nonzero" transform="scale(2)"/>
    <g style="font-weight:700;font-size:27.8345px;line-height:1.25;font-family:sans-serif;-inkscape-font-specification:'sans-serif Bold';letter-spacing:0;word-spacing:0;fill:#fee;fill-opacity:1;stroke-width:.695862">
        <path d="M10.923 142.016h5.232v20.291h-5.232zm10.356 0h5.844l7.38 13.917v-13.917h4.96v20.291H33.62l-7.38-13.917v13.917h-4.961zm28.528 3.954v12.382h1.875q3.208 0 4.893-1.59 1.699-1.59 1.699-4.62 0-3.018-1.686-4.594-1.685-1.577-4.906-1.577zm-5.233-3.954h5.518q4.62 0 6.877.666 2.27.652 3.887 2.229 1.427 1.373 2.12 3.167.693 1.794.693 4.063 0 2.297-.693 4.105-.693 1.794-2.12 3.167-1.63 1.576-3.914 2.242-2.283.652-6.85.652h-5.518zm23.105 0h5.232v20.291H67.68zm7.937 0h5.26l5.382 14.977 5.368-14.977h5.26l-7.516 20.291h-6.238zm23.961 0h5.233v20.291h-5.233zm15.589 3.954v12.382h1.876q3.207 0 4.892-1.59 1.7-1.59 1.7-4.62 0-3.018-1.686-4.594-1.685-1.577-4.906-1.577zm-5.233-3.954h5.518q4.621 0 6.877.666 2.27.652 3.888 2.229 1.427 1.373 2.12 3.167.693 1.794.693 4.063 0 2.297-.693 4.105-.693 1.794-2.12 3.167-1.631 1.576-3.915 2.242-2.283.652-6.85.652h-5.518zm23.105 0h5.233v12.164q0 2.514.815 3.602.83 1.073 2.691 1.073 1.876 0 2.691-1.073.83-1.088.83-3.602v-12.164h5.232v12.164q0 4.308-2.161 6.415t-6.592 2.107q-4.417 0-6.578-2.107-2.16-2.107-2.16-6.415zm22.602 0h14.121v3.955h-8.888v3.778h8.358v3.955h-8.358v4.648h9.187v3.955h-14.42zm19.014 0h5.233v16.336h9.187v3.955h-14.42zm17.736 0h5.233v16.336h9.188v3.955h-14.42z" style="stroke-width:.695862" transform="scale(.91554 1.09225)" aria-label="INDIVIDUELL"/>
    </g>
</svg>
