<svg xmlns="http://www.w3.org/2000/svg" width="200" height="200" xml:space="preserve" style="fill-rule:evenodd;clip-rule:evenodd;stroke-linejoin:round;stroke-miterlimit:2">
    <path d="M100 3.75C100 1.68 98.32 0 96.25 0H3.75C1.68 0 0 1.68 0 3.75v92.5C0 98.32 1.68 100 3.75 100h92.5c2.07 0 3.75-1.68 3.75-3.75V3.75z" style="fill:#222" transform="scale(2)"/>
    <path d="M95 7.5A2.5 2.5 0 0 0 92.5 5h-85A2.5 2.5 0 0 0 5 7.5v85A2.5 2.5 0 0 0 7.5 95h85a2.5 2.5 0 0 0 2.5-2.5v-85z" style="fill:#ff7400" transform="scale(2)"/>
    <path d="M467.4 499.8c0-38.3-12.8-71-38.3-98.1-25.5-27.1-56.3-40.7-92.4-40.7-36 0-66.8 13.6-92.4 40.7-25.5 27.1-38.3 59.8-38.3 98.1s12.8 71 38.3 98.1c25.5 27.1 56.3 40.7 92.4 40.7 36 0 66.8-13.6 92.4-40.7 25.6-27.1 38.3-59.8 38.3-98.1zm391.9 277.5c0-18.8-6.5-35.1-19.4-48.8-12.9-13.7-28.2-20.6-45.9-20.6s-33 6.9-45.9 20.6c-12.9 13.7-19.4 30-19.4 48.8 0 19.1 6.4 35.5 19.1 49.1 12.8 13.6 28.2 20.3 46.2 20.3 18 0 33.4-6.8 46.2-20.3 12.7-13.6 19.1-29.9 19.1-49.1zm0-555.1c0-18.8-6.5-35.1-19.4-48.8-12.9-13.7-28.2-20.6-45.9-20.6s-33 6.9-45.9 20.6c-12.9 13.7-19.4 30-19.4 48.8 0 19.1 6.4 35.5 19.1 49.1 12.8 13.6 28.2 20.3 46.2 20.3 18 0 33.4-6.8 46.2-20.3 12.7-13.6 19.1-30 19.1-49.1zM663.4 450.5v100.3c0 3.6-1.2 7.1-3.6 10.6-2.4 3.4-5.1 5.3-8.2 5.7l-79.1 13c-3.7 12.7-9.2 26.4-16.3 41.2 11.6 17.4 26.9 38.2 45.9 62.4 2.4 3.6 3.6 7.2 3.6 10.9 0 4.3-1.2 7.8-3.6 10.3-7.8 10.8-21.8 27-42.1 48.5s-33.6 32.2-40.1 32.2c-3.7 0-7.3-1.3-10.7-3.8L450.5 733c-12.6 6.9-25.7 12.5-39.3 16.8-3.7 39-7.6 67-11.7 84-2.4 8.7-7.5 13-15.3 13h-94.9c-3.7 0-7.1-1.4-10.2-4.1-3.1-2.7-4.8-5.9-5.1-9.5l-11.7-82.9c-11.6-3.6-24.3-9.2-38.3-16.8l-60.2 48.3c-2.4 2.6-5.8 3.8-10.2 3.8-3.7 0-7.3-1.4-10.7-4.3-49-48.1-73.5-77-73.5-86.8 0-3.2 1.2-6.7 3.6-10.3 3.4-5.1 10.4-14.6 20.9-28.7 10.6-14.1 18.6-25.1 24-33.1-7.8-15.9-13.8-30.7-17.9-44.4l-77.6-13c-3.4-.4-6.3-2.1-8.7-5.2-2.4-3.1-3.6-6.6-3.6-10.6V448.9c0-3.6 1.2-7.1 3.6-10.6 2.4-3.4 5.1-5.3 8.2-5.7l79.1-13c3.7-12.7 9.2-26.4 16.3-41.2-11.7-17.4-27-38.2-46-62.4-2.4-4-3.6-7.6-3.6-10.9 0-4.3 1.2-8 3.6-10.9 7.5-10.8 21.4-26.9 41.8-48.3s33.9-32 40.3-32c3.7 0 7.3 1.3 10.7 3.8l58.7 48.8c11.6-6.5 24.7-12.3 39.3-17.4 3.7-39 7.6-66.9 11.7-83.5 2.4-8.7 7.5-13 15.3-13H384c3.7 0 7.1 1.4 10.2 4.1 3.1 2.7 4.8 5.9 5.1 9.5l11.7 82.9c11.6 3.6 24.3 9.2 38.3 16.8l60.2-48.3c2.7-2.6 6.1-3.8 10.2-3.8 3.7 0 7.3 1.4 10.7 4.3 49 48.1 73.5 77 73.5 86.8 0 3.2-1.2 6.7-3.6 10.3-4.1 5.8-11.2 15.5-21.4 29.3-10.2 13.7-17.9 24.6-23 32.5 7.8 17.4 13.6 32.2 17.4 44.4l77.6 12.4c3.4.7 6.3 2.6 8.7 5.7 2.5 3.4 3.7 6.9 3.8 11zm326.5 288.9v75.9c0 5.8-25.3 11.4-76 16.8-4.1 9.8-9.2 19.1-15.3 28.2 17.3 40.8 26 65.8 26 74.8 0 1.5-.7 2.7-2.1 3.8-41.5 25.7-62.6 38.5-63.3 38.5-2.7 0-10.5-8.5-23.5-25.5s-21.8-29.3-26.5-36.9c-6.8.7-11.9 1.1-15.3 1.1-3.4 0-8.5-.4-15.3-1.1-4.8 7.6-13.6 19.9-26.5 36.9s-20.7 25.5-23.5 25.5c-.7 0-21.8-12.8-63.3-38.5-1.4-1.1-2.1-2.4-2.1-3.8 0-9 8.7-34 26-74.8-6.1-9-11.2-18.4-15.3-28.2-50.7-5.4-76-11-76-16.8v-75.9c0-5.8 25.3-11.4 76-16.8 4.4-10.5 9.5-19.9 15.3-28.2-17.3-40.8-26-65.8-26-74.8 0-1.5.7-2.7 2.1-3.8 1.4-.7 7.3-4.4 17.9-10.9 10.6-6.5 20.6-12.7 30.1-18.5 9.5-5.8 14.6-8.7 15.3-8.7 2.7 0 10.5 8.4 23.5 25.2 13 16.8 21.8 29 26.5 36.6 6.8-.7 11.9-1.1 15.3-1.1 3.4 0 8.5.4 15.3 1.1 17.3-25.7 33-45.9 46.9-60.7l3.1-1.1c1.4 0 22.5 12.7 63.3 38 1.4 1.1 2.1 2.4 2.1 3.8 0 9-8.7 34-26 74.8 5.8 8.3 10.9 17.7 15.3 28.2 50.8 5.4 76.1 11 76 16.9zm0-555.2v75.9c0 5.8-25.3 11.4-76 16.8-4.1 9.8-9.2 19.1-15.3 28.2 17.3 40.8 26 65.8 26 74.8 0 1.5-.7 2.7-2.1 3.8-41.5 25.7-62.6 38.5-63.3 38.5-2.7 0-10.5-8.5-23.5-25.5s-21.8-29.3-26.5-36.9c-6.8.7-11.9 1.1-15.3 1.1-3.4 0-8.5-.4-15.3-1.1-4.8 7.6-13.6 19.9-26.5 36.9s-20.7 25.5-23.5 25.5c-.7 0-21.8-12.8-63.3-38.5-1.4-1.1-2.1-2.4-2.1-3.8 0-9 8.7-34 26-74.8-6.1-9-11.2-18.4-15.3-28.2-50.7-5.4-76-11-76-16.8v-75.9c0-5.8 25.3-11.4 76-16.8 4.4-10.5 9.5-19.9 15.3-28.2-17.3-40.8-26-65.8-26-74.8 0-1.5.7-2.7 2.1-3.8 1.4-.7 7.3-4.4 17.9-10.9 10.6-6.5 20.6-12.7 30.1-18.5 9.5-5.8 14.6-8.7 15.3-8.7 2.7 0 10.5 8.4 23.5 25.2 13 16.8 21.8 29 26.5 36.6 6.8-.7 11.9-1.1 15.3-1.1 3.4 0 8.5.4 15.3 1.1 17.3-25.7 33-45.9 46.9-60.7l3.1-1.1c1.4 0 22.5 12.7 63.3 38 1.4 1.1 2.1 2.4 2.1 3.8 0 9-8.7 34-26 74.8 5.8 8.3 10.9 17.7 15.3 28.2 50.8 5.5 76.1 11.1 76 16.9z" style="fill:#222;fill-rule:nonzero" transform="matrix(.129 0 0 .129 35.5 24.5)"/>
    <path d="M2.75 70v25c0 5.817 4.683 1.25 10.5 1.25h73.5c5.817 0 10.5 4.567 10.5-1.25V70H2.75z" style="fill:#222;fill-rule:nonzero" transform="scale(2)"/>
    <g style="font-weight:700;font-size:27.6212px;line-height:1.25;font-family:sans-serif;-inkscape-font-specification:'sans-serif Bold';letter-spacing:0;word-spacing:0;fill:#fee;fill-opacity:1;stroke-width:.69053">
        <path d="M11.1 139.733h5.193v20.136H11.1zm10.278 0h5.799l7.323 13.81v-13.81h4.923v20.136h-5.8l-7.323-13.81v13.81h-4.922zm28.309 3.925v12.286h1.86q3.184 0 4.856-1.578 1.686-1.578 1.686-4.585 0-2.994-1.672-4.559-1.673-1.564-4.87-1.564zm-5.193-3.925h5.476q4.585 0 6.824.66 2.252.648 3.857 2.213 1.417 1.362 2.104 3.142.688 1.78.688 4.033 0 2.279-.688 4.073-.687 1.78-2.104 3.142-1.618 1.565-3.884 2.225-2.266.648-6.797.648h-5.476zm22.928 0h5.192v12.07q0 2.496.81 3.575.822 1.065 2.67 1.065 1.861 0 2.67-1.065.823-1.08.823-3.574v-12.071h5.192v12.07q0 4.276-2.144 6.367-2.144 2.09-6.541 2.09-4.383 0-6.528-2.09-2.144-2.091-2.144-6.366zm36.441.634v4.262q-1.658-.742-3.236-1.12-1.578-.377-2.981-.377-1.861 0-2.751.512-.89.513-.89 1.592 0 .809.593 1.267.607.445 2.185.77l2.212.444q3.358.674 4.774 2.05t1.416 3.911q0 3.332-1.982 4.964-1.97 1.618-6.029 1.618-1.915 0-3.844-.364-1.928-.364-3.857-1.08v-4.382q1.929 1.025 3.722 1.55 1.808.513 3.48.513 1.7 0 2.603-.566.904-.567.904-1.619 0-.944-.62-1.456-.608-.513-2.442-.917l-2.01-.446q-3.02-.647-4.423-2.063-1.39-1.416-1.39-3.817 0-3.007 1.943-4.626 1.942-1.618 5.583-1.618 1.66 0 3.412.256 1.754.243 3.628.742zm3.48-.634h18.558v3.925h-6.676v16.21h-5.192v-16.21h-6.69zm28.619 8.928q1.632 0 2.334-.607.714-.607.714-1.996 0-1.375-.714-1.969-.702-.593-2.334-.593h-2.185v5.165zm-2.185 3.588v7.62h-5.192v-20.136h7.93q3.979 0 5.827 1.335 1.86 1.335 1.86 4.222 0 1.996-.97 3.277-.958 1.281-2.9 1.888 1.066.243 1.902 1.106.85.85 1.713 2.59l2.818 5.718h-5.53l-2.454-5.004q-.742-1.51-1.51-2.063-.756-.553-2.023-.553zm16.077-12.516h5.192v20.136h-5.192zm10.276 0h14.014v3.925h-8.82v3.749h8.294v3.925h-8.295v4.612h9.117v3.925h-14.31zm18.87 0h5.192v16.211h9.117v3.925h-14.31zm17.6 0h5.192v16.211h9.117v3.925H196.6z" style="stroke-width:.69053" transform="scale(.90086 1.11005)" aria-label="INDUSTRIELL"/>
    </g>
</svg>
