<svg xmlns="http://www.w3.org/2000/svg" width="200" height="200" xml:space="preserve" style="fill-rule:evenodd;clip-rule:evenodd;stroke-linejoin:round;stroke-miterlimit:2">
    <path d="M100 3.75C100 1.68 98.32 0 96.25 0H3.75C1.68 0 0 1.68 0 3.75v92.5C0 98.32 1.68 100 3.75 100h92.5c2.07 0 3.75-1.68 3.75-3.75V3.75z" style="fill:#222" transform="scale(2)"/>
    <path d="M95 7.5A2.5 2.5 0 0 0 92.5 5h-85A2.5 2.5 0 0 0 5 7.5v85A2.5 2.5 0 0 0 7.5 95h85a2.5 2.5 0 0 0 2.5-2.5v-85z" style="fill:#048cf4" transform="scale(2)"/>
    <path d="M2.75 70v25c0 5.817 4.683 1.25 10.5 1.25h73.5c5.817 0 10.5 4.567 10.5-1.25V70H2.75z" style="fill:#222;fill-rule:nonzero" transform="scale(2)"/>
    <path d="m35.536 70-.068-3.048-2.319-.385c-2.483-.412-5.779-1.37-7.566-2.199-2.93-1.36-5.946-4.135-6.99-6.434-.552-1.214-.668-1.8-.663-3.362.006-2.26.566-3.545 2.093-4.804 1.579-1.301 3.386-1.917 5.682-1.936 2.245-.019 3.658.436 5.14 1.657 4.83 3.977 2.209 10.567-4.464 11.218l-1.564.153.681.648c1.294 1.232 4.211 2.369 7.846 3.058 2.51.476 2.246 1.613 2.246-9.663v-9.909l-1.281-.535-3.401-1.422c-5.467-2.29-9.288-5.643-10.713-9.402-1.116-2.944-.782-7.737.756-10.83 2.141-4.307 7.111-7.588 13.236-8.737l1.403-.264V8.048h1.953v5.565h4.881V8.048h2.197v2.894c0 1.591.082 2.894.183 2.895.809.008 3.602.558 5.112 1.008 6.226 1.853 9.913 5.129 10.264 9.117.156 1.764-.337 3.114-1.604 4.393-1.436 1.45-2.502 1.839-5.047 1.84-2.009.002-2.31-.057-3.532-.689-1.618-.837-2.783-2.282-3.195-3.959-.26-1.059-.235-1.374.217-2.731.539-1.617 1.06-2.211 2.893-3.296.765-.452 1.361-.612 2.378-.64.747-.019 1.358-.11 1.359-.2.007-.584-3.878-2.147-6.466-2.601-.805-.142-1.712-.306-2.016-.365l-.552-.107.128 18.289 2.394.859c5.182 1.859 9.681 4.214 12.093 6.332 3.343 2.934 4.391 4.891 4.6 8.588.229 4.056-.593 7.035-2.779 10.063-1.972 2.733-4.813 4.54-9.195 5.848-1.457.435-3.681.91-4.942 1.055l-2.293.264v6.143h-2.197v-6.01h-4.881v6.01h-1.939L35.536 70zm5.973-4.963.915-.003V47.273l-2.198-.803c-1.209-.441-2.308-.802-2.441-.802-.157 0-.242 3.417-.242 9.67v9.671l1.037.089c.57.049 1.257.056 1.525.016.269-.04.9-.075 1.404-.076v-.001zm5.789-1.284c1.835-.789 3.971-2.684 4.656-4.13.759-1.603.768-4.275.021-5.816-1.036-2.136-2.747-3.568-6.126-5.13l-1.228-.568v16.528l.663-.151c.365-.084 1.271-.414 2.014-.733zm-4.874-39.455v-8.904l-1.525.002c-.839.002-1.939.065-2.444.141l-.918.139.128 16.047.61.163a59.17 59.17 0 0 1 2.318.731c.94.313 1.736.572 1.77.577.034.004.061-3.999.061-8.896zm-6.834-.779c0-8.232.151-7.757-2.094-6.582-1.828.956-3.589 2.819-4.12 4.357-.902 2.617-.163 4.947 2.235 7.043.895.782 3.42 2.382 3.796 2.405.101.006.183-3.244.183-7.223z" style="fill:#222;fill-rule:nonzero" transform="matrix(2 0 0 2 18.203 2)"/>
    <g aria-label="KAPITALISTISCH" style="font-weight:700;font-size:24.8836px;line-height:1.25;font-family:sans-serif;-inkscape-font-specification:'sans-serif Bold';text-align:center;letter-spacing:0;word-spacing:0;text-anchor:middle;fill:#fee;fill-opacity:1;stroke-width:.62209">
        <path d="M12.335 109.548h4.678v6.622l6.744-6.622h5.43l-8.735 8.59 9.635 9.55H24.23l-7.217-7.144v7.145h-4.678z" style="stroke-width:.62209" transform="matrix(.81065 0 0 1.23358 0 20)"/>
        <path d="M42.626 124.384H35.31l-1.154 3.305h-4.702l6.72-18.14h5.576l6.72 18.14h-4.703zm-6.148-3.366h4.97l-2.48-7.217zM50.876 109.548h7.764q3.463 0 5.31 1.543 1.858 1.531 1.858 4.375 0 2.855-1.859 4.398-1.846 1.53-5.31 1.53h-3.085v6.295h-4.678zm4.678 3.39v5.067h2.588q1.36 0 2.102-.656.74-.668.74-1.883 0-1.215-.74-1.872-.742-.656-2.102-.656zM69.113 109.548h4.678v18.14h-4.678zM76.209 109.548h16.719v3.536h-6.015v14.605h-4.678v-14.605H76.21zM104.422 124.384h-7.315l-1.154 3.305h-4.702l6.719-18.14h5.577l6.719 18.14h-4.702zm-6.148-3.366h4.97l-2.48-7.217zM112.672 109.548h4.678v14.605h8.213v3.536h-12.891zM128.528 109.548h4.678v18.14h-4.678zM150.41 110.12v3.839q-1.494-.668-2.916-1.009-1.421-.34-2.685-.34-1.677 0-2.479.462t-.802 1.434q0 .729.535 1.142.547.4 1.968.692l1.993.401q3.025.608 4.301 1.847 1.276 1.24 1.276 3.524 0 3-1.786 4.471-1.774 1.458-5.431 1.458-1.726 0-3.463-.328-1.738-.328-3.475-.972v-3.949q1.737.924 3.353 1.397 1.629.462 3.135.462 1.531 0 2.345-.51.814-.51.814-1.458 0-.85-.559-1.312-.546-.462-2.199-.827l-1.81-.4q-2.722-.584-3.986-1.86-1.251-1.275-1.251-3.438 0-2.71 1.75-4.168 1.75-1.458 5.03-1.458 1.494 0 3.074.231 1.58.219 3.268.668zM153.545 109.548h16.719v3.536h-6.015v14.605h-4.678v-14.605h-6.026zM172.682 109.548h4.677v18.14h-4.677zM194.564 110.12v3.839q-1.494-.668-2.916-1.009-1.422-.34-2.685-.34-1.677 0-2.479.462t-.802 1.434q0 .729.535 1.142.547.4 1.968.692l1.993.401q3.025.608 4.301 1.847 1.276 1.24 1.276 3.524 0 3-1.786 4.471-1.774 1.458-5.431 1.458-1.726 0-3.463-.328-1.738-.328-3.475-.972v-3.949q1.737.924 3.353 1.397 1.628.462 3.135.462 1.53 0 2.345-.51.814-.51.814-1.458 0-.85-.559-1.312-.547-.462-2.199-.827l-1.81-.4q-2.722-.584-3.986-1.86-1.251-1.275-1.251-3.438 0-2.71 1.75-4.168 1.75-1.458 5.03-1.458 1.494 0 3.074.231 1.58.219 3.268.668zM214.247 126.692q-1.288.669-2.685 1.009-1.397.34-2.916.34-4.532 0-7.18-2.527-2.65-2.54-2.65-6.877 0-4.35 2.65-6.877 2.648-2.54 7.18-2.54 1.519 0 2.916.34t2.685 1.009v3.754q-1.3-.887-2.563-1.3-1.264-.413-2.661-.413-2.503 0-3.937 1.604-1.434 1.604-1.434 4.423 0 2.806 1.434 4.41t3.937 1.604q1.397 0 2.66-.413 1.264-.413 2.564-1.3zM218.123 109.548h4.678v6.914h6.901v-6.914h4.678v18.14h-4.678v-7.69h-6.9v7.69h-4.679z" style="stroke-width:.62209" transform="matrix(.81065 0 0 1.23358 0 20)"/>
    </g>
</svg>
