<svg xmlns="http://www.w3.org/2000/svg" width="200" height="200" xml:space="preserve" style="fill-rule:evenodd;clip-rule:evenodd;stroke-linejoin:round;stroke-miterlimit:2">
    <path d="M100 3.75C100 1.68 98.32 0 96.25 0H3.75C1.68 0 0 1.68 0 3.75v92.5C0 98.32 1.68 100 3.75 100h92.5c2.07 0 3.75-1.68 3.75-3.75V3.75z" style="fill:#222" transform="scale(2)"/>
    <path d="M95 7.5A2.5 2.5 0 0 0 92.5 5h-85A2.5 2.5 0 0 0 5 7.5v85A2.5 2.5 0 0 0 7.5 95h85a2.5 2.5 0 0 0 2.5-2.5v-85z" style="fill:#ffbf00" transform="scale(2)"/>
    <path d="M872.6 9.2H127.4C62.7 9.2 10 61.8 10 126.6v746.9c0 64.7 52.7 117.4 117.4 117.4h745.2c64.7 0 117.4-52.7 117.4-117.4v-747C990 61.8 937.3 9.2 872.6 9.2zm77.5 864.2c0 42.7-34.8 77.5-77.5 77.5H127.4c-42.7 0-77.5-34.8-77.5-77.5V126.5c0-42.7 34.8-77.5 77.5-77.5h745.2c42.7 0 77.5 34.8 77.5 77.5v746.9z" style="fill:#222;fill-rule:nonzero" transform="rotate(-90 95 59) scale(.128)"/>
    <path d="M283.9 204.5v-30.9c0-11-8.9-19.9-19.9-19.9-11 0-19.9 8.9-19.9 19.9v30.9c-47.9 9.4-84.3 51.6-84.3 102.2s36.3 92.9 84.3 102.2V830c0 11 8.9 19.9 19.9 19.9 11 0 19.9-8.9 19.9-19.9V408.9c47.9-9.3 84.3-51.6 84.3-102.2-.1-50.6-36.4-92.8-84.3-102.2zm-20 166.6c-35.5 0-64.3-28.9-64.3-64.3 0-35.5 28.9-64.3 64.3-64.3s64.3 28.9 64.3 64.3-28.8 64.3-64.3 64.3zm259.7 190.8V173.7c0-11-8.9-19.9-19.9-19.9-11 0-19.9 8.9-19.9 19.9v388.2c-47.9 9.3-84.3 51.6-84.3 102.2s36.3 92.9 84.3 102.2v63.8c0 11 8.9 19.9 19.9 19.9 11 0 19.9-8.9 19.9-19.9v-63.8c47.9-9.4 84.3-51.6 84.3-102.2s-36.3-92.8-84.3-102.2zm-19.9 166.5c-35.5 0-64.3-28.9-64.3-64.3s28.9-64.3 64.3-64.3c35.5 0 64.3 28.9 64.3 64.3s-28.9 64.3-64.3 64.3zm259.7-421.7v-133c0-11-8.9-19.9-19.9-19.9-11 0-19.9 8.9-19.9 19.9v133c-47.9 9.3-84.3 51.6-84.3 102.2s36.3 92.9 84.3 102.2v319c0 11 8.9 19.9 19.9 19.9 11 0 19.9-8.9 19.9-19.9v-319c47.9-9.3 84.3-51.6 84.3-102.2 0-50.7-36.4-92.9-84.3-102.2zm0 163c-6.3 2.1-12.9 3.5-19.9 3.5-7 0-13.6-1.4-19.9-3.5-25.7-8.5-44.4-32.4-44.4-60.8 0-28.5 18.7-52.4 44.4-60.8 6.3-2.1 12.9-3.5 19.9-3.5 7 0 13.6 1.4 19.9 3.5 25.7 8.5 44.4 32.4 44.4 60.8s-18.8 52.3-44.4 60.8z" style="fill:#222;fill-rule:nonzero" transform="rotate(-90 95 59) scale(.128)"/>
    <path d="M2.75 70v25c0 5.817 4.683 1.25 10.5 1.25h73.5c5.817 0 10.5 4.567 10.5-1.25V70H2.75z" style="fill:#222;fill-rule:nonzero" transform="scale(2)"/>
    <g style="font-weight:700;font-size:22.2016px;line-height:1.25;font-family:sans-serif;-inkscape-font-specification:'sans-serif Bold';letter-spacing:0;word-spacing:0;fill:#fee;fill-opacity:1;stroke-width:.555043">
        <path d="M13.805 112.401h6.927q3.09 0 4.738 1.377 1.658 1.366 1.658 3.903 0 2.547-1.658 3.924-1.648 1.366-4.738 1.366H17.98v5.615h-4.174zm4.174 3.025v4.52h2.309q1.214 0 1.875-.585.662-.596.662-1.68t-.662-1.67q-.661-.585-1.875-.585zm19.881 10.212h-6.526l-1.03 2.948H26.11l5.995-16.185h4.976l5.995 16.185H38.88zm-5.485-3.003h4.434l-2.211-6.44zm18.776-3.057q1.312 0 1.876-.488.574-.488.574-1.604 0-1.106-.574-1.583-.564-.477-1.876-.477h-1.756v4.152zm-1.756 2.883v6.125h-4.174v-16.185h6.375q3.198 0 4.683 1.074 1.496 1.073 1.496 3.393 0 1.604-.78 2.634-.77 1.03-2.331 1.518.856.195 1.528.889.683.683 1.377 2.081l2.265 4.596H55.39l-1.973-4.021q-.596-1.215-1.214-1.66-.607-.444-1.626-.444zm9.995-10.06h14.917v3.155H68.94v13.03h-4.174v-13.03H59.39zm17.074 0h4.174v16.185h-4.174zm8.261 0h4.173v5.908l6.017-5.908h4.846l-7.795 7.665 8.597 8.52h-5.225l-6.44-6.374v6.374h-4.173zm16.813 0h4.174v9.703q0 2.005.65 2.872.662.857 2.147.857 1.496 0 2.146-.857.662-.867.662-2.872V112.4h4.173v9.703q0 3.436-1.723 5.116-1.724 1.68-5.258 1.68-3.523 0-5.247-1.68-1.724-1.68-1.724-5.116zm18.028 0h4.174v13.03h7.328v3.155h-11.502zm23.969 13.237h-6.526l-1.03 2.948h-4.195l5.995-16.185h4.975l5.995 16.185h-4.195zm-5.485-3.003h4.433l-2.211-6.44zm18.776-3.057q1.311 0 1.875-.488.575-.488.575-1.604 0-1.106-.575-1.583-.564-.477-1.875-.477h-1.757v4.152zm-1.757 2.883v6.125h-4.173v-16.185h6.374q3.198 0 4.683 1.074 1.496 1.073 1.496 3.393 0 1.604-.78 2.634-.77 1.03-2.331 1.518.856.195 1.528.889.683.683 1.377 2.081l2.266 4.596h-4.445l-1.973-4.021q-.596-1.215-1.214-1.66-.607-.444-1.626-.444zm12.922-10.06h4.174v16.185h-4.174zm19.524.509v3.426q-1.333-.596-2.601-.9-1.269-.303-2.396-.303-1.496 0-2.212.412-.715.412-.715 1.28 0 .65.477 1.018.488.358 1.756.618l1.778.358q2.7.542 3.837 1.648 1.139 1.105 1.139 3.144 0 2.677-1.594 3.989-1.583 1.3-4.846 1.3-1.539 0-3.09-.292-1.55-.293-3.1-.867v-3.523q1.55.823 2.992 1.246 1.453.412 2.797.412 1.366 0 2.093-.455.726-.455.726-1.301 0-.759-.499-1.17-.488-.413-1.962-.738l-1.615-.358q-2.429-.52-3.556-1.658-1.117-1.139-1.117-3.068 0-2.418 1.562-3.718 1.56-1.301 4.488-1.301 1.333 0 2.742.206 1.41.195 2.916.596zm2.797-.509h14.917v3.155h-5.366v13.03h-4.174v-13.03h-5.377zm17.074 0h4.174v16.185h-4.174zm19.524.509v3.426q-1.333-.596-2.602-.9-1.268-.303-2.395-.303-1.496 0-2.212.412-.715.412-.715 1.28 0 .65.477 1.018.488.358 1.756.618l1.778.358q2.699.542 3.837 1.648 1.139 1.105 1.139 3.144 0 2.677-1.594 3.989-1.583 1.3-4.846 1.3-1.54 0-3.09-.292-1.55-.293-3.1-.867v-3.523q1.55.823 2.992 1.246 1.453.412 2.797.412 1.366 0 2.092-.455.727-.455.727-1.301 0-.759-.499-1.17-.488-.413-1.962-.738l-1.615-.358q-2.429-.52-3.556-1.658-1.117-1.139-1.117-3.068 0-2.418 1.561-3.718 1.561-1.301 4.488-1.301 1.334 0 2.743.206 1.41.195 2.916.596zm17.562 14.787q-1.15.597-2.396.9-1.246.304-2.602.304-4.043 0-6.406-2.255-2.364-2.266-2.364-6.136 0-3.88 2.364-6.136 2.363-2.265 6.406-2.265 1.356 0 2.602.303 1.247.304 2.396.9v3.35q-1.16-.792-2.287-1.16-1.128-.369-2.374-.369-2.234 0-3.513 1.431t-1.279 3.946q0 2.504 1.28 3.935 1.278 1.431 3.512 1.431 1.246 0 2.374-.368 1.127-.369 2.287-1.16zm3.458-15.296h4.174v6.169h6.157v-6.17h4.174v16.185h-4.174v-6.862h-6.157v6.862h-4.174z" style="stroke-width:.555043" transform="scale(.72436 1.38052)" aria-label="PARTIKULARISTISCH"/>
    </g>
</svg>
