<svg xmlns="http://www.w3.org/2000/svg" width="200" height="200" xml:space="preserve" style="fill-rule:evenodd;clip-rule:evenodd;stroke-linejoin:round;stroke-miterlimit:2">
    <path d="M100 3.75C100 1.68 98.32 0 96.25 0H3.75C1.68 0 0 1.68 0 3.75v92.5C0 98.32 1.68 100 3.75 100h92.5c2.07 0 3.75-1.68 3.75-3.75V3.75z" style="fill:#222" transform="scale(2)"/>
    <path d="M95 7.5A2.5 2.5 0 0 0 92.5 5h-85A2.5 2.5 0 0 0 5 7.5v85A2.5 2.5 0 0 0 7.5 95h85a2.5 2.5 0 0 0 2.5-2.5v-85z" style="fill:#ff4900" transform="scale(2)"/>
    <path d="M2.75 70v25c0 5.817 4.683 1.25 10.5 1.25h73.5c5.817 0 10.5 4.567 10.5-1.25V70H2.75z" style="fill:#222;fill-rule:nonzero" transform="scale(2)"/>
    <path d="M10 372.5h405a9.996 9.996 0 0 0 7.071-2.929l65-65c1.912-1.913 2.904-4.47 2.905-7.071H490v-245c0-5.522-4.477-10-10-10H10c-5.523 0-10 4.478-10 10v310c0 5.522 4.477 10 10 10zm415-34.143V307.5h30.858L425 338.357zM20 62.5h450v225h-55c-5.523 0-10 4.478-10 10v55H20v-290z" style="fill:#222;fill-rule:nonzero" transform="translate(33.923 10) scale(.27143)"/>
    <path d="M350 92.5H250c-5.523 0-10 4.478-10 10v15h-25c-5.523 0-10 4.478-10 10v75h-80v-35h55c5.523 0 10-4.478 10-10v-60c0-5.522-4.477-10-10-10H60c-5.523 0-10 4.478-10 10v60c0 5.522 4.477 10 10 10h45v45c0 5.522 4.477 10 10 10h90v70c0 5.522 4.477 10 10 10h25v10c0 5.522 4.477 10 10 10h100c5.523 0 10-4.478 10-10v-50c0-5.522-4.477-10-10-10H250c-5.523 0-10 4.478-10 10v20h-15v-60h15v10c0 5.522 4.477 10 10 10h100c5.523 0 10-4.478 10-10v-50c0-5.522-4.477-10-10-10H250c-5.523 0-10 4.478-10 10v20h-15v-65h15v15c0 5.522 4.477 10 10 10h100c5.523 0 10-4.478 10-10v-50c0-5.522-4.477-10-10-10zm-280 55v-40h100v40H70zm190 125h80v30h-80v-30zm0-80h80v30h-80v-30zm80-50h-80v-30h80v30z" style="fill:#222;fill-rule:nonzero" transform="translate(33.923 10) scale(.27143)"/>
    <path style="fill:#222" d="M50 247.5h75v20H50zm0 30h75v20H50zm0 30h130v20H50zm85-60h20v20h-20zm245-155h25v20h-25zm40 0h25v20h-25zm-40 30h25v20h-25zm40 0h25v20h-25zm-40 30h25v20h-25zm40 0h25v20h-25zm-40 30h25v20h-25zm40 0h25v20h-25z" transform="translate(33.923 10) scale(.27143)"/>
    <path d="m483.162 408.013-60-20a9.983 9.983 0 0 0-3.162-.498v-.015H10c-5.523 0-10 4.478-10 10v40c0 5.522 4.477 10 10 10h410.001a9.995 9.995 0 0 0 3.161-.513l60-20a10.001 10.001 0 0 0 0-18.974zM60 427.5H20v-20h40v20zm350 0H80v-20h330v20zm20-3.874v-12.252l18.377 6.126L430 423.626z" style="fill:#222;fill-rule:nonzero" transform="translate(33.923 10) scale(.27143)"/>
    <g aria-label="SOZIALISTISCH" style="font-weight:700;font-size:26.1209px;line-height:1.25;font-family:sans-serif;-inkscape-font-specification:'sans-serif Bold';text-align:center;letter-spacing:0;word-spacing:0;text-anchor:middle;fill:#fee;fill-opacity:1;stroke-width:.653022">
        <path d="M26.805 130.19v4.031q-1.568-.701-3.06-1.058-1.493-.357-2.82-.357-1.76 0-2.601.484-.842.485-.842 1.505 0 .765.561 1.2.574.42 2.066.726l2.092.421q3.176.638 4.515 1.939 1.34 1.3 1.34 3.698 0 3.15-1.875 4.694-1.863 1.53-5.702 1.53-1.81 0-3.635-.344-1.824-.344-3.647-1.02v-4.145q1.823.969 3.52 1.466 1.709.485 3.29.485 1.607 0 2.462-.536.855-.535.855-1.53 0-.893-.587-1.378-.574-.484-2.309-.867l-1.9-.42q-2.857-.613-4.184-1.952-1.313-1.34-1.313-3.61 0-2.844 1.836-4.374 1.837-1.53 5.28-1.53 1.57 0 3.228.241 1.658.23 3.43.702zM41.065 132.806q-2.245 0-3.482 1.658t-1.237 4.668q0 2.997 1.237 4.655 1.237 1.658 3.482 1.658 2.257 0 3.495-1.658 1.237-1.658 1.237-4.655 0-3.01-1.237-4.668-1.238-1.658-3.495-1.658zm0-3.559q4.591 0 7.193 2.627 2.602 2.628 2.602 7.258 0 4.617-2.602 7.244-2.602 2.628-7.193 2.628-4.579 0-7.194-2.628-2.601-2.627-2.601-7.244 0-4.63 2.601-7.258 2.615-2.627 7.194-2.627zM53.64 129.591h16.007v2.972l-10.216 12.36h10.51v3.71H53.347v-2.971l10.217-12.36H53.64zM73.512 129.591h4.91v19.043h-4.91zM94.786 145.164h-7.678l-1.212 3.47H80.96l7.054-19.043h5.854l7.053 19.043h-4.936zm-6.454-3.532h5.217l-2.602-7.577zM103.446 129.591h4.91v15.331h8.623v3.712h-13.533zM120.09 129.591h4.911v19.043h-4.91zM143.061 130.19v4.031q-1.568-.701-3.06-1.058-1.493-.357-2.82-.357-1.76 0-2.601.484-.842.485-.842 1.505 0 .765.561 1.2.574.42 2.066.726l2.092.421q3.176.638 4.515 1.939 1.34 1.3 1.34 3.698 0 3.15-1.876 4.694-1.862 1.53-5.7 1.53-1.812 0-3.636-.344t-3.648-1.02v-4.145q1.824.969 3.52 1.466 1.71.485 3.291.485 1.607 0 2.462-.536.854-.535.854-1.53 0-.893-.586-1.378-.574-.484-2.309-.867l-1.9-.42q-2.857-.613-4.184-1.952-1.313-1.34-1.313-3.61 0-2.844 1.836-4.374 1.837-1.53 5.28-1.53 1.57 0 3.227.241 1.658.23 3.431.702zM146.352 129.591h17.55v3.712h-6.313v15.33h-4.91v-15.33h-6.327zM166.44 129.591h4.91v19.043h-4.91zM189.41 130.19v4.031q-1.568-.701-3.06-1.058-1.493-.357-2.82-.357-1.76 0-2.601.484-.842.485-.842 1.505 0 .765.561 1.2.574.42 2.067.726l2.091.421q3.176.638 4.515 1.939 1.34 1.3 1.34 3.698 0 3.15-1.875 4.694-1.862 1.53-5.702 1.53-1.81 0-3.635-.344-1.823-.344-3.647-1.02v-4.145q1.824.969 3.52 1.466 1.709.485 3.29.485 1.608 0 2.462-.536.855-.535.855-1.53 0-.893-.587-1.378-.574-.484-2.309-.867l-1.9-.42q-2.857-.613-4.183-1.952-1.314-1.34-1.314-3.61 0-2.844 1.837-4.374 1.836-1.53 5.28-1.53 1.569 0 3.227.241 1.658.23 3.43.702zM210.073 147.588q-1.352.701-2.819 1.058-1.467.358-3.061.358-4.757 0-7.538-2.653-2.78-2.666-2.78-7.22 0-4.565 2.78-7.218 2.78-2.666 7.538-2.666 1.594 0 3.061.357 1.467.357 2.819 1.059v3.94q-1.365-.93-2.691-1.364-1.327-.433-2.794-.433-2.627 0-4.132 1.683-1.505 1.684-1.505 4.643 0 2.946 1.505 4.63 1.505 1.683 4.132 1.683 1.467 0 2.794-.434 1.326-.433 2.69-1.364zM214.141 129.591h4.91v7.258h7.245v-7.258h4.91v19.043h-4.91v-8.074h-7.244v8.074h-4.91z" style="stroke-width:.653022" transform="matrix(.82502 0 0 1.17232 -.75 3.26)"/>
    </g>
</svg>
