<svg xmlns="http://www.w3.org/2000/svg" width="200" height="200" xml:space="preserve" style="fill-rule:evenodd;clip-rule:evenodd;stroke-linejoin:round;stroke-miterlimit:2">
    <path d="M100 3.75C100 1.68 98.32 0 96.25 0H3.75C1.68 0 0 1.68 0 3.75v92.5C0 98.32 1.68 100 3.75 100h92.5c2.07 0 3.75-1.68 3.75-3.75V3.75z" style="fill:#222" transform="scale(2)"/>
    <path d="M95 7.5A2.5 2.5 0 0 0 92.5 5h-85A2.5 2.5 0 0 0 5 7.5v85A2.5 2.5 0 0 0 7.5 95h85a2.5 2.5 0 0 0 2.5-2.5v-85z" style="fill:#099" transform="scale(2)"/>
    <path d="M496.5 10c60.3 0 109.2 48.9 109.2 109.2 0 60.3-48.9 109.2-109.2 109.2-60.3 0-109.2-48.9-109.2-109.2C387.3 58.9 436.2 10 496.5 10zm42.7 331.7h27.2c8.8 0 16.4 5 20 12.7 54.1 20.8 66.9 87 69.5 128.6H715c-25.7-119.6-93.2-216.9-189.8-248.7L498 261.6 471.6 234h-.3c-13.5 3.2-155.5 66.2-186.4 249H372c4.4-18.5 9.1-34.8 14.1-48.9V483H621c.6-27.2-9.2-53.1-10.9-57.3.3.9-13.7-32.1-36.5-40.8-2.3.8-4.7 1.2-7.1 1.2h-27.2c-12.2 0-22.2-10-22.2-22.2-.1-12.2 9.9-22.2 22.1-22.2zm-14.6 100.1-26.4 36.1h-.5l-26.3-36.1 26.3-176.1h.5l26.4 176.1z" style="fill:#222;fill-rule:nonzero" transform="matrix(.147 0 0 .147 29 24)"/>
    <path style="fill:#222" d="M240.4 494.6h519.2v56.5H240.4z" transform="matrix(.147 0 0 .147 29 24)"/>
    <path d="M319 990h362l35.9-426H283.1L319 990z" style="fill:#222;fill-rule:nonzero" transform="matrix(.147 0 0 .147 29 24)"/>
    <path d="M2.75 70v25c0 5.817 4.683 1.25 10.5 1.25h73.5c5.817 0 10.5 4.567 10.5-1.25V70H2.75z" style="fill:#222;fill-rule:nonzero" transform="scale(2)"/>
    <g style="font-weight:700;font-size:31.0037px;line-height:1.25;font-family:sans-serif;-inkscape-font-specification:'sans-serif Bold';letter-spacing:0;word-spacing:0;fill:#fee;fill-opacity:1;stroke-width:.77509">
        <path d="M9.91 156.513h9.674q4.315 0 6.616 1.923 2.316 1.907 2.316 5.45 0 3.557-2.316 5.48-2.301 1.907-6.616 1.907H15.74v7.842H9.911zm5.829 4.224v6.312h3.225q1.695 0 2.618-.817.924-.833.924-2.347 0-1.513-.924-2.33-.923-.818-2.618-.818zm27.219-.409q-2.664 0-4.133 1.968-1.468 1.968-1.468 5.54 0 3.558 1.468 5.526 1.469 1.968 4.133 1.968 2.68 0 4.148-1.968 1.468-1.968 1.468-5.525 0-3.573-1.468-5.541-1.468-1.968-4.148-1.968zm0-4.224q5.45 0 8.538 3.119 3.088 3.118 3.088 8.614 0 5.48-3.088 8.598-3.088 3.119-8.538 3.119-5.435 0-8.538-3.119-3.088-3.118-3.088-8.598 0-5.496 3.088-8.614 3.103-3.119 8.538-3.119zm16.032.409h5.828v18.196h10.234v4.406H58.99zm19.756 0h5.828v22.602h-5.828zm8.84 0h20.831v4.405h-7.494v18.197h-5.828v-18.197h-7.509zm23.844 0h5.828v22.602h-5.828zm27.264.711v4.784q-1.862-.832-3.633-1.256-1.771-.424-3.346-.424-2.089 0-3.088.575-1 .575-1 1.786 0 .909.667 1.424.681.5 2.452.862l2.483.5q3.77.757 5.36 2.301 1.589 1.544 1.589 4.39 0 3.74-2.226 5.571-2.21 1.817-6.767 1.817-2.15 0-4.314-.409-2.165-.409-4.33-1.211v-4.92q2.165 1.15 4.179 1.74 2.028.576 3.905.576 1.908 0 2.922-.636 1.014-.635 1.014-1.816 0-1.06-.696-1.635-.681-.576-2.74-1.03l-2.256-.5q-3.39-.726-4.965-2.315-1.56-1.59-1.56-4.285 0-3.376 2.18-5.192 2.18-1.817 6.268-1.817 1.862 0 3.83.288 1.968.272 4.072.832zm24.525 20.649q-1.605.833-3.346 1.257-1.741.424-3.633.424-5.647 0-8.947-3.149-3.3-3.164-3.3-8.568 0-5.42 3.3-8.569 3.3-3.164 8.947-3.164 1.892 0 3.633.424 1.74.424 3.346 1.257v4.677q-1.62-1.105-3.195-1.62-1.574-.514-3.315-.514-3.119 0-4.905 1.998t-1.786 5.51q0 3.498 1.786 5.496 1.786 1.998 4.905 1.998 1.74 0 3.315-.515 1.575-.514 3.195-1.62zm4.829-21.36h5.828v8.614h8.599v-8.614h5.828v22.602h-5.828v-9.583h-8.599v9.583h-5.828z" style="stroke-width:.77509" transform="scale(1.00901 .99107)" aria-label="POLITISCH"/>
    </g>
</svg>
