<svg xmlns="http://www.w3.org/2000/svg" width="200" height="200" xml:space="preserve" style="fill-rule:evenodd;clip-rule:evenodd;stroke-linejoin:round;stroke-miterlimit:2">
    <path d="M100 3.75C100 1.68 98.32 0 96.25 0H3.75C1.68 0 0 1.68 0 3.75v92.5C0 98.32 1.68 100 3.75 100h92.5c2.07 0 3.75-1.68 3.75-3.75V3.75z" style="fill:#222" transform="scale(2)"/>
    <path d="M95 7.5A2.5 2.5 0 0 0 92.5 5h-85A2.5 2.5 0 0 0 5 7.5v85A2.5 2.5 0 0 0 7.5 95h85a2.5 2.5 0 0 0 2.5-2.5v-85z" style="fill:#ffbf00" transform="scale(2)"/>
    <path d="M68.8 930v548.8H29.6v39.2l156.8 154.8v119.6H108v39.2h78.4v78.4h39.2v-78.4H304v-39.2h-78.4v-119.6L382.4 1518v-39.2h-39.2v-274.4h588V969.2h39.2V930H68.8zm313.6 313.6v156.8h431.2l117.6-117.6v-39.2H382.4zm39.2-235.2h39.2V1126h-39.2v-117.6zm78.4 0h39.2V1126H500v-117.6zm78.4 0h39.2V1126h-39.2v-117.6zm78.4 0H696V1126h-39.2v-117.6zm78.4 0h39.2V1126h-39.2v-117.6zm78.4 0h39.2V1126h-39.2v-117.6z" style="fill:#222;fill-rule:nonzero" transform="matrix(.121 0 0 -.121 42 259.32)"/>
    <path d="M2.75 70v25c0 5.817 4.683 1.25 10.5 1.25h73.5c5.817 0 10.5 4.567 10.5-1.25V70H2.75z" style="fill:#222;fill-rule:nonzero" transform="scale(2)"/>
    <g style="font-weight:700;font-size:28.9755px;line-height:1.25;font-family:sans-serif;-inkscape-font-specification:'sans-serif Bold';letter-spacing:0;word-spacing:0;fill:#fee;fill-opacity:1;stroke-width:.724386">
        <path d="M40.5 155.574q1.712 0 2.448-.637.75-.636.75-2.094 0-1.443-.75-2.065-.736-.623-2.448-.623h-2.292v5.42zm-2.292 3.763v7.994h-5.447v-21.123h8.32q4.173 0 6.111 1.4 1.953 1.401 1.953 4.429 0 2.094-1.019 3.438-1.004 1.344-3.042 1.98 1.118.255 1.995 1.16.891.892 1.797 2.717l2.957 6h-5.8l-2.576-5.25q-.778-1.584-1.584-2.164-.793-.58-2.123-.58zm16.865-13.129h14.7v4.117H60.52v3.933h8.701v4.117H60.52v4.84h9.564v4.116H55.073zm19.793 0h5.447v17.006h9.564v4.117h-15.01zm18.464 0h5.447v21.123H93.33zm29.767 19.552q-2.037.991-4.23 1.486-2.193.496-4.527.496-5.278 0-8.362-2.943-3.084-2.957-3.084-8.008 0-5.108 3.14-8.036 3.142-2.929 8.603-2.929 2.108 0 4.032.396 1.938.396 3.65 1.174v4.372q-1.768-1.004-3.523-1.5-1.74-.495-3.494-.495-3.254 0-5.023 1.825-1.754 1.811-1.754 5.193 0 3.353 1.698 5.178 1.697 1.825 4.824 1.825.849 0 1.57-.099.736-.113 1.316-.34v-4.102h-3.325v-3.65h8.49zm4.797-19.552h5.447v21.123h-5.447zm20.43 3.565q-2.49 0-3.863 1.84-1.372 1.839-1.372 5.178 0 3.325 1.372 5.164 1.373 1.84 3.863 1.84 2.504 0 3.876-1.84 1.373-1.84 1.373-5.164 0-3.34-1.373-5.178-1.372-1.84-3.876-1.84zm0-3.947q5.093 0 7.98 2.915 2.885 2.914 2.885 8.05 0 5.121-2.886 8.036-2.886 2.915-7.98 2.915-5.079 0-7.979-2.915-2.886-2.915-2.886-8.036 0-5.136 2.886-8.05 2.9-2.915 7.98-2.915zm-4.457-5.362h3.325v3.48h-3.325zm5.588 0h3.325v3.48h-3.325zm28.551 6.409v4.47q-1.74-.777-3.395-1.174-1.655-.396-3.127-.396-1.952 0-2.886.538-.934.538-.934 1.67 0 .848.623 1.33.636.466 2.292.806l2.32.467q3.523.707 5.008 2.15 1.486 1.443 1.486 4.103 0 3.495-2.08 5.207-2.065 1.698-6.324 1.698-2.01 0-4.032-.382-2.023-.382-4.047-1.132v-4.598q2.024 1.075 3.905 1.627 1.896.537 3.65.537 1.783 0 2.731-.594t.948-1.698q0-.99-.65-1.528-.637-.537-2.562-.962l-2.108-.467q-3.169-.679-4.64-2.164-1.458-1.486-1.458-4.004 0-3.155 2.038-4.853 2.037-1.698 5.857-1.698 1.74 0 3.58.269 1.839.254 3.805.778z" style="stroke-width:.724386" transform="scale(.94271 1.06077)" aria-label="RELIGIÖS"/>
    </g>
</svg>
