<svg xmlns="http://www.w3.org/2000/svg" width="200" height="200" xml:space="preserve" style="fill-rule:evenodd;clip-rule:evenodd;stroke-linejoin:round;stroke-miterlimit:2">
    <path d="M100 3.75C100 1.68 98.32 0 96.25 0H3.75C1.68 0 0 1.68 0 3.75v92.5C0 98.32 1.68 100 3.75 100h92.5c2.07 0 3.75-1.68 3.75-3.75V3.75z" style="fill:#222" transform="scale(2)"/>
    <path d="M95 7.5A2.5 2.5 0 0 0 92.5 5h-85A2.5 2.5 0 0 0 5 7.5v85A2.5 2.5 0 0 0 7.5 95h85a2.5 2.5 0 0 0 2.5-2.5v-85z" style="fill:#a600a6" transform="scale(2)"/>
    <path d="M46.983 17.73c-1.86-3.026-6.364-4.505-6.431-4.27-.001.004-4.111 1.527-5.825 4.27-1.801 2.93-3.159 7.139-4.199 12.38-4.899-1.694-9.161-2.647-12.61-2.587-3.625.064-6.146.991-7.28 2.976v.01c-.39.709-.583 1.516-.583 2.399 0 1.591.587 3.37 1.692 5.358 1.634 3.024 4.564 6.262 8.474 9.696-3.97 3.492-6.937 6.752-8.573 9.751v.008c-1.04 1.985-1.593 3.725-1.593 5.252 0 .883.194 1.69.583 2.4v.009c1.102 1.954 3.567 2.894 7.13 3.02h.01c3.453.09 7.761-.882 12.743-2.631 1.036 5.097 2.356 9.271 4.108 12.231v.007c1.89 3.12 3.97 4.845 6.269 4.845 2.274 0 4.322-1.725 6.181-4.845v-.007c1.753-2.962 3.083-7.137 4.119-12.24 5.026 1.729 9.346 2.687 12.779 2.596 3.558-.094 6.023-1.017 7.127-2.966v-.01c.427-.714.638-1.548.638-2.462 0-1.528-.553-3.251-1.594-5.207v-.009c-1.673-3.013-4.663-6.264-8.669-9.749 3.915-3.438 6.889-6.683 8.58-9.733h-.009c1.105-1.958 1.692-3.706 1.692-5.27 0-.914-.211-1.748-.638-2.462-1.137-1.983-3.663-2.903-7.315-2.966-3.44-.062-7.709.892-12.619 2.577-1.04-5.234-2.387-9.443-4.187-12.371zm-6.085-1.16c.568 0 1.163.255 1.825.876.663.621 1.361 1.604 2.062 2.947 1.309 2.476 2.358 6.19 3.17 10.842a82.343 82.343 0 0 0-7.047 3.09 91.159 91.159 0 0 0-7.156-3.09c.812-4.652 1.861-8.366 3.17-10.842.701-1.341 1.405-2.327 2.081-2.947.675-.62 1.289-.876 1.895-.876zM18.005 30.726c.344-.004.707.002 1.092.021 2.824.143 6.494 1.086 10.794 2.664a94.956 94.956 0 0 0-.832 7.697 92.971 92.971 0 0 0-6.235 4.588c-3.544-2.934-6.208-5.646-7.748-8.041v-.01c-.834-1.281-1.342-2.385-1.542-3.285-.199-.9-.11-1.569.214-2.109l.009-.009c.294-.517.819-.917 1.701-1.186.662-.201 1.514-.316 2.547-.33zm45.745 0c1.033.014 1.887.128 2.556.33.886.268 1.425.669 1.734 1.186.31.538.403 1.206.196 2.109-.206.902-.725 2.012-1.56 3.294v.009c-1.54 2.424-4.22 5.151-7.793 8.086a93.072 93.072 0 0 0-6.232-4.597 84.691 84.691 0 0 0-.879-7.732c4.299-1.578 7.991-2.52 10.876-2.664h.008c.384-.018.75-.025 1.094-.021zm-15.253 3.943c.173 1.338.305 2.702.424 4.082-.664-.409-1.328-.817-1.992-1.24l-.026-.016c-.737-.41-1.442-.786-2.153-1.169a138.787 138.787 0 0 1 3.747-1.656v-.001zm-15.277.036a106.82 106.82 0 0 1 3.747 1.63c-.703.383-1.4.76-2.116 1.17a.23.23 0 0 0-.019.007c-.691.427-1.367.835-2.045 1.249.119-1.377.26-2.735.433-4.056zm7.582 3.542c1.437.751 2.874 1.515 4.311 2.32 1.405.803 2.775 1.641 4.126 2.498.081 1.606.125 3.235.125 4.896 0 1.635-.044 3.255-.125 4.862a76.118 76.118 0 0 1-4.126 2.488l-.009.01c-1.404.83-2.812 1.605-4.215 2.355a72.134 72.134 0 0 1-4.232-2.355.23.23 0 0 0-.028-.01 67.97 67.97 0 0 1-4.161-2.488 148.457 148.457 0 0 1 0-9.759 89.944 89.944 0 0 1 4.171-2.497h.009c1.372-.8 2.755-1.573 4.154-2.32zm.096 5.614c-.714 0-1.401.189-2.036.541a3.59 3.59 0 0 0-1.523 1.479 4.209 4.209 0 0 0 0 4.126l.01.009c.36.613.876 1.108 1.513 1.462a4.161 4.161 0 0 0 2.036.539c.689 0 1.364-.189 1.994-.539a3.97 3.97 0 0 0 1.514-1.462l.009-.009a4.196 4.196 0 0 0 .539-2.046c0-.739-.184-1.441-.539-2.08a3.585 3.585 0 0 0-1.523-1.479 4.094 4.094 0 0 0-1.994-.541zm-12.033 1.666c-.014.809-.029 1.612-.029 2.434 0 .801.015 1.599.029 2.4a79.089 79.089 0 0 1-3.33-2.4 68.791 68.791 0 0 1 3.33-2.434zm23.987 0a76.909 76.909 0 0 1 3.367 2.434 91.019 91.019 0 0 1-3.367 2.4c.027-.8.064-1.6.064-2.4 0-.822-.036-1.625-.064-2.434zm-30.063 4.658a100.897 100.897 0 0 0 6.27 4.595c.175 2.611.457 5.174.832 7.687-4.387 1.607-8.107 2.552-10.928 2.666-1.506.06-2.699-.059-3.568-.328-.869-.269-1.389-.664-1.683-1.169-.292-.503-.378-1.155-.178-2.045.2-.89.692-1.995 1.498-3.278l.009-.008c1.449-2.386 4.12-5.129 7.748-8.12zm36.129 0c3.632 2.993 6.323 5.738 7.803 8.128a.014.014 0 0 0 0 .009c.82 1.283 1.323 2.382 1.522 3.269.2.887.111 1.532-.194 2.036v.009c-.293.505-.823.9-1.692 1.169s-2.062.388-3.568.328c-2.822-.113-6.556-1.058-10.972-2.666.375-2.513.659-5.076.834-7.687a100.822 100.822 0 0 0 6.267-4.595zm-26.131 6.933c.677.424 1.346.857 2.064 1.267.695.409 1.407.788 2.116 1.17-1.265.579-2.519 1.13-3.756 1.654a93.936 93.936 0 0 1-.424-4.091zm16.134.009a96.719 96.719 0 0 1-.424 4.082 141.878 141.878 0 0 1-3.747-1.654c.711-.383 1.416-.76 2.153-1.169l.008-.01c.69-.406 1.347-.829 2.01-1.249zm-8.119 4.429a93.185 93.185 0 0 0 7.163 3.135c-.784 4.544-1.822 8.208-3.135 10.749v.01c-.686 1.356-1.387 2.349-2.055 2.975-.668.627-1.273.886-1.877.886-.623 0-1.248-.268-1.93-.895-.683-.627-1.39-1.619-2.09-2.976-1.314-2.541-2.352-6.205-3.135-10.749a92.022 92.022 0 0 0 7.059-3.135z" style="fill:#222;fill-rule:nonzero" transform="matrix(-2 0 0 -2 181.723 186.984)"/>
    <path d="M2.75 70v25c0 5.817 4.683 1.25 10.5 1.25h73.5c5.817 0 10.5 4.567 10.5-1.25V70H2.75z" style="fill:#222;fill-rule:nonzero" transform="scale(2)"/>
    <g aria-label="ARELIGIÖS" style="font-weight:700;font-size:29.2439px;line-height:1.25;font-family:sans-serif;-inkscape-font-specification:'sans-serif Bold';text-align:center;letter-spacing:0;word-spacing:0;text-anchor:middle;fill:#fee;fill-opacity:1;stroke-width:.731098">
        <path d="M33.302 165.968h-8.596l-1.357 3.884h-5.526l7.897-21.319h6.554l7.896 21.32h-5.526zm-7.225-3.955h5.84l-2.913-8.482zM50.808 157.986q1.728 0 2.47-.642.757-.643.757-2.114 0-1.456-.756-2.085-.743-.628-2.47-.628h-2.314v5.47zm-2.313 3.798v8.068h-5.497v-21.319h8.396q4.212 0 6.168 1.414 1.971 1.414 1.971 4.47 0 2.113-1.028 3.47-1.014 1.356-3.07 1.998 1.128.257 2.013 1.171.9.9 1.814 2.742l2.984 6.054h-5.854l-2.6-5.297q-.785-1.6-1.599-2.185-.8-.586-2.141-.586zM65.516 148.533h14.836v4.156h-9.339v3.97h8.782v4.154h-8.782v4.884h9.653v4.155h-15.15zM85.493 148.533h5.497v17.164h9.653v4.155h-15.15zM104.127 148.533h5.498v21.32h-5.498zM134.17 168.267q-2.056 1-4.269 1.5t-4.57.5q-5.325 0-8.438-2.97-3.113-2.985-3.113-8.083 0-5.155 3.17-8.11 3.17-2.956 8.682-2.956 2.127 0 4.07.4 1.955.4 3.683 1.185v4.412q-1.785-1.014-3.555-1.514-1.757-.5-3.527-.5-3.284 0-5.07 1.843-1.77 1.827-1.77 5.24 0 3.384 1.713 5.226 1.714 1.842 4.87 1.842.856 0 1.585-.1.742-.114 1.328-.342v-4.141h-3.356v-3.684h8.568zM139.011 148.533h5.498v21.32h-5.498zM159.63 152.132q-2.513 0-3.898 1.856-1.385 1.856-1.385 5.226 0 3.356 1.385 5.212 1.385 1.856 3.899 1.856 2.527 0 3.912-1.856 1.385-1.856 1.385-5.212 0-3.37-1.385-5.226-1.385-1.856-3.912-1.856zm0-3.984q5.141 0 8.054 2.941 2.913 2.942 2.913 8.125 0 5.17-2.913 8.11-2.913 2.942-8.053 2.942-5.127 0-8.054-2.941-2.913-2.942-2.913-8.11 0-5.184 2.913-8.126 2.927-2.941 8.054-2.941zm-4.497-5.412h3.355v3.513h-3.355zm5.64 0h3.355v3.513h-3.355zM189.588 149.204v4.513q-1.756-.786-3.427-1.186-1.67-.4-3.155-.4-1.97 0-2.913.543-.943.543-.943 1.685 0 .857.629 1.342.642.472 2.313.814l2.342.472q3.555.714 5.054 2.17 1.5 1.457 1.5 4.141 0 3.527-2.1 5.255-2.084 1.713-6.382 1.713-2.028 0-4.07-.385-2.042-.386-4.084-1.143v-4.64q2.042 1.085 3.941 1.642 1.914.542 3.685.542 1.799 0 2.755-.6.957-.6.957-1.713 0-1-.657-1.542-.642-.543-2.584-.971l-2.128-.471q-3.198-.686-4.683-2.185-1.471-1.5-1.471-4.041 0-3.184 2.056-4.898 2.056-1.713 5.912-1.713 1.756 0 3.612.271 1.857.257 3.841.785z" style="stroke-width:.731098" transform="scale(.9578 1.04406)"/>
    </g>
</svg>
