<svg xmlns="http://www.w3.org/2000/svg" width="200" height="200" xml:space="preserve" style="fill-rule:evenodd;clip-rule:evenodd;stroke-linejoin:round;stroke-miterlimit:2">
    <path d="M100 3.75C100 1.68 98.32 0 96.25 0H3.75C1.68 0 0 1.68 0 3.75v92.5C0 98.32 1.68 100 3.75 100h92.5c2.07 0 3.75-1.68 3.75-3.75V3.75z" style="fill:#222" transform="scale(2)"/>
    <path d="M95 7.5A2.5 2.5 0 0 0 92.5 5h-85A2.5 2.5 0 0 0 5 7.5v85A2.5 2.5 0 0 0 7.5 95h85a2.5 2.5 0 0 0 2.5-2.5v-85z" style="fill:#048cf4" transform="scale(2)"/>
    <path d="M1201.11 1103.02c-8.32 0-16.64.21-21.4.65-54.6 5.05-102.29 24.43-144.3 58.7-9.04 7.38-26.84 25.16-34.48 34.43-33.87 41.1-53.458 88.47-58.875 142.24-1.099 10.9-1.258 34.72-.281 45.31 5.118 55.44 25.142 103.94 60.376 146.25 2.91 3.5 9.59 10.6 15.18 16.19 13.96 13.96 24.76 22.86 40.73 33.47 36.1 24 79.48 38.9 122.48 42.02 4.24.31 8.86.62 10.27.72 6.02.44 25.59-.2 34.27-1 32.49-2.99 62.78-11.61 92.12-26.23 76.24-37.98 129.4-111.5 141.28-195.35 2-14.1 2.64-23.15 2.63-37.94-.05-29.15-4.26-55.07-13.45-82.53-10.26-30.68-26.11-58.79-47.6-84.59-6.72-8.08-23.42-24.79-31.35-31.37-42.62-35.36-90.71-55.19-146.2-60.32-4.76-.44-13.08-.65-21.4-.65zm-60.74 40.88c-13 14.22-27.23 32.89-38.11 50.9-5.28 8.73-13.22 23.91-17.91 34.26-.78 1.71-1.48 3.23-2.07 4.46-.3-.12-.43-.14-.78-.28-2.2-.89-5.33-2.3-8.76-3.9-6.88-3.21-15.18-7.35-21.2-10.71-4.3-2.4-9.4-5.39-13.45-7.87-1.7-1.04-3.06-1.92-4.24-2.68.56-.64 1.01-1.22 1.73-1.96 18.53-19.29 38.15-33.98 61.49-46.09 12.79-6.63 28.95-12.11 43.3-16.13zm121.31.06c34.9 9.64 69.27 27.91 94.97 52.34 4.33 4.12 7.96 7.72 10.43 10.32.57.6.85.91 1.29 1.4-1.24.79-2.64 1.73-4.35 2.79-4.05 2.5-8.94 5.43-12.4 7.36-2.96 1.66-9.7 5.13-14.72 7.59-5.02 2.47-11.75 5.56-14.63 6.76l-2.34 1-.67-1.56c-3.58-8.04-14.24-28.81-18.02-35.1-11.36-18.93-25.68-37.63-39.56-52.9zm-76.67.28c.03 2.93.08 6.05.11 10.49.07 11.21.11 26.68.11 43.69v58.26h-.89c-12.17-.19-35.87-3.46-52.51-7.31-5.97-1.38-11.62-2.87-15.73-4.07-1.46-.43-2.42-.78-3.41-1.12.65-1.48 1.51-3.34 2.51-5.47 2.16-4.56 4.9-10.01 7.03-13.95 13.45-24.88 27.39-44.29 46.49-64.67 2.82-3.01 8.24-8.33 12.94-12.78 1.28-1.21 2.23-2.04 3.35-3.07zm32.2 0c.72.66 1.27 1.11 2.06 1.84 3.9 3.63 8.42 7.94 11 10.6 20.28 20.99 35.5 41.78 49.54 67.69 2.01 3.69 4.74 9.27 6.98 14.01 1.07 2.26 2.04 4.28 2.73 5.85-1.13.38-2.33.76-4.02 1.23-18.6 5.26-39.62 9.12-59.26 10.78-3.26.27-7.6.49-9.26.5v-58.37c0-19.14.09-34.61.17-45.26.03-3.88.02-6.33.06-8.87zm-203.51 89.11c.8.49 1.54.94 2.51 1.57 15.97 10.36 35.8 20.78 53.01 27.89.99.41 1.23.58 1.79.84-.4 1.3-.71 2.34-1.4 4.58-7.51 24.44-12.74 53.88-13.91 78.62l-41.21.12-40.856.11.118-1.74c.389-6.62 1.523-15.36 3.174-24.32 3.912-21.22 11.577-43.41 21.489-62.5 4.425-8.52 11.375-19.67 15.285-25.17zm374.64.17c15.99 23.65 27.35 47.6 33.88 73.71 3.3 13.21 6.15 32.35 6.24 39.85h-40.62c-12.18 0-23.27 0-31.36-.06a995.3 995.3 0 0 1-9.6-.11c-.21-.01-.3 0-.5 0v-.06c0-11.57-3.21-35.32-7.03-52.9-1.81-8.32-6.21-24.8-8.14-30.3.59-.27 1.11-.54 1.83-.84 17.07-7.05 37.07-17.59 52.96-27.89.9-.59 1.59-.96 2.34-1.4zm-86.16 36.82c.97-.31 1.24.22 3.13 6.23 6.5 20.63 11.82 50.27 12.47 69.47l.15 4.37-52.01.13c-41.33.1-52.05 0-52.25-.51-.13-.36-.19-14.97-.12-32.48l.14-31.84 5.13-.37c25.71-1.86 44.12-4.64 63.81-9.62 6.93-1.76 15.88-4.22 19.55-5.38zm-200.71 3.86c24.57 7.58 51.4 12.58 81.42 14.68l2.07.16v57.81l-48.38.12c-16.21.04-29.26.06-38.23 0-4.48-.03-7.93-.12-10.27-.17-.1-.01-.12 0-.22 0 .06-1.22.15-2.51.28-4.25.35-4.34.93-9.95 1.56-15.06 1.96-15.9 6.23-35.94 10.61-49.83.66-2.09.87-2.67 1.16-3.46zm-127.836 104.68h81.866c.15 1.73.53 6.62.83 10.83 1.69 23.24 6.23 47.42 13.17 70.25l.84 2.67c-1.08.46-2.28 1-3.63 1.57-16.2 6.85-38.03 18.52-51.28 27.4-.65.44-1.21.79-1.79 1.17-.15-.21-.22-.27-.39-.51-1.3-1.81-3.09-4.49-5.02-7.59-3.86-6.19-8.346-14.04-11.38-20.08-12.511-24.93-21.597-58-23.098-83.98l-.118-1.73zm114.056 0 48.49.11 48.78.17v57.75l-2.07.17c-29.54 2.07-51.97 5.91-77.67 13.34l-2.51.73c-.7.19-1.49.39-2.07.55-.28-.83-.54-1.6-.89-2.79-1.08-3.56-2.47-8.46-3.75-13.61-4.24-17.11-7.15-36.41-8.2-54.19l-.11-2.23zm226.83 0-.11 2.24c-1.32 22.41-5.4 45.63-11.83 67.51-.44 1.48-.69 2.41-.95 3.18-.17-.05-.13-.05-.34-.11-23.51-7.47-52.12-12.59-81.68-14.62l-2.35-.17v-57.81l48.77-.11 48.49-.11zm32.14 0h81.86c-.04 1.45-.29 5.26-.67 8.59-4.33 37.53-16.4 70.89-36.83 101.78-.91 1.38-1.69 2.49-2.4 3.52-.33-.22-.58-.37-.94-.62-13.63-9.15-35.92-21.08-52.18-27.95-1.34-.57-2.54-1.11-3.62-1.57l.83-2.67c7.12-23.4 12.23-51.28 13.45-73.66.15-2.73.37-5.93.5-7.42zm-161.43 90.4v62.6c0 15.95-.07 30.87-.11 41.52-.02 4.64-.03 7.96-.05 10.99-.05-.04-.08-.07-.12-.11-3.22-2.97-7.33-6.87-11.1-10.66-21.99-22.06-39.76-46.59-54.13-74.66-1.85-3.63-4.16-8.5-6.02-12.55-.79-1.72-1.48-3.16-2.02-4.41.46-.15.66-.27 1.24-.45 3.01-.91 7.65-2.15 13.83-3.68 17.71-4.4 39.67-7.73 55.02-8.42l3.46-.17zm31.75 0 3.35.17c9.42.44 23.02 2.01 34.99 4.12 7.35 1.3 17.1 3.54 24.94 5.53 3.91 1 7.37 1.93 9.76 2.67.25.08.34.1.56.17-.72 1.68-1.79 4.07-3.4 7.54-15.55 33.63-39.6 66.68-66.68 91.79-1.22 1.13-2.21 2.03-3.29 3.02-.02-.68-.05-.63-.06-1.46-.12-8.17-.17-24.03-.17-54.07v-59.48zm-135.65 23.6c.38.77.65 1.29 1.45 3.13 13.6 31.11 33.46 60.99 56.02 86.37-4.03-1.19-8.55-2.61-11.99-3.79-27.77-9.55-53.52-24.43-75.89-43.92-1.72-1.5-6.78-6.46-11.27-10.93-2.2-2.19-4.27-4.28-5.8-5.86 1.67-1.1 3.84-2.48 6.52-4.08 5.73-3.41 13.08-7.56 19.37-10.82 3.56-1.84 8.92-4.44 13.67-6.64 3.78-1.75 6.25-2.79 7.92-3.46zm239.55 0c2.9 1.11 8.14 3.44 14.73 6.7 7.49 3.7 15.68 8.03 21.32 11.32 5.64 3.29 9.41 5.53 11.49 6.98a230.35 230.35 0 0 1-4.35 4.52c-3.45 3.46-7.59 7.44-10.32 9.93-24.82 22.67-57.12 39.53-89.57 48.83 22.33-25.37 41.73-54.25 55.25-85.15.81-1.84 1.06-2.36 1.45-3.13z" style="fill:#222;fill-rule:nonzero" transform="translate(-217.796 -272.54) scale(.26458)"/>
    <path d="M2.75 70v25c0 5.817 4.683 1.25 10.5 1.25h73.5c5.817 0 10.5 4.567 10.5-1.25V70H2.75z" style="fill:#222;fill-rule:nonzero" transform="scale(2)"/>
    <g style="font-weight:700;font-size:28.1094px;line-height:1.25;font-family:sans-serif;-inkscape-font-specification:'sans-serif Bold';letter-spacing:0;word-spacing:0;fill:#fee;fill-opacity:1;stroke-width:.702735">
        <path d="M10.63 127.486h5.284v12.284q0 2.54.823 3.637.837 1.085 2.718 1.085 1.894 0 2.717-1.084.838-1.099.838-3.638v-12.284h5.284v12.284q0 4.351-2.182 6.479-2.183 2.127-6.657 2.127-4.46 0-6.643-2.127-2.183-2.128-2.183-6.479zm22.825 0h5.901l7.453 14.055v-14.055h5.01v20.492h-5.902l-7.453-14.055v14.055h-5.01zm23.525 0h5.284v20.492H56.98zm8.015 0h5.312l5.435 15.125 5.422-15.125h5.311l-7.59 20.492h-6.3zm24.198 0h14.26v3.994h-8.976v3.816h8.441v3.994h-8.44v4.694h9.278v3.994H89.193zm26.709 9.086q1.661 0 2.375-.617.727-.618.727-2.032 0-1.4-.727-2.004-.714-.603-2.375-.603h-2.223v5.256zm-2.223 3.651v7.755h-5.284v-20.492h8.07q4.05 0 5.93 1.359 1.894 1.359 1.894 4.296 0 2.031-.989 3.335-.974 1.304-2.95 1.922 1.084.247 1.935 1.125.864.865 1.743 2.635l2.868 5.82h-5.627l-2.498-5.092q-.755-1.537-1.537-2.1-.769-.563-2.059-.563zm30.621-12.092v4.337q-1.688-.754-3.294-1.139-1.606-.384-3.033-.384-1.894 0-2.8.522-.906.521-.906 1.62 0 .823.604 1.29.617.452 2.223.782l2.251.453q3.418.686 4.859 2.086 1.441 1.4 1.441 3.98 0 3.39-2.017 5.051-2.004 1.647-6.136 1.647-1.949 0-3.911-.37-1.963-.371-3.926-1.099v-4.46q1.963 1.043 3.788 1.578 1.84.522 3.542.522 1.729 0 2.648-.577.92-.576.92-1.647 0-.96-.631-1.482-.618-.522-2.485-.933l-2.045-.453q-3.074-.66-4.502-2.1-1.413-1.442-1.413-3.885 0-3.06 1.976-4.707 1.977-1.647 5.682-1.647 1.689 0 3.473.26 1.784.247 3.692.755zm5.984-.645h14.26v3.994h-8.975v3.816h8.44v3.994h-8.44v4.694h9.278v3.994h-14.563zm19.202 0h5.284v16.498h9.279v3.994h-14.563zm17.912 0h5.284v16.498h9.278v3.994h-14.562z" style="stroke-width:.702735" transform="matrix(.94078 0 0 1.06295 0 20)" aria-label="UNIVERSELL"/>
    </g>
</svg>
